
name: additional-glyphs 16
point-size: 16
spacing: character-cell

# 0001--001f: controls
# 007f--009f: controls



# adjusted caron for consistency
# [Č] LATIN CAPITAL LETTER C WITH CARON
u+010c:
    .@@.@@..
    ..@@@...
    ........
    ..@@@@..
    .@@..@@.
    @@....@.
    @@......
    @@......
    @@......
    @@......
    @@....@.
    .@@..@@.
    ..@@@@..
    ........
    ........
    ........


# already present
# u+004c,u+0307:
u+013f:
    ........
    ........
    ........
    @@@@....
    .@@.....
    .@@.....
    .@@.@@..
    .@@.@@..
    .@@.....
    .@@.....
    .@@...@.
    .@@..@@.
    @@@@@@@.
    ........
    ........
    ........


# already present
# u+006c,u+0307:
u+0140:
    ........
    ........
    ........
    .@@@....
    ..@@....
    ..@@....
    ..@@....
    ..@@.@@.
    ..@@.@@.
    ..@@....
    ..@@....
    ..@@....
    .@@@@...
    ........
    ........
    ........


# [ſ] LATIN SMALL LETTER LONG S
u+017f:
    ........
    ........
    ........
    ...@@@..
    ..@@.@@.
    ..@@..@.
    ..@@....
    ..@@....
    ..@@....
    ..@@....
    ..@@....
    ..@@....
    .@@@@...
    ........
    ........
    ........


# [ƀ] LATIN SMALL LETTER B WITH STROKE
u+0180:
    ........
    ........
    ........
    .@@.....
    @@@@@@..
    .@@.....
    .@@@@...
    .@@.@@..
    .@@..@@.
    .@@..@@.
    .@@..@@.
    .@@..@@.
    .@@@@@..
    ........
    ........
    ........


# [Ƃ] LATIN CAPITAL LETTER B WITH TOPBAR
u+0182:
    ........
    ........
    ........
    @@@@@@@.
    .@@...@.
    .@@.....
    .@@.....
    .@@@@@..
    .@@..@@.
    .@@..@@.
    .@@..@@.
    .@@..@@.
    @@@@@@..
    ........
    ........
    ........


# [ƃ] LATIN SMALL LETTER B WITH TOPBAR
u+0183:
    ........
    ........
    ........
    @@@@@@..
    .@@.....
    .@@.....
    .@@@@...
    .@@.@@..
    .@@..@@.
    .@@..@@.
    .@@..@@.
    .@@..@@.
    .@@@@@..
    ........
    ........
    ........


# [Ƅ] LATIN CAPITAL LETTER TONE SIX
u+0184:
    ........
    ........
    ........
    .@@.....
    @@@.....
    .@@.....
    .@@.....
    .@@@@@..
    .@@..@@.
    .@@..@@.
    .@@..@@.
    .@@..@@.
    @@@@@@..
    ........
    ........
    ........


# [ƅ] LATIN SMALL LETTER TONE SIX
u+0185:
    ........
    ........
    ........
    .@@.....
    @@@.....
    .@@.....
    .@@@@...
    .@@.@@..
    .@@..@@.
    .@@..@@.
    .@@..@@.
    .@@..@@.
    .@@@@@..
    ........
    ........
    ........


# uni-vga, rebaselined
# [Ƈ] LATIN CAPITAL LETTER C WITH HOOK
u+0187:
    ........
    ........
    ......@@
    ..@@@@@.
    .@@..@@.
    @@....@.
    @@......
    @@......
    @@......
    @@......
    @@....@.
    .@@..@@.
    ..@@@@..
    ........
    ........
    ........

# [ƈ] LATIN SMALL LETTER C WITH HOOK
u+0188:
    ........
    ........
    ........
    ........
    ........
    .....@@.
    .@@@@@..
    @@...@@.
    @@......
    @@......
    @@......
    @@...@@.
    .@@@@@..
    ........
    ........
    ........



# [Ƌ] LATIN CAPITAL LETTER D WITH TOPBAR
u+018b:
    ........
    ........
    ........
    .@@@@@@@
    .@...@@.
    .....@@.
    .....@@.
    ..@@@@@.
    .@@..@@.
    .@@..@@.
    .@@..@@.
    .@@..@@.
    ..@@@@@@
    ........
    ........
    ........


# [ƌ] LATIN SMALL LETTER D WITH TOPBAR
u+018c:
    ........
    ........
    ........
    .@@@@@@.
    ....@@..
    ....@@..
    ..@@@@..
    .@@.@@..
    @@..@@..
    @@..@@..
    @@..@@..
    @@..@@..
    .@@@.@@.
    ........
    ........
    ........


# [ƍ] LATIN SMALL LETTER TURNED DELTA
u+018d:
    ........
    ........
    ........
    ........
    ........
    ........
    ........
    .@@@@@..
    @@...@@.
    @@...@@.
    @@...@@.
    @@...@@.
    .@@@@@..
    ....@@..
    .....@@.
    .@@@@...


# redefine to fit in with f
# [ƒ] LATIN SMALL LETTER F WITH HOOK
u+0192:
    ........
    ........
    ........
    ...@@@..
    ..@@.@@.
    ..@@..@.
    ..@@....
    .@@@@...
    ..@@....
    ..@@....
    ..@@....
    ..@@....
    ..@@....
    ..@@....
    @@@.....
    ........


# uni-vga, rebaselined
# [Ɠ] LATIN CAPITAL LETTER G WITH HOOK
u+0193:
    ........
    ........
    ......@@
    ..@@@@@.
    .@@..@@.
    @@....@.
    @@......
    @@......
    @@.@@@@.
    @@...@@.
    @@...@@.
    .@@..@@.
    ..@@@.@.
    ........
    ........
    ........


# uni-vga, rebaselined
# [ƕ] LATIN SMALL LETTER HV
u+0195:
    ........
    ........
    ........
    @@......
    @@......
    @@......
    @@@@..@@
    @@.@@.@@
    @@.@@.@@
    @@.@@.@@
    @@.@@.@@
    @@.@@.@@
    @@..@@@.
    ........
    ........
    ........


# [ƛ] LATIN SMALL LETTER LAMBDA WITH STROKE
u+019b:
    ........
    ........
    ........
    .@@@@...
    @@..@@..
    ....@@..
    .@@@@@@.
    ....@@..
    ..@@@@..
    .@@.@@..
    @@..@@..
    @@...@@.
    @@...@@.
    ........
    ........
    ........


# [Ɯ] LATIN CAPITAL LETTER TURNED M
u+019c:
    ........
    ........
    ........
    @@.@.@@.
    @@.@.@@.
    @@.@.@@.
    @@.@.@@.
    @@.@.@@.
    @@.@.@@.
    @@.@.@@.
    @@.@.@@.
    @@@@@@@.
    .@@.@@@@
    ........
    ........
    ........


# [ƞ] LATIN SMALL LETTER N WITH LONG RIGHT LEG
u+019e:
    ........
    ........
    ........
    ........
    ........
    ........
    @@.@@@..
    .@@..@@.
    .@@..@@.
    .@@..@@.
    .@@..@@.
    .@@..@@.
    .@@..@@.
    .....@@.
    .....@@.
    .....@@.


# uni-vga, rebaselined
# [Ƣ] LATIN CAPITAL LETTER OI
u+01a2:
    ........
    ........
    ........
    .@@@..@@
    @@.@@@@@
    @@.@@.@@
    @@.@@.@@
    @@.@@.@@
    @@.@@.@@
    @@.@@.@@
    @@.@@.@@
    @@.@@.@@
    .@@@..@@
    ......@@
    ......@@
    ......@@


# uni-vga, rebaselined
# [ƣ] LATIN SMALL LETTER OI
u+01a3:
    ........
    ........
    ........
    ........
    ........
    ........
    .@@@..@@
    @@.@@@@@
    @@.@@.@@
    @@.@@.@@
    @@.@@.@@
    @@.@@.@@
    .@@@..@@
    ......@@
    ......@@
    ......@@


# uni-vga, rebaselined
# [Ƥ] LATIN CAPITAL LETTER P WITH HOOK
u+01a4:
    ........
    ........
    ........
    .@@@@@@.
    @.@@..@@
    @.@@..@@
    ..@@..@@
    ..@@@@@.
    ..@@....
    ..@@....
    ..@@....
    ..@@....
    .@@@@...
    ........
    ........
    ........


# uni-vga, rebaselined
# [ƥ] LATIN SMALL LETTER P WITH HOOK
u+01a5:
    ........
    ........
    ........
    ..@@@...
    .@@.@@..
    .@@.....
    .@@@@@..
    .@@..@@.
    .@@..@@.
    .@@..@@.
    .@@..@@.
    .@@..@@.
    .@@@@@..
    .@@.....
    .@@.....
    @@@@....


# uni-vga, rebaselined
# [Ʀ] LATIN LETTER YR
u+01a6:
    ........
    ........
    ........
    @@@@....
    .@@.....
    .@@@@@..
    .@@..@@.
    .@@..@@.
    .@@@@@..
    .@@@@...
    .@@.@@..
    .@@.@@..
    @@@..@@.
    .....@@.
    ........
    ........


# uni-vga, rebaselined
# [Ƨ] LATIN CAPITAL LETTER TONE TWO
u+01a7:
    ........
    ........
    ........
    .@@@@@..
    @@...@@.
    @@...@@.
    ....@@..
    ..@@@...
    .@@.....
    @@......
    @@...@@.
    @@...@@.
    .@@@@@..
    ........
    ........
    ........


# uni-vga, rebaselined
# [ƨ] LATIN SMALL LETTER TONE TWO
u+01a8:
    ........
    ........
    ........
    ........
    ........
    ........
    .@@@@@..
    @@...@@.
    ....@@..
    ..@@@...
    .@@.....
    @@...@@.
    .@@@@@..
    ........
    ........
    ........


# uni-vga, rebaselined
# [Ʃ] LATIN CAPITAL LETTER ESH
u+01a9:
    ........
    ........
    ........
    @@@@@@@.
    @@...@@.
    .@@...@.
    ..@@....
    ...@@...
    ...@@...
    ..@@....
    .@@...@.
    @@...@@.
    @@@@@@@.
    ........
    ........
    ........


# uni-vga, rebaselined
# [ƪ] LATIN LETTER REVERSED ESH LOOP
u+01aa:
    ........
    ........
    ........
    .@@@....
    @@.@@...
    .@@@@...
    ...@@...
    ...@@...
    ...@@...
    ...@@...
    ...@@...
    ...@@...
    ...@@...
    ...@@...
    ...@@.@@
    ....@@@.


# uni-vga, rebaselined
# [ƫ] LATIN SMALL LETTER T WITH PALATAL HOOK
u+01ab:
    ........
    ........
    ........
    ...@....
    ..@@....
    ..@@....
    @@@@@@..
    ..@@....
    ..@@....
    ..@@....
    ..@@....
    ..@@.@@.
    ...@@@..
    ....@@..
    .@@.@@..
    ..@@@...


# uni-vga, rebaselined
# [Ƭ] LATIN CAPITAL LETTER T WITH HOOK
u+01ac:
    ........
    ........
    ........
    .@@@@@@.
    @@@@@@@.
    @..@@.@.
    .@.@@...
    ...@@...
    ...@@...
    ...@@...
    ...@@...
    ...@@...
    ..@@@@..
    ........
    ........
    ........


# uni-vga, rebaselined
# [ƭ] LATIN SMALL LETTER T WITH HOOK
u+01ad:
    ........
    ........
    ........
    ...@@@..
    ..@@.@@.
    ..@@....
    @@@@@@..
    ..@@....
    ..@@....
    ..@@....
    ..@@....
    ..@@.@@.
    ...@@@..
    ........
    ........
    ........


# uni-vga, rebaselined
# [Ʈ] LATIN CAPITAL LETTER T WITH RETROFLEX HOOK
u+01ae:
    ........
    ........
    ........
    .@@@@@@.
    .@@@@@@.
    .@.@@.@.
    ...@@...
    ...@@...
    ...@@...
    ...@@...
    ...@@...
    ...@@...
    ...@@...
    ...@@...
    ...@@...
    ....@@@.


# [Ƹ] LATIN CAPITAL LETTER EZH REVERSED
u+01b8:
    ........
    ........
    ........
    .@@@@@@@
    .@@.....
    ..@@....
    ...@@...
    ..@@....
    .@@.....
    .@@.....
    .@@.....
    .@@...@@
    ..@@@@@.
    ........
    ........
    ........

# [ƹ] LATIN SMALL LETTER EZH REVERSED
u+01b9:
    ........
    ........
    ........
    ........
    ........
    ........
    .@@@@@@.
    .@@.....
    ..@@....
    ...@@...
    ..@@....
    .@@.....
    .@@.....
    .@@..@@.
    ..@@@@..
    ........

# [ƺ] LATIN SMALL LETTER EZH WITH TAIL
u+01ba:
    ........
    ........
    ........
    ........
    ........
    ........
    .@@@@@@.
    .....@@.
    ....@@..
    ...@@...
    ....@@..
    .....@@.
    .....@@.
    ..@@@@..
    .@@.....
    ..@@@@..


# uni-vga, rebaselined
# [ƻ] LATIN LETTER TWO WITH STROKE
u+01bb:
    ........
    ........
    ........
    .@@@@@..
    @@...@@.
    .....@@.
    ....@@..
    .@@@@@@.
    ..@@....
    .@@.....
    @@......
    @@...@@.
    @@@@@@@.
    ........
    ........
    ........


# uni-vga, rebaselined
# [Ƽ] LATIN CAPITAL LETTER TONE FIVE
u+01bc:
    ........
    ........
    ........
    @@@@@@@.
    .@@.....
    .@@.....
    .@@@@...
    ....@@..
    .....@@.
    .....@@.
    .....@@.
    .@@..@@.
    ..@@@@..
    ........
    ........
    ........


# uni-vga, rebaselined
# [ƽ] LATIN SMALL LETTER TONE FIVE
u+01bd:
    ........
    ........
    ........
    ........
    ........
    ........
    @@@@@@@.
    .@@.....
    .@@@@...
    ....@@..
    .....@@.
    .@@..@@.
    ..@@@@..
    ........
    ........
    ........


# [ƾ] LATIN LETTER INVERTED GLOTTAL STOP WITH STROKE
u+01be:
    ........
    ........
    ........
    ..@@....
    ..@@....
    ..@@....
    @@@@@@@.
    ..@@....
    ...@@@..
    .....@@.
    .....@@.
    @@...@@.
    .@@@@@..
    ........
    ........
    ........


# uni-vga, rebaselined
# [ƿ] LATIN LETTER WYNN
u+01bf:
    ........
    ........
    ........
    ........
    ........
    ........
    @@.@@@..
    .@@..@@.
    .@@..@@.
    .@@..@@.
    .@@.@@..
    .@@@@...
    .@@@....
    .@@.....
    .@@.....
    @@@@....


# uni-vga, rebaselined
# [ǀ] LATIN LETTER DENTAL CLICK
u+01c0:
    ........
    ........
    ........
    ...@@...
    ...@@...
    ...@@...
    ...@@...
    ...@@...
    ...@@...
    ...@@...
    ...@@...
    ...@@...
    ...@@...
    ........
    ........
    ........


# uni-vga, rebaselined
# [ǁ] LATIN LETTER LATERAL CLICK
u+01c1:
    ........
    ........
    ........
    .@@.@@..
    .@@.@@..
    .@@.@@..
    .@@.@@..
    .@@.@@..
    .@@.@@..
    .@@.@@..
    .@@.@@..
    .@@.@@..
    .@@.@@..
    ........
    ........
    ........


# uni-vga, rebaselined
# [ǂ] LATIN LETTER ALVEOLAR CLICK
u+01c2:
    ........
    ........
    ........
    ...@@...
    ...@@...
    ...@@...
    .@@@@@@.
    ...@@...
    .@@@@@@.
    ...@@...
    ...@@...
    ...@@...
    ...@@...
    ........
    ........
    ........


# [ǃ] LATIN LETTER RETROFLEX CLICK
u+01c3:
    ........
    ........
    ........
    ...@@...
    ...@@...
    ...@@...
    ...@@...
    ...@@...
    ...@@...
    ...@@...
    ........
    ...@@...
    ...@@...
    ........
    ........
    ........


# uni-vga, rebaselined, adjusted
# [Ǆ] LATIN CAPITAL LETTER DZ WITH CARON
u+01c4:
........
    ...@@.@@
    ....@@@.
    ........
    @@@@.@@@
    @@.@@..@
    @@.@@..@
    @@.@@.@.
    @@.@@.@.
    @@.@@.@.
    @@.@@@..
    @@.@@@..
    @@@@.@@@
    ........
    ........
    ........


# uni-vga, rebaselined
# [ǅ] LATIN CAPITAL LETTER D WITH SMALL LETTER Z WITH CARON
u+01c5:
    ........
    ........
    ........
    @@@@.@.@
    @@.@@.@.
    @@.@@...
    @@.@@@@@
    @@.@@..@
    @@.@@.@.
    @@.@@.@.
    @@.@@.@.
    @@.@@@..
    @@@@.@@@
    ........
    ........
    ........


# uni-vga, rebaselined
# [ǆ] LATIN SMALL LETTER DZ WITH CARON
u+01c6:
    ........
    ........
    ........
    ..@@@@.@
    ...@@.@.
    ...@@...
    .@@@@@@@
    @@.@@..@
    @@.@@.@.
    @@.@@.@.
    @@.@@.@.
    @@.@@@..
    .@@.@@@@
    ........
    ........
    ........


# uni-vga, rebaselined
# [Ǉ] LATIN CAPITAL LETTER LJ
u+01c7:
    ........
    ........
    ........
    @@...@@@
    @@....@@
    @@....@@
    @@....@@
    @@....@@
    @@....@@
    @@....@@
    @@....@@
    @@..@.@@
    @@@@.@@.
    ........
    ........
    ........


# uni-vga, rebaselined
# [ǈ] LATIN CAPITAL LETTER L WITH SMALL LETTER J
u+01c8:
    ........
    ........
    ........
    @@@@..@@
    .@@...@@
    .@@.....
    .@@..@@@
    .@@...@@
    .@@...@@
    .@@...@@
    .@@..@@@
    .@@.@@@@
    @@@@@@@@
    ......@@
    ...@@.@@
    ....@@@.


# uni-vga, rebaselined
# [ǉ] LATIN SMALL LETTER LJ
u+01c9:
    ........
    ........
    ........
    @@@...@@
    .@@...@@
    .@@.....
    .@@..@@@
    .@@...@@
    .@@...@@
    .@@...@@
    .@@...@@
    .@@...@@
    @@@@..@@
    ......@@
    ..@@..@@
    ...@@@@.


# uni-vga, rebaselined
# [Ǌ] LATIN CAPITAL LETTER NJ
u+01ca:
    ........
    ........
    ........
    @@.@@.@@
    @@.@@.@@
    @@@@@.@@
    @@@@@.@@
    @@@@@.@@
    @@.@@.@@
    @@.@@.@@
    @@.@@.@@
    @@.@@.@@
    @@.@@@@.
    ........
    ........
    ........


# uni-vga, rebaselined
# [ǋ] LATIN CAPITAL LETTER N WITH SMALL LETTER J
u+01cb:
    ........
    ........
    ........
    @@.@@.@@
    @@.@@.@@
    @@@@@...
    @@@@@@@@
    @@@@@.@@
    @@@@@.@@
    @@.@@.@@
    @@.@@.@@
    @@.@@.@@
    @@.@@.@@
    ......@@
    ..@@..@@
    ...@@@@.


# uni-vga, rebaselined
# [ǌ] LATIN SMALL LETTER NJ
u+01cc:
    ........
    ........
    ........
    ......@@
    ......@@
    ........
    @.@@.@@@
    @@.@@.@@
    @@.@@.@@
    @@.@@.@@
    @@.@@.@@
    @@.@@.@@
    @@.@@.@@
    ......@@
    ..@@..@@
    ...@@@@.



# [Ǔ] LATIN CAPITAL LETTER U WITH CARON
u+01d3:
    .@@.@@..
    ..@@@...
    ........
    @@...@@.
    @@...@@.
    @@...@@.
    @@...@@.
    @@...@@.
    @@...@@.
    @@...@@.
    @@...@@.
    @@...@@.
    .@@@@@..
    ........
    ........
    ........


# uni-vga, rebaselined
# [ǔ] LATIN SMALL LETTER U WITH CARON
u+01d4:
    ........
    ........
    .@@.@@..
    ..@@@...
    ...@....
    ........
    @@..@@..
    @@..@@..
    @@..@@..
    @@..@@..
    @@..@@..
    @@..@@..
    .@@@.@@.
    ........
    ........
    ........


# [Ǘ] LATIN CAPITAL LETTER U WITH DIAERESIS AND ACUTE
u+01d7:
    ....@@..
    ...@@...
    @@...@@.
    ........
    @@...@@.
    @@...@@.
    @@...@@.
    @@...@@.
    @@...@@.
    @@...@@.
    @@...@@.
    @@...@@.
    .@@@@@..
    ........
    ........
    ........


# uni-vga, rebaselined
# [ǘ] LATIN SMALL LETTER U WITH DIAERESIS AND ACUTE
u+01d8:
    ........
    ...@@...
    ..@@....
    ........
    @@..@@..
    ........
    @@..@@..
    @@..@@..
    @@..@@..
    @@..@@..
    @@..@@..
    @@..@@..
    .@@@.@@.
    ........
    ........
    ........


# [Ǚ] LATIN CAPITAL LETTER U WITH DIAERESIS AND CARON
u+01d9:
    .@@.@@..
    ..@@@...
    @@...@@.
    ........
    @@...@@.
    @@...@@.
    @@...@@.
    @@...@@.
    @@...@@.
    @@...@@.
    @@...@@.
    @@...@@.
    .@@@@@..
    ........
    ........
    ........


# [ǚ] LATIN SMALL LETTER U WITH DIAERESIS AND CARON
u+01da:
    .@@.@@..
    ..@@@...
    ...@....
    ........
    @@..@@..
    ........
    @@..@@..
    @@..@@..
    @@..@@..
    @@..@@..
    @@..@@..
    @@..@@..
    .@@@.@@.
    ........
    ........
    ........



# [Ǜ] LATIN CAPITAL LETTER U WITH DIAERESIS AND GRAVE
u+01db:
    .@@....
    ..@@.,..
    @@...@@.
    ........
    @@...@@.
    @@...@@.
    @@...@@.
    @@...@@.
    @@...@@.
    @@...@@.
    @@...@@.
    @@...@@.
    .@@@@@..
    ........
    ........
    ........


# uni-vga, rebaselined
# [ǜ] LATIN SMALL LETTER U WITH DIAERESIS AND GRAVE
u+01dc:
    ........
    .@@.....
    ..@@....
    ........
    @@..@@..
    ........
    @@..@@..
    @@..@@..
    @@..@@..
    @@..@@..
    @@..@@..
    @@..@@..
    .@@@.@@.
    ........
    ........
    ........


# [Ǡ] LATIN CAPITAL LETTER A WITH DOT ABOVE AND MACRON
u+01e0:
    @@@@@@@.
    ..@@....
    ..@@....
    ...@....
    ..@@@...
    .@@.@@..
    @@...@@.
    @@...@@.
    @@@@@@@.
    @@...@@.
    @@...@@.
    @@...@@.
    @@...@@.
    ........
    ........
    ........


# uni-vga, rebaselined
# [ǡ] LATIN SMALL LETTER A WITH DOT ABOVE AND MACRON
u+01e1:
    ........
    ........
    .@@@@@..
    ........
    ..@@....
    ........
    .@@@@...
    ....@@..
    .@@@@@..
    @@..@@..
    @@..@@..
    @@..@@..
    .@@@.@@.
    ........
    ........
    ........


# [Ǣ] LATIN CAPITAL LETTER AE WITH MACRON
u+01e2:
    ........
    @@@@@@@.
    ........
    ..@@@@@.
    .@@.@@..
    @@..@@..
    @@..@@..
    @@@@@@@.
    @@..@@..
    @@..@@..
    @@..@@..
    @@..@@..
    @@..@@@.
    ........
    ........
    ........


# [ǣ] LATIN SMALL LETTER AE WITH MACRON
u+01e3:
    ........
    ........
    ........
    ........
    @@@@@@@.
    ........
    @@@.@@..
    ..@@.@@.
    ..@@.@@.
    .@@@@@@.
    @@.@@...
    @@.@@...
    .@@.@@@.
    ........
    ........
    ........


# [Ǭ] LATIN CAPITAL LETTER O WITH OGONEK AND MACRON
u+01ec:
    ........
    @@@@@@@.
    ........
    .@@@@@..
    @@...@@.
    @@...@@.
    @@...@@.
    @@...@@.
    @@...@@.
    @@...@@.
    @@...@@.
    @@...@@.
    .@@@@@..
    ...@@...
    ..@@....
    ...@@@@.



# uni-vga, rebaselined
# [Ǳ] LATIN CAPITAL LETTER DZ
u+01f1:
    ........
    ........
    ........
    @@@@.@@@
    @@.@@..@
    @@.@@..@
    @@.@@.@.
    @@.@@.@.
    @@.@@.@.
    @@.@@.@.
    @@.@@@..
    @@.@@@..
    @@@@.@@@
    ........
    ........
    ........


# uni-vga, rebaselined
# [ǲ] LATIN CAPITAL LETTER D WITH SMALL LETTER Z
u+01f2:
    ........
    ........
    ........
    @@@@....
    @@.@@...
    @@.@@...
    @@.@@@@@
    @@.@@..@
    @@.@@.@.
    @@.@@.@.
    @@.@@.@.
    @@.@@@..
    @@@@.@@@
    ........
    ........
    ........


# uni-vga, rebaselined
# [ǳ] LATIN SMALL LETTER DZ
u+01f3:
    ........
    ........
    ........
    ..@@@...
    ...@@...
    ...@@...
    .@@@@@@@
    @@.@@..@
    @@.@@.@.
    @@.@@.@.
    @@.@@.@.
    @@.@@@..
    .@@.@@@@
    ........
    ........
    ........


# uni-vga, rebaselined
# [Ƕ] LATIN CAPITAL LETTER HWAIR
u+01f6:
    ........
    ........
    ........
    @@.@@...
    @@.@@...
    @@.@@...
    @@.@@.@@
    @@@@@.@@
    @@.@@.@@
    @@.@@.@@
    @@.@@.@@
    @@.@@.@@
    @@..@@@.
    ........
    ........
    ........


# uni-vga, rebaselined
# [Ƿ] LATIN CAPITAL LETTER WYNN
u+01f7:
    ........
    ........
    ........
    @@@@@@..
    .@@..@@.
    .@@..@@.
    .@@..@@.
    .@@..@@.
    .@@.@@..
    .@@@@...
    .@@@....
    .@@.....
    .@@.....
    .@@.....
    .@@.....
    @@@.....


# [Ǹ] LATIN CAPITAL LETTER N WITH GRAVE
u+01f8:
    .@@.....
    ..@@....
    ........
    @@...@@.
    @@@..@@.
    @@@@.@@.
    @@@@@@@.
    @@.@@@@.
    @@..@@@.
    @@...@@.
    @@...@@.
    @@...@@.
    @@...@@.
    ........
    ........
    ........


# [ǹ] LATIN SMALL LETTER N WITH GRAVE
u+01f9:
    ........
    ........
    .@@.....
    ..@@....
    ...@@...
    ........
    @@.@@@..
    .@@..@@.
    .@@..@@.
    .@@..@@.
    .@@..@@.
    .@@..@@.
    .@@..@@.
    ........
    ........
    ........


# [Ȁ] LATIN CAPITAL LETTER A WITH DOUBLE GRAVE
u+0200:
    @@..@@..
    .@@..@@.
    ........
    ...@....
    ..@@@...
    .@@.@@..
    @@...@@.
    @@...@@.
    @@@@@@@.
    @@...@@.
    @@...@@.
    @@...@@.
    @@...@@.
    ........
    ........
    ........


# uni-vga, rebaselined
# [ȁ] LATIN SMALL LETTER A WITH DOUBLE GRAVE
u+0201:
    ........
    ........
    ........
    @@..@@..
    .@@..@@.
    ........
    .@@@@...
    ....@@..
    .@@@@@..
    @@..@@..
    @@..@@..
    @@..@@..
    .@@@.@@.
    ........
    ........
    ........


# [Ȃ] LATIN CAPITAL LETTER A WITH INVERTED BREVE
u+0202:
    .@@@@@..
    @@...@@.
    ........
    ...@....
    ..@@@...
    .@@.@@..
    @@...@@.
    @@...@@.
    @@@@@@@.
    @@...@@.
    @@...@@.
    @@...@@.
    @@...@@.
    ........
    ........
    ........


# [ȃ] LATIN SMALL LETTER A WITH INVERTED BREVE
u+0203:
    ........
    ........
    ........
    .@@@@@..
    @@...@@.
    ........
    .@@@@...
    ....@@..
    .@@@@@..
    @@..@@..
    @@..@@..
    @@..@@..
    .@@@.@@.
    ........
    ........
    ........


# [Ȅ] LATIN CAPITAL LETTER E WITH DOUBLE GRAVE
u+0204:
    @@..@@..
    .@@..@@.
    ........
    @@@@@@@.
    .@@..@@.
    .@@...@.
    .@@.@...
    .@@@@...
    .@@.@...
    .@@.....
    .@@...@.
    .@@..@@.
    @@@@@@@.
    ........
    ........
    ........


# [ȅ] LATIN SMALL LETTER E WITH DOUBLE GRAVE
u+0205:
    ........
    ........
    ........
    @@..@@..
    .@@..@@.
    ........
    .@@@@@..
    @@...@@.
    @@@@@@@.
    @@......
    @@......
    @@...@@.
    .@@@@@..
    ........
    ........
    ........


# [Ȇ] LATIN CAPITAL LETTER E WITH INVERTED BREVE
u+0206:
    .@@@@@..
    @@...@@.
    ........
    @@@@@@@.
    .@@..@@.
    .@@...@.
    .@@.@...
    .@@@@...
    .@@.@...
    .@@.....
    .@@...@.
    .@@..@@.
    @@@@@@@.
    ........
    ........
    ........


# [ȇ] LATIN SMALL LETTER E WITH INVERTED BREVE
u+0207:
    ........
    ........
    ........
    .@@@@@..
    @@...@@.
    ........
    .@@@@@..
    @@...@@.
    @@@@@@@.
    @@......
    @@......
    @@...@@.
    .@@@@@..
    ........
    ........
    ........


# [Ȉ] LATIN CAPITAL LETTER I WITH DOUBLE GRAVE
u+0208:
    @@..@@..
    .@@..@@.
    ........
    ..@@@@..
    ...@@...
    ...@@...
    ...@@...
    ...@@...
    ...@@...
    ...@@...
    ...@@...
    ...@@...
    ..@@@@..
    ........
    ........
    ........

# [ȉ] LATIN SMALL LETTER I WITH DOUBLE GRAVE
u+0209:
    ........
    ........
    ........
    @@..@@..
    .@@..@@.
    ........
    ..@@@...
    ...@@...
    ...@@...
    ...@@...
    ...@@...
    ...@@...
    ..@@@@..
    ........
    ........
    ........


# [Ȋ] LATIN CAPITAL LETTER I WITH INVERTED BREVE
u+020a:
    ..@@@@..
    .@@..@@.
    ........
    ..@@@@..
    ...@@...
    ...@@...
    ...@@...
    ...@@...
    ...@@...
    ...@@...
    ...@@...
    ...@@...
    ..@@@@..
    ........
    ........
    ........


# [ȋ] LATIN SMALL LETTER I WITH INVERTED BREVE
u+020b:
    ........
    ........
    ........
    ..@@@@..
    .@@..@@.
    ........
    ..@@@...
    ...@@...
    ...@@...
    ...@@...
    ...@@...
    ...@@...
    ..@@@@..
    ........
    ........
    ........


# [Ȍ] LATIN CAPITAL LETTER O WITH DOUBLE GRAVE
u+020c:
    @@..@@..
    .@@..@@.
    ........
    .@@@@@..
    @@...@@.
    @@...@@.
    @@...@@.
    @@...@@.
    @@...@@.
    @@...@@.
    @@...@@.
    @@...@@.
    .@@@@@..
    ........
    ........
    ........


# [ȍ] LATIN SMALL LETTER O WITH DOUBLE GRAVE
u+020d:
    ........
    ........
    ........
    @@..@@..
    .@@..@@.
    ........
    .@@@@@..
    @@...@@.
    @@...@@.
    @@...@@.
    @@...@@.
    @@...@@.
    .@@@@@..
    ........
    ........
    ........


# [Ȏ] LATIN CAPITAL LETTER O WITH INVERTED BREVE
u+020e:
    .@@@@@..
    @@...@@.
    ........
    .@@@@@..
    @@...@@.
    @@...@@.
    @@...@@.
    @@...@@.
    @@...@@.
    @@...@@.
    @@...@@.
    @@...@@.
    .@@@@@..
    ........
    ........
    ........


# [ȏ] LATIN SMALL LETTER O WITH INVERTED BREVE
u+020f:
    ........
    ........
    ........
    .@@@@@..
    @@...@@.
    ........
    .@@@@@..
    @@...@@.
    @@...@@.
    @@...@@.
    @@...@@.
    @@...@@.
    .@@@@@..
    ........
    ........
    ........



# [Ȑ] LATIN CAPITAL LETTER R WITH DOUBLE GRAVE
u+0210:
    @@..@@..
    .@@..@@.
    ........
    @@@@@@..
    .@@..@@.
    .@@..@@.
    .@@..@@.
    .@@@@@..
    .@@.@@..
    .@@..@@.
    .@@..@@.
    .@@..@@.
    @@@@.@@.
    ........
    ........
    ........


# [ȑ] LATIN SMALL LETTER R WITH DOUBLE GRAVE
u+0211:
    ........
    ........
    ........
    @@..@@..
    .@@..@@.
    ........
    @@.@@@..
    .@@@.@@.
    .@@..@@.
    .@@.....
    .@@.....
    .@@.....
    @@@@....
    ........
    ........
    ........


# [Ȓ] LATIN CAPITAL LETTER R WITH INVERTED BREVE
u+0212:
    .@@@@@..
    @@...@@.
    ........
    @@@@@@..
    .@@..@@.
    .@@..@@.
    .@@..@@.
    .@@@@@..
    .@@.@@..
    .@@..@@.
    .@@..@@.
    .@@..@@.
    @@@@.@@.
    ........
    ........
    ........


# [ȓ] LATIN SMALL LETTER R WITH INVERTED BREVE
u+0213:
    ........
    ........
    ........
    .@@@@@..
    @@...@@.
    ........
    @@.@@@..
    .@@@.@@.
    .@@..@@.
    .@@.....
    .@@.....
    .@@.....
    @@@@....
    ........
    ........
    ........




# [Ȕ] LATIN CAPITAL LETTER U WITH DOUBLE GRAVE
u+0214:
    @@..@@..
    .@@..@@.
    ........
    @@...@@.
    @@...@@.
    @@...@@.
    @@...@@.
    @@...@@.
    @@...@@.
    @@...@@.
    @@...@@.
    @@...@@.
    .@@@@@..
    ........
    ........
    ........


# [ȕ] LATIN SMALL LETTER U WITH DOUBLE GRAVE
u+0215:
    ........
    ........
    ........
    @@..@@..
    .@@..@@.
    ........
    @@..@@..
    @@..@@..
    @@..@@..
    @@..@@..
    @@..@@..
    @@..@@..
    .@@@.@@.
    ........
    ........
    ........


# [Ȗ] LATIN CAPITAL LETTER U WITH INVERTED BREVE
u+0216:
    .@@@@@..
    @@...@@.
    ........
    @@...@@.
    @@...@@.
    @@...@@.
    @@...@@.
    @@...@@.
    @@...@@.
    @@...@@.
    @@...@@.
    @@...@@.
    .@@@@@..
    ........
    ........
    ........


# [ȗ] LATIN SMALL LETTER U WITH INVERTED BREVE
u+0217:
    ........
    ........
    ........
    .@@@@...
    @@..@@..
    ........
    @@..@@..
    @@..@@..
    @@..@@..
    @@..@@..
    @@..@@..
    @@..@@..
    .@@@.@@.
    ........
    ........
    ........


# [Ș] LATIN CAPITAL LETTER S WITH COMMA BELOW
u+0218:
    ........
    ........
    ........
    .@@@@@..
    @@...@@.
    @@...@@.
    .@@.....
    ..@@@...
    ....@@..
    .....@@.
    @@...@@.
    @@...@@.
    .@@@@@..
    ........
    ...@@...
    ..@@....


# [ș] LATIN SMALL LETTER S WITH COMMA BELOW
u+0219:
    ........
    ........
    ........
    ........
    ........
    ........
    .@@@@@..
    @@...@@.
    .@@.....
    ..@@@...
    ....@@..
    @@...@@.
    .@@@@@..
    ........
    ...@@...
    ..@@....


# [Ț] LATIN CAPITAL LETTER T WITH COMMA BELOW
u+021a:
    ........
    ........
    ........
    .@@@@@@.
    .@@@@@@.
    .@.@@.@.
    ...@@...
    ...@@...
    ...@@...
    ...@@...
    ...@@...
    ...@@...
    ..@@@@..
    ........
    ...@@...
    ..@@....


# [ț] LATIN SMALL LETTER T WITH COMMA BELOW
u+021b:
    ........
    ........
    ........
    ...@....
    ..@@....
    ..@@....
    @@@@@@..
    ..@@....
    ..@@....
    ..@@....
    ..@@....
    ..@@.@@.
    ...@@@..
    ........
    ...@@...
    ..@@....


# U+0220 LATIN CAPITAL LETTER N WITH LONG RIGHT LEG
u+0220:
    ........
    ........
    ........
    @@.@@@..
    .@@@.@@.
    .@@..@@.
    .@@..@@.
    .@@..@@.
    .@@..@@.
    .@@..@@.
    .@@..@@.
    .@@..@@.
    @@@..@@.
    .....@@.
    .....@@.
    .....@@.


# U+0221 LATIN SMALL LETTER D WITH CURL
u+0221:
    ........
    ........
    ........
    ...@@@..
    ....@@..
    ....@@..
    ..@@@@..
    .@@.@@..
    @@..@@..
    @@..@@@.
    @@..@@.@
    @@..@@.@
    .@@@.@@.
    ....@...
    .....@..
    ........


# [Ȣ] LATIN CAPITAL LETTER OU
u+0222:
    ........
    ........
    ........
    .@..@@..
    @@...@@.
    @@...@@.
    @@...@@.
    .@@@@@..
    @@...@@.
    @@...@@.
    @@...@@.
    @@...@@.
    .@@@@@..
    ........
    ........
    ........


# uni-vga, rebaselined
# [ȣ] LATIN SMALL LETTER OU
u+0223:
    ........
    ........
    ........
    ..@..@..
    .@@..@@.
    .@@..@@.
    .@@..@@.
    ..@@@@..
    .@@..@@.
    .@@..@@.
    .@@..@@.
    .@@..@@.
    ..@@@@..
    ........
    ........
    ........


# uni-vga, rebaselined
# [Ȥ] LATIN CAPITAL LETTER Z WITH HOOK
u+0224:
    ........
    ........
    ........
    @@@@@@@.
    @@...@@.
    @....@@.
    ....@@..
    ...@@...
    ..@@....
    .@@.....
    @@......
    @@......
    @@@@@@..
    .....@@.
    ....@@..
    ........


# uni-vga, rebaselined
# [ȥ] LATIN SMALL LETTER Z WITH HOOK
u+0225:
    ........
    ........
    ........
    ........
    ........
    ........
    @@@@@@@.
    @@..@@..
    ...@@...
    ..@@....
    .@@.....
    @@......
    @@@@@@..
    .....@@.
    ....@@..
    ........


# [Ȧ] LATIN CAPITAL LETTER A WITH DOT ABOVE
u+0226:
    ..@@....
    ..@@....
    ........
    ...@....
    ..@@@...
    .@@.@@..
    @@...@@.
    @@...@@.
    @@@@@@@.
    @@...@@.
    @@...@@.
    @@...@@.
    @@...@@.
    ........
    ........
    ........


# uni-vga, rebaselined
# [ȧ] LATIN SMALL LETTER A WITH DOT ABOVE
u+0227:
    ........
    ........
    ........
    ..@@....
    ..@@....
    ........
    .@@@@...
    ....@@..
    .@@@@@..
    @@..@@..
    @@..@@..
    @@..@@..
    .@@@.@@.
    ........
    ........
    ........


# [Ȩ] LATIN CAPITAL LETTER E WITH CEDILLA
u+0228:
    ........
    ........
    ........
    @@@@@@@.
    .@@..@@.
    .@@...@.
    .@@.@...
    .@@@@...
    .@@.@...
    .@@.....
    .@@...@.
    .@@..@@.
    @@@@@@@.
    ...@@...
    ....@@..
    .@@@@...


# [ȩ] LATIN SMALL LETTER E WITH CEDILLA
u+0229:
    ........
    ........
    ........
    ........
    ........
    ........
    .@@@@@..
    @@...@@.
    @@@@@@@.
    @@......
    @@......
    @@...@@.
    .@@@@@..
    ...@@...
    ....@@..
    .@@@@...


# U+0234 LATIN SMALL LETTER L WITH CURL
u+0234:
    ........
    ........
    ........
    ..@@@...
    ...@@...
    ...@@...
    ...@@...
    ...@@...
    ...@@...
    ...@@@@.
    ...@@..@
    ...@@..@
    ..@@@@@.
    ....@...
    .....@..
    ........


# U+0235 LATIN SMALL LETTER N WITH CURL
u+0235:
    ........
    ........
    ........
    ........
    ........
    ........
    @@.@@@..
    .@@.@@..
    .@@.@@..
    .@@.@@@.
    .@@.@@.@
    .@@.@@.@
    .@@.@@@.
    ....@...
    .....@..
    ........


# U+0236 LATIN SMALL LETTER T WITH CURL
u+0236:
    ........
    ........
    ........
    ...@....
    ..@@....
    ..@@....
    @@@@@@..
    ..@@....
    ..@@....
    ..@@..@.
    ..@@.@.@
    ..@@.@@.
    ...@@@..
    .....@..
    ......@.
    ........


# U+0237 LATIN SMALL LETTER DOTLESS J
u+0237:
    ........
    ........
    ........
    ........
    ........
    ........
    ....@@@.
    .....@@.
    .....@@.
    .....@@.
    .....@@.
    .....@@.
    .....@@.
    .@@..@@.
    .@@..@@.
    ..@@@@..


# U+0238 LATIN SMALL LETTER DB DIGRAPH
u+0238:
    ........
    ........
    ........
    ..@@@@..
    ...@@...
    ...@@...
    ..@@@@..
    @@.@@.@@
    @@.@@.@@
    @@.@@.@@
    @@.@@.@@
    @@.@@.@@
    .@@@@@@.
    ........
    ........
    ........


# U+0239 LATIN SMALL LETTER QP DIGRAPH
u+0239:
    ........
    ........
    ........
    ........
    ........
    ........
    .@@@@@@.
    @@.@@.@@
    @@.@@.@@
    @@.@@.@@
    @@.@@.@@
    @@.@@.@@
    ..@@@@..
    ...@@...
    ...@@...
    ..@@@@..


# U+023A LATIN CAPITAL LETTER A WITH STROKE
u+023a:
    ........
    ........
    ........
    ...@..@.
    ..@@@@..
    .@@.@@..
    @@.@.@@.
    @@@..@@.
    @@@@@@@.
    @@...@@.
    @@...@@.
    @@...@@.
    @@...@@.
    ........
    ........
    ........

# U+023B LATIN CAPITAL LETTER C WITH STROKE
u+023b:
    ........
    ......@.
    .....@..
    ..@@@@@.
    .@@..@@.
    @@..@.@.
    @@..@...
    @@.@....
    @@.@....
    @@.@....
    @@@...@.
    .@@..@@.
    ..@@@@..
    .@......
    @.......
    ........

# U+023E LATIN CAPITAL LETTER T WITH DIAGONAL STROKE
u+023e:
    ........
    ........
    ........
    .@@@@@@.
    .@@@@@@.
    .@.@@.@@
    ...@@.@.
    ...@@@..
    ...@@...
    ..@@@...
    .@.@@...
    @..@@...
    ..@@@@..
    ........
    ........
    ........


# U+023F LATIN SMALL LETTER S WITH SWASH TAIL
u+023f:
    ........
    ........
    ........
    ........
    ........
    ........
    .@@@@@..
    @@...@@.
    .@@.....
    ..@@@...
    ....@@..
    @@...@@.
    .@@@@@..
    .@@....@
    ..@@@@@.
    ........


# U+0240 LATIN SMALL LETTER Z WITH SWASH TAIL
u+0240:
    ........
    ........
    ........
    ........
    ........
    ........
    @@@@@@@.
    @@..@@..
    ...@@...
    ..@@....
    .@@.....
    @@.....
    @@@@@...
    ....@@.@
    .....@@@
    ........


# U+0243 LATIN CAPITAL LETTER B WITH STROKE
u+0243:
    ........
    ........
    ........
    @@@@@@..
    .@@..@@.
    .@@..@@.
    .@@..@@.
    .@@@@@..
    .@@..@@.
    .@@..@@.
    @@@@.@@.
    .@@..@@.
    @@@@@@..
    ........
    ........
    ........


# U+0248 LATIN CAPITAL LETTER J WITH STROKE
u+0248:
    ........
    ........
    ........
    ...@@@@.
    ....@@..
    ....@@..
    .@@@@@@@
    ....@@..
    ....@@..
    @@..@@..
    @@..@@..
    @@..@@..
    .@@@@...
    ........
    ........
    ........


# U+0249 LATIN SMALL LETTER J WITH STROKE
u+0249:
    ........
    ........
    ........
    .....@@.
    .....@@.
    ........
    ....@@@.
    .....@@.
    .@@@@@@@
    .....@@.
    .....@@.
    .....@@.
    .....@@.
    .@@..@@.
    .@@..@@.
    ..@@@@..


# U+024A LATIN CAPITAL LETTER SMALL Q WITH HOOK TAIL
u+024a:
    ........
    ........
    ........
    .@@@@@.@
    @@...@@.
    @@...@@.
    @@...@@.
    @@...@@..
    @@...@@.
    @@...@@.
    @@...@@.
    @@...@@.
    .@@@@@@.
    .....@@.
    .....@@@
    ........


# U+024B LATIN SMALL LETTER Q WITH HOOK TAIL
u+024b:
    ........
    ........
    ........
    ........
    ........
    ........
    .@@@.@@.
    @@..@@..
    @@..@@..
    @@..@@..
    @@..@@..
    @@..@@..
    .@@@@@..
    ....@@..
    ....@@..
    .....@@@


# U+024E LATIN CAPITAL LETTER Y WITH STROKE
u+024e:
    ........
    ........
    ........
    .@@..@@.
    @@@@@@@@
    .@@..@@.
    .@@..@@.
    ..@@@@..
    ...@@...
    ...@@...
    ...@@...
    ...@@...
    ..@@@@..
    ........
    ........
    ........


# U+024F LATIN SMALL LETTER Y WITH STROKE
u+024f:
    ........
    ........
    ........
    ........
    ........
    ........
    .@@..@@.
    .@@..@@.
    @@@@@@@@
    .@@..@@.
    .@@..@@.
    .@@..@@.
    ..@@@@@.
    .....@@.
    ....@@..
    @@@@@...


# uni-vga, rebaselined
# [ɐ] LATIN SMALL LETTER TURNED A
u+0250:
    ........
    ........
    ........
    ........
    ........
    ........
    @@.@@@..
    .@@..@@.
    .@@..@@.
    .@@..@@.
    .@@@@@..
    .@@.....
    ..@@@@..
    ........
    ........
    ........


# redefine
# [ɑ] LATIN SMALL LETTER ALPHA
u+0251:
    ........
    ........
    ........
    ........
    ........
    ........
    .@@@.@@.
    @@..@@..
    @@..@@..
    @@..@@..
    @@..@@..
    @@..@@..
    .@@@.@@.
    ........
    ........
    ........


# [ɒ] LATIN SMALL LETTER TURNED ALPHA
u+0252:
    ........
    ........
    ........
    ........
    ........
    ........
    .@@.@@@.
    ..@@..@@
    ..@@..@@
    ..@@..@@
    ..@@..@@
    ..@@..@@
    .@@.@@@.
    ........
    ........
    ........


# uni-vga, rebaselined
# [ɕ] LATIN SMALL LETTER C WITH CURL
u+0255:
    ........
    ........
    ........
    ........
    ........
    ........
    .@@@@@..
    @@...@@.
    @@......
    @@......
    @@.@@@..
    @@@..@@.
    .@@@@@..
    @.......
    ........
    ........


# redefined
# uni-vga, rebaselined
# [ɖ] LATIN SMALL LETTER D WITH TAIL
u+0256:
    ........
    ........
    ........
    ...@@@..
    ....@@..
    ....@@..
    ..@@@@..
    .@@.@@..
    @@..@@..
    @@..@@..
    @@..@@..
    @@..@@..
    .@@@@@..
    ....@@..
    ....@@.@
    .....@@.


# redefined
# uni-vga, rebaselined
# [ɗ] LATIN SMALL LETTER D WITH HOOK
u+0257:
    ........
    ........
    ........
    .....@@.
    ....@@.@
    ....@@..
    ..@@@@..
    .@@.@@..
    @@..@@..
    @@..@@..
    @@..@@..
    @@..@@..
    .@@@.@@.
    ........
    ........
    ........


# uni-vga, rebaselined
# [ɘ] LATIN SMALL LETTER REVERSED E
u+0258:
    ........
    ........
    ........
    ........
    ........
    ........
    .@@@@@..
    @@...@@.
    @@@@@@@.
    .....@@.
    .....@@.
    @@...@@.
    .@@@@@..
    ........
    ........
    ........


# uni-vga, rebaselined
# [ɚ] LATIN SMALL LETTER SCHWA WITH HOOK
u+025a:
    ........
    ........
    ........
    ........
    ........
    ........
    ..@@@.@@
    .@@.@@..
    @...@@@.
    ...@.@@.
    ..@..@@.
    .@@.@@..
    ..@@@...
    ........
    ........
    ........


# uni-vga, rebaselined
# [ɝ] LATIN SMALL LETTER REVERSED OPEN E WITH HOOK
u+025d:
    ........
    ........
    ........
    ........
    ........
    ........
    .@@@@.@.
    @@..@@.@
    ....@@.@
    ..@@@...
    ....@@..
    @@..@@..
    .@@@@...
    ........
    ........
    ........


# uni-vga, rebaselined
# [ɞ] LATIN SMALL LETTER CLOSED REVERSED OPEN E
u+025e:
    ........
    ........
    ........
    ........
    ........
    ........
    .@@@@@..
    @@...@@.
    @@...@@.
    @@.@@@..
    @@...@@.
    @@...@@.
    .@@@@@..
    ........
    ........
    ........


# [ɟ] LATIN SMALL LETTER DOTLESS J WITH STROKE
u+025f:
    ........
    ........
    ........
    ........
    ........
    ........
    ....@@@.
    .....@@.
    .@@@@@@@
    .....@@.
    .....@@.
    .....@@.
    .....@@.
    .@@..@@.
    .@@..@@.
    ..@@@@..


# uni-vga, rebaselined
# [ɠ] LATIN SMALL LETTER G WITH HOOK
u+0260:
    ........
    ........
    ........
    ........
    .....@@.
    ....@@.@
    .@@@@@..
    @@..@@..
    @@..@@..
    @@..@@..
    @@..@@..
    @@..@@..
    .@@@@@..
    ....@@..
    @@..@@..
    .@@@@...


# uni-vga, rebaselined
# [ɢ] LATIN LETTER SMALL CAPITAL G
u+0262:
    ........
    ........
    ........
    ........
    ........
    .@@@@@..
    @@...@@.
    @@......
    @@..@@@.
    @@...@@.
    @@...@@.
    .@@@@.@.
    ........
    ........
    ........
    ........


# uni-vga, rebaselined
# [ɤ] LATIN SMALL LETTER RAMS HORN
u+0264:
    ........
    ........
    ........
    ........
    ........
    ........
    @@....@.
    .@@..@..
    ..@.@...
    ..@@@...
    ..@@@...
    .@@.@@..
    ..@@@...
    ........
    ........
    ........


# uni-vga, rebaselined
# [ɥ] LATIN SMALL LETTER TURNED H
u+0265:
    ........
    ........
    ........
    ........
    ........
    ........
    @@..@@@.
    @@..@@..
    @@..@@..
    @@..@@..
    @@..@@..
    @@.@@@..
    .@@.@@..
    ....@@..
    ....@@..
    ....@@@.


# uni-vga, rebaselined
# [ɦ] LATIN SMALL LETTER H WITH HOOK
u+0266:
    ........
    ........
    ........
    ..@@@...
    .@@.@@..
    .@@.....
    .@@.@@..
    .@@@.@@.
    .@@..@@.
    .@@..@@.
    .@@..@@.
    .@@..@@.
    @@@..@@.
    ........
    ........
    ........


# uni-vga, rebaselined
# [ɧ] LATIN SMALL LETTER HENG WITH HOOK
u+0267:
    ........
    ........
    ........
    ..@@@...
    .@@.@@..
    .@@.....
    .@@.@@..
    .@@@.@@.
    .@@..@@.
    .@@..@@.
    .@@..@@.
    .@@..@@.
    @@@..@@.
    .....@@.
    .....@@.
    ...@@@..



# uni-vga, rebaselined
# [ɫ] LATIN SMALL LETTER L WITH MIDDLE TILDE
u+026b:
    ........
    ........
    ........
    ..@@@...
    ...@@...
    ...@@...
    ...@@...
    .@@@@.@@
    @@.@@@@.
    ...@@...
    ...@@...
    ...@@...
    ..@@@@..
    ........
    ........
    ........


# uni-vga, rebaselined
# [ɬ] LATIN SMALL LETTER L WITH BELT
u+026c:
    ........
    ........
    ........
    ..@@@...
    ...@@...
    ...@@...
    ...@@...
    .@@@@...
    .@.@@...
    ..@@@@@.
    ...@@...
    ...@@...
    ..@@@@..
    ........
    ........
    ........


# uni-vga, rebaselined
# [ɭ] LATIN SMALL LETTER L WITH RETROFLEX HOOK
u+026d:
    ........
    ........
    ........
    ..@@@...
    ...@@...
    ...@@...
    ...@@...
    ...@@...
    ...@@...
    ...@@...
    ...@@...
    ...@@...
    ...@@...
    ...@@...
    ...@@.@@
    ....@@@.


# [ɮ] LATIN SMALL LETTER LEZH
u+026e:
    ........
    ........
    ........
    @@@.....
    .@@.....
    .@@.....
    .@@@@@@@
    .@@...@@
    .@@..@@.
    .@@.@@..
    .@@..@@.
    .@@...@@
    @@@@..@@
    ......@@
    ..@@..@@
    ...@@@@.


# uni-vga, rebaselined
# [ɯ] LATIN SMALL LETTER TURNED M
u+026f:
    ........
    ........
    ........
    ........
    ........
    ........
    @@...@@.
    @@.@.@@.
    @@.@.@@.
    @@.@.@@.
    @@.@.@@.
    @@@@@@@.
    .@@.@@@.
    ........
    ........
    ........


# uni-vga, rebaselined
# [ɰ] LATIN SMALL LETTER TURNED M WITH LONG LEG
u+0270:
    ........
    ........
    ........
    ........
    ........
    ........
    @@...@@.
    @@.@.@@.
    @@.@.@@.
    @@.@.@@.
    @@.@.@@.
    @@@@@@@.
    .@@.@@@.
    .....@@.
    .....@@.
    .....@@.


# uni-vga, rebaselined
# [ɱ] LATIN SMALL LETTER M WITH HOOK
u+0271:
    ........
    ........
    ........
    ........
    ........
    ........
    @@@.@@..
    @@@@@@@.
    @@.@.@@.
    @@.@.@@.
    @@.@.@@.
    @@.@.@@.
    @@...@@.
    .....@@.
    .....@@.
    ...@@@..


# uni-vga, rebaselined
# [ɳ] LATIN SMALL LETTER N WITH RETROFLEX HOOK
u+0273:
    ........
    ........
    ........
    ........
    ........
    ........
    @@.@@@..
    .@@..@@.
    .@@..@@.
    .@@..@@.
    .@@..@@.
    .@@..@@.
    .@@..@@.
    .....@@.
    .....@@.
    ......@@


# uni-vga, rebaselined
# [ɴ] LATIN LETTER SMALL CAPITAL N
u+0274:
    ........
    ........
    ........
    ........
    ........
    ........
    @@...@@.
    @@@..@@.
    @@@@.@@.
    @@@@@@@.
    @@.@@@@.
    @@..@@@.
    @@...@@.
    ........
    ........
    ........


# uni-vga, rebaselined
# [ɶ] LATIN LETTER SMALL CAPITAL OE
u+0276:
    ........
    ........
    ........
    ........
    ........
    ........
    .@@.@@@.
    @@.@@...
    @@.@@...
    @@.@@@@.
    @@.@@...
    @@.@@...
    .@@.@@@.
    ........
    ........
    ........


# [ɷ] LATIN SMALL LETTER CLOSED OMEGA
u+0277:
    ........
    ........
    ........
    ........
    ........
    ........
    .@@@@@..
    @@...@@.
    @@...@@.
    @@.@.@@.
    @@.@.@@.
    @@.@.@@.
    .@@.@@..
    ........
    ........
    ........


# uni-vga, rebaselined
# [ɸ] LATIN SMALL LETTER PHI
u+0278:
    ........
    ........
    ........
    ...@....
    ...@....
    ...@....
    .@@@@@..
    @@.@.@@.
    @@.@.@@.
    @@.@.@@.
    @@.@.@@.
    @@.@.@@.
    .@@@@@..
    ...@....
    ...@....
    ...@....


# uni-vga, rebaselined
# [ɹ] LATIN SMALL LETTER TURNED R
u+0279:
    ........
    ........
    ........
    ........
    ........
    ........
    ...@@@@.
    ....@@..
    ....@@..
    ....@@..
    @@..@@..
    @@.@@@..
    .@@@.@@.
    ........
    ........
    ........


# uni-vga, rebaselined
# [ɺ] LATIN SMALL LETTER TURNED R WITH LONG LEG
u+027a:
    ........
    ........
    ........
    ...@@@@.
    ....@@..
    ....@@..
    ....@@..
    ....@@..
    ....@@..
    ....@@..
    @@..@@..
    @@.@@@..
    .@@@.@@.
    ........
    ........
    ........


# uni-vga, rebaselined
# [ɻ] LATIN SMALL LETTER TURNED R WITH HOOK
u+027b:
    ........
    ........
    ........
    ........
    ........
    ........
    ...@@@@.
    ....@@..
    ....@@..
    ....@@..
    @@..@@..
    @@.@@@..
    .@@.@@..
    ....@@..
    ....@@.@
    .....@@.


# uni-vga, rebaselined
# [ɼ] LATIN SMALL LETTER R WITH LONG LEG
u+027c:
    ........
    ........
    ........
    ........
    ........
    ........
    @@.@@@..
    .@@@.@@.
    .@@..@@.
    .@@.....
    .@@.....
    .@@.....
    .@@.....
    .@@.....
    .@@.....
    @@@@....


# uni-vga, rebaselined
# [ɽ] LATIN SMALL LETTER R WITH TAIL
u+027d:
    ........
    ........
    ........
    ........
    ........
    ........
    @@.@@@..
    .@@@.@@.
    .@@..@@.
    .@@.....
    .@@.....
    .@@.....
    .@@.....
    .@@.....
    .@@.@@..
    ..@@@...


# uni-vga, rebaselined
# [ɾ] LATIN SMALL LETTER R WITH FISHHOOK
u+027e:
    ........
    ........
    ........
    ........
    ........
    ........
    ..@@@@..
    .@@..@@.
    .@@..@@.
    .@@.....
    .@@.....
    .@@.....
    @@@@....
    ........
    ........
    ........


# uni-vga, rebaselined
# [ɿ] LATIN SMALL LETTER REVERSED R WITH FISHHOOK
u+027f:
    ........
    ........
    ........
    ........
    ........
    ........
    .@@@@...
    @@..@@..
    @@..@@..
    ....@@..
    ....@@..
    ....@@..
    ...@@@@.
    ........
    ........
    ........


# uni-vga, rebaselined
# [ʀ] LATIN LETTER SMALL CAPITAL R
u+0280:
    ........
    ........
    ........
    ........
    ........
    ........
    @@@@@@..
    .@@..@@.
    .@@..@@.
    .@@@@@..
    .@@.@@..
    .@@..@@.
    @@@..@@.
    ........
    ........
    ........


# uni-vga, rebaselined
# [ʁ] LATIN LETTER SMALL CAPITAL INVERTED R
u+0281:
    ........
    ........
    ........
    ........
    ........
    ........
    @@@..@@.
    .@@..@@.
    .@@.@@..
    .@@@@@..
    .@@..@@.
    .@@..@@.
    @@@@@@..
    ........
    ........
    ........


# uni-vga, rebaselined
# [ʂ] LATIN SMALL LETTER S WITH HOOK
u+0282:
    ........
    ........
    ........
    ........
    ........
    ........
    .@@@@@..
    @@...@@.
    .@@.....
    ..@@@...
    ....@@..
    @@...@@.
    @@@@@@..
    @@......
    @@.@@...
    .@@@....


# uni-vga, rebaselined
# [ʄ] LATIN SMALL LETTER DOTLESS J WITH STROKE AND HOOK
u+0284:
    ........
    ........
    ........
    ....@@@.
    ...@@.@@
    ...@@..@
    ...@@...
    ...@@...
    ...@@...
    ...@@...
    ...@@...
    ...@@...
    ..@@@@..
    @..@@...
    @@.@@...
    .@@@....


# uni-vga, rebaselined
# [ʅ] LATIN SMALL LETTER SQUAT REVERSED ESH
u+0285:
    ........
    ........
    ........
    ........
    ........
    .@@@....
    @@.@@...
    ...@@...
    ...@@...
    ...@@...
    ...@@...
    ...@@.@@
    ....@@@.
    ........
    ........
    ........


# uni-vga, rebaselined
# [ʆ] LATIN SMALL LETTER ESH WITH CURL
u+0286:
    ........
    ........
    ........
    ........
    ........
    ....@@@.
    ...@@.@@
    ...@@...
    ...@@...
    ...@@...
    ...@@...
    ...@@...
    ...@@...
    .@@@@@@.
    @@.@@...
    .@@@....


# uni-vga, rebaselined
# [ʇ] LATIN SMALL LETTER TURNED T
u+0287:
    ........
    ........
    ........
    .@@@....
    @@.@@...
    ...@@...
    ...@@...
    ...@@...
    ...@@...
    .@@@@@@.
    ...@@...
    ...@@...
    ...@....
    ........
    ........
    ........


# uni-vga, rebaselined
# [ʈ] LATIN SMALL LETTER T WITH RETROFLEX HOOK
u+0288:
    ........
    ........
    ........
    ...@....
    ..@@....
    ..@@....
    @@@@@@..
    ..@@....
    ..@@....
    ..@@....
    ..@@....
    ..@@....
    ..@@....
    ..@@....
    ..@@.@@.
    ...@@@..


# uni-vga, rebaselined
# [ʍ] LATIN SMALL LETTER TURNED W
u+028d:
    ........
    ........
    ........
    ........
    ........
    ........
    .@@.@@..
    @@@@@@@.
    @@.@.@@.
    @@.@.@@.
    @@.@.@@.
    @@...@@.
    @@...@@.
    ........
    ........
    ........


# uni-vga, rebaselined
# [ʎ] LATIN SMALL LETTER TURNED Y
u+028e:
    ........
    ........
    ........
    ..@@@@@.
    .@@.....
    @@......
    @@@@@@..
    @@...@@.
    @@...@@.
    @@...@@.
    @@...@@.
    @@...@@.
    @@...@@.
    ........
    ........
    ........


# uni-vga, rebaselined
# [ʏ] LATIN LETTER SMALL CAPITAL Y
u+028f:
    ........
    ........
    ........
    ........
    ........
    ........
    .@@..@@.
    .@@..@@.
    .@@..@@.
    ..@@@@..
    ...@@...
    ...@@...
    ..@@@@..
    ........
    ........
    ........


# uni-vga, rebaselined
# [ʐ] LATIN SMALL LETTER Z WITH RETROFLEX HOOK
u+0290:
    ........
    ........
    ........
    ........
    ........
    ........
    @@@@@@@.
    @@..@@..
    ...@@...
    ..@@....
    .@@.....
    @@...@@.
    @@@@@@@.
    .....@@.
    .....@@.
    ......@@


# uni-vga, rebaselined
# [ʑ] LATIN SMALL LETTER Z WITH CURL
u+0291:
    ........
    ........
    ........
    ........
    ........
    ........
    @@@@@@@.
    @@..@@..
    ...@@...
    ..@@....
    .@@..@@.
    @@..@.@@
    @@@@@@@.
    ...@....
    ........
    ........


# [ʓ] LATIN SMALL LETTER EZH WITH CURL
u+0293:
    ........
    ........
    ........
    ........
    ........
    ........
    .@@@@@@.
    .....@@.
    ....@@..
    ...@@...
    ....@@..
    .....@@.
    ..@@@@@.
    .@@..@@@
    ..@@@@..
    ........


# [ʕ] LATIN LETTER PHARYNGEAL VOICED FRICATIVE
u+0295:
    ........
    ........
    ........
    ........
    ........
    ........
    .@@@@@..
    @@...@@.
    @@......
    .@@@....
    ...@@...
    ...@@...
    ...@@...
    ........
    ........
    ........


# [ʖ] LATIN LETTER INVERTED GLOTTAL STOP
u+0296:
    ........
    ........
    ........
    ........
    ........
    ........
    ..@@....
    ..@@....
    ..@@....
    ...@@@..
    .....@@.
    @@...@@.
    .@@@@@..
    ........
    ........
    ........



# uni-vga, rebaselined
# [ʗ] LATIN LETTER STRETCHED C
u+0297:
    ........
    ........
    ........
    ........
    ........
    ........
    .@@@@@..
    @@...@@.
    @@......
    @@......
    @@......
    @@......
    @@......
    @@......
    @@...@@.
    .@@@@@..


# uni-vga, rebaselined
# [ʘ] LATIN LETTER BILABIAL CLICK
u+0298:
    ........
    ........
    ........
    ..@@@@..
    .@@..@@.
    @@....@@
    @@....@@
    @@.@@.@@
    @@.@@.@@
    @@....@@
    @@....@@
    .@@..@@.
    ..@@@@..
    ........
    ........
    ........


# uni-vga, rebaselined
# [ʙ] LATIN LETTER SMALL CAPITAL B
u+0299:
    ........
    ........
    ........
    ........
    ........
    ........
    @@@@@@..
    .@@..@@.
    .@@..@@.
    .@@@@@..
    .@@..@@.
    .@@..@@.
    @@@@@@..
    ........
    ........
    ........


# uni-vga, rebaselined
# [ʚ] LATIN SMALL LETTER CLOSED OPEN E
u+029a:
    ........
    ........
    ........
    ........
    ........
    ........
    .@@@@@..
    @@...@@.
    @@...@@.
    .@@@.@@.
    @@...@@.
    @@...@@.
    .@@@@@..
    ........
    ........
    ........


# uni-vga, rebaselined
# [ʛ] LATIN LETTER SMALL CAPITAL G WITH HOOK
u+029b:
    ........
    ........
    ........
    ........
    ........
    ......@@
    .@@@@@@.
    @@...@@.
    @@......
    @@..@@@.
    @@...@@.
    @@...@@.
    .@@@@.@.
    ........
    ........
    ........


# uni-vga, rebaselined
# [ʜ] LATIN LETTER SMALL CAPITAL H
u+029c:
    ........
    ........
    ........
    ........
    ........
    ........
    @@...@@.
    @@...@@.
    @@...@@.
    @@@@@@@.
    @@...@@.
    @@...@@.
    @@...@@.
    ........
    ........
    ........


# uni-vga, rebaselined
# [ʝ] LATIN SMALL LETTER J WITH CROSSED-TAIL
u+029d:
    ........
    ........
    ........
    ....@@..
    ....@@..
    ........
    ...@@@..
    ....@@..
    ....@@..
    ....@@..
    ....@@..
    ....@@..
    ....@@..
    .@@@@@@.
    @@..@@..
    .@@@@...


# uni-vga, rebaselined
# [ʞ] LATIN SMALL LETTER TURNED K
u+029e:
    ........
    ........
    ........
    ........
    ........
    ........
    @@..@@@.
    @@..@@..
    .@@.@@..
    ..@@@@..
    ..@@@@..
    .@@.@@..
    @@..@@..
    ....@@..
    ....@@..
    ....@@@.


# uni-vga, rebaselined
# [ʟ] LATIN LETTER SMALL CAPITAL L
u+029f:
    ........
    ........
    ........
    ........
    ........
    ........
    @@@@....
    .@@.....
    .@@.....
    .@@.....
    .@@...@.
    .@@..@@.
    @@@@@@@.
    ........
    ........
    ........


# uni-vga, rebaselined
# [ʠ] LATIN SMALL LETTER Q WITH HOOK
u+02a0:
    ........
    ........
    ........
    ........
    .....@@.
    ....@@.@
    .@@@@@..
    @@..@@..
    @@..@@..
    @@..@@..
    @@..@@..
    @@..@@..
    .@@@@@..
    ....@@..
    ....@@..
    ...@@@@.


# [ʡ] LATIN LETTER GLOTTAL STOP WITH STROKE
u+02a1:
    ........
    ........
    ........
    .@@@@@..
    @@...@@.
    .....@@.
    ...@@@..
    ..@@....
    @@@@@@@.
    ..@@....
    ........
    ........
    ........
    ........
    ........
    ........


# [ʢ] LATIN LETTER REVERSED GLOTTAL STOP WITH STROKE
u+02a2:
    ........
    ........
    ........
    ........
    ........
    ........
    .@@@@@..
    @@...@@.
    @@......
    .@@@....
    ...@@...
    @@@@@@@.
    ...@@...
    ........
    ........
    ........


# uni-vga, rebaselined
# [ʣ] LATIN SMALL LETTER DZ DIGRAPH
u+02a3:
    ........
    ........
    ........
    ..@@@...
    ...@@...
    ...@@...
    .@@@@@@@
    @@.@@..@
    @@.@@.@.
    @@.@@.@.
    @@.@@.@.
    @@.@@@..
    .@@.@@@@
    ........
    ........
    ........


# uni-vga, rebaselined
# [ʤ] LATIN SMALL LETTER DEZH DIGRAPH
u+02a4:
    ........
    ........
    ........
    ..@@@...
    ...@@...
    ...@@...
    .@@@@@@@
    @@.@@.@@
    @@.@@.@@
    @@.@@@@.
    @@.@@@@.
    @@.@@.@@
    .@@.@.@@
    ......@@
    ...@@.@@
    ....@@@.


# uni-vga, rebaselined
# [ʥ] LATIN SMALL LETTER DZ DIGRAPH WITH CURL
u+02a5:
    ........
    ........
    ........
    ..@@@...
    ...@@...
    ...@@...
    .@@@@@@@
    @@.@@..@
    @@.@@.@.
    @@.@@.@.
    @@.@@.@@
    @@.@@@.@
    .@@.@@@@
    .....@..
    ........
    ........


# uni-vga, rebaselined
# [ʦ] LATIN SMALL LETTER TS DIGRAPH
u+02a6:
    ........
    ........
    ........
    ..@.....
    .@@.....
    .@@.....
    @@@@.@@.
    .@@.@@.@
    .@@.@@..
    .@@..@@.
    .@@...@@
    .@@.@.@@
    ..@@.@@.
    ........
    ........
    ........


# uni-vga, rebaselined
# [ʧ] LATIN SMALL LETTER TESH DIGRAPH
u+02a7:
    ........
    ........
    ........
    ..@..@@.
    .@@.@@.@
    .@@.@@..
    @@@@@@..
    .@@.@@..
    .@@.@@..
    .@@.@@..
    .@@.@@..
    .@@.@@..
    ..@@@@..
    ....@@..
    ..@.@@..
    ...@@...


# uni-vga, rebaselined
# [ʨ] LATIN SMALL LETTER TC DIGRAPH WITH CURL
u+02a8:
    ........
    ........
    ........
    ..@.....
    .@@.....
    .@@.....
    @@@@.@@.
    .@@.@@.@
    .@@.@@..
    .@@.@@..
    .@@.@@@.
    .@@.@@.@
    ..@@.@@.
    ........
    ........
    ........


# uni-vga, rebaselined
# [ʩ] LATIN SMALL LETTER FENG DIGRAPH
u+02a9:
    ........
    ........
    ........
    .@@@....
    @@.@@...
    @@......
    @@@@@@@.
    @@.@@.@@
    @@.@@.@@
    @@.@@.@@
    @@.@@.@@
    @@.@@.@@
    @@.@@.@@
    ......@@
    ......@@
    ....@@@.


# uni-vga, rebaselined
# [ʪ] LATIN SMALL LETTER LS DIGRAPH
u+02aa:
    ........
    ........
    ........
    @@@.....
    .@@.....
    .@@.....
    .@@..@@.
    .@@.@@.@
    .@@.@@..
    .@@..@@.
    .@@...@@
    .@@.@.@@
    @@@@.@@.
    ........
    ........
    ........


# uni-vga, rebaselined
# [ʫ] LATIN SMALL LETTER LZ DIGRAPH
u+02ab:
    ........
    ........
    ........
    @@@.....
    .@@.....
    .@@.....
    .@@.@@@@
    .@@.@.@@
    .@@...@@
    .@@..@@.
    .@@.@@..
    .@@.@@.@
    @@@@@@@@
    ........
    ........
    ........


# uni-vga, rebaselined
# [ʬ] LATIN LETTER BILABIAL PERCUSSIVE
u+02ac:
    ........
    ........
    ........
    @@...@@.
    @@.@.@@.
    .@@@@@..
    .@@.@@..
    ..@.@...
    @@...@@.
    @@.@.@@.
    .@@@@@..
    .@@.@@..
    ..@.@...
    ........
    ........
    ........


# uni-vga, rebaselined
# [ʭ] LATIN LETTER BIDENTAL PERCUSSIVE
u+02ad:
    ........
    ........
    ........
    @@@@@@@.
    @@...@@.
    @@...@@.
    @@...@@.
    ........
    ........
    @@@@@@@.
    @@...@@.
    @@...@@.
    @@...@@.
    ........
    ........
    ........

# U+02AE LATIN SMALL LETTER TURNED H WITH FISHHOOK
u+02ae:
    ........
    ........
    ........
    ........
    ........
    ........
    .@@...@@
    @.@@..@@
    @.@@..@@
    ..@@..@@
    ..@@..@@
    ..@@.@@@
    ...@@.@@
    ......@@
    ......@@
    ......@@


# U+02AF LATIN SMALL LETTER TURNED H WITH FISHHOOK AND TAIL
u+02af:
    ........
    ........
    ........
    ........
    ........
    ........
    .@@..@@.
    @.@@.@@.
    @.@@.@@.
    ..@@.@@.
    ..@@.@@.
    ..@@.@@.
    ...@@@@.
    .....@@.
    .....@@.
    ......@@


# uni-vga
# [ʰ] MODIFIER LETTER SMALL H
u+02b0:
    ........
    @@......
    @@......
    @@@@....
    @@.@@...
    @@.@@...
    @@.@@...
    ........
    ........
    ........
    ........
    ........
    ........
    ........
    ........
    ........


# uni-vga
# [ʱ] MODIFIER LETTER SMALL H WITH HOOK
u+02b1:
    ........
    .@@@....
    @@......
    @@@@....
    @@.@@...
    @@.@@...
    @@.@@...
    ........
    ........
    ........
    ........
    ........
    ........
    ........
    ........
    ........


# uni-vga
# [ʲ] MODIFIER LETTER SMALL J
u+02b2:
    ........
    ...@@...
    ........
    ..@@@...
    ...@@...
    ...@@...
    @@.@@...
    .@@@....
    ........
    ........
    ........
    ........
    ........
    ........
    ........
    ........


# uni-vga
# [ʳ] MODIFIER LETTER SMALL R
u+02b3:
    ........
    ........
    ........
    @.@@....
    @@.@@...
    @@......
    @@......
    ........
    ........
    ........
    ........
    ........
    ........
    ........
    ........
    ........


# uni-vga
# [ʴ] MODIFIER LETTER SMALL TURNED R
u+02b4:
    ........
    ........
    ........
    ...@@...
    ...@@...
    @@.@@...
    .@@.@...
    ........
    ........
    ........
    ........
    ........
    ........
    ........
    ........
    ........


# uni-vga
# [ʵ] MODIFIER LETTER SMALL TURNED R WITH HOOK
u+02b5:
    ........
    ........
    ........
    ...@@...
    ...@@...
    @@.@@...
    .@@.@...
    ....@@..
    ........
    ........
    ........
    ........
    ........
    ........
    ........
    ........


# uni-vga
# [ʶ] MODIFIER LETTER SMALL CAPITAL INVERTED R
u+02b6:
    ........
    @@.@@...
    @@.@@...
    @@@@....
    @@.@@...
    @@.@@...
    @@@@....
    ........
    ........
    ........
    ........
    ........
    ........
    ........
    ........
    ........


# uni-vga
# [ʷ] MODIFIER LETTER SMALL W
u+02b7:
    ........
    ........
    ........
    @@...@@.
    @@.@.@@.
    .@@@@@..
    .@@.@@..
    ........
    ........
    ........
    ........
    ........
    ........
    ........
    ........
    ........


# uni-vga
# [ʸ] MODIFIER LETTER SMALL Y
u+02b8:
    ........
    ........
    ........
    @@.@@...
    @@.@@...
    .@@@@...
    ...@@...
    .@@@....
    ........
    ........
    ........
    ........
    ........
    ........
    ........
    ........


# uni-vga
# [ʹ] MODIFIER LETTER PRIME
u+02b9:
    ........
    ...@@...
    ..@@....
    .@@.....
    ........
    ........
    ........
    ........
    ........
    ........
    ........
    ........
    ........
    ........
    ........
    ........


# uni-vga
# [ʺ] MODIFIER LETTER DOUBLE PRIME
u+02ba:
    ........
    ..@@.@@.
    .@@.@@..
    @@.@@...
    ........
    ........
    ........
    ........
    ........
    ........
    ........
    ........
    ........
    ........
    ........
    ........


# uni-vga
# [ʼ] MODIFIER LETTER APOSTROPHE
u+02bc:
    ........
    ...@@...
    ...@@...
    ..@@....
    ........
    ........
    ........
    ........
    ........
    ........
    ........
    ........
    ........
    ........
    ........
    ........


# uni-vga
# [ʽ] MODIFIER LETTER REVERSED COMMA
u+02bd:
    ........
    ..@@....
    ..@@....
    ...@@...
    ........
    ........
    ........
    ........
    ........
    ........
    ........
    ........
    ........
    ........
    ........
    ........


# uni-vga
# [ʾ] MODIFIER LETTER RIGHT HALF RING
u+02be:
    ........
    ...@@...
    ....@@..
    ...@@...
    ........
    ........
    ........
    ........
    ........
    ........
    ........
    ........
    ........
    ........
    ........
    ........


# uni-vga
# [ʿ] MODIFIER LETTER LEFT HALF RING
u+02bf:
    ........
    ..@@....
    .@@.....
    ..@@....
    ........
    ........
    ........
    ........
    ........
    ........
    ........
    ........
    ........
    ........
    ........
    ........


# uni-vga
# [ˀ] MODIFIER LETTER GLOTTAL STOP
u+02c0:
    ........
    ........
    .@@@....
    @@.@@...
    ...@@...
    ..@@....
    ..@@....
    ........
    ........
    ........
    ........
    ........
    ........
    ........
    ........
    ........


# uni-vga
# [ˁ] MODIFIER LETTER REVERSED GLOTTAL STOP
u+02c1:
    ........
    ........
    .@@@....
    @@.@@...
    @@......
    .@@.....
    .@@.....
    ........
    ........
    ........
    ........
    ........
    ........
    ........
    ........
    ........


# uni-vga
# [˂] MODIFIER LETTER LEFT ARROWHEAD
u+02c2:
    ........
    ........
    ...@@...
    .@@@....
    @@......
    .@@@....
    ...@@...
    ........
    ........
    ........
    ........
    ........
    ........
    ........
    ........
    ........


# uni-vga
# [˃] MODIFIER LETTER RIGHT ARROWHEAD
u+02c3:
    ........
    ........
    @@......
    .@@@....
    ...@@...
    .@@@....
    @@......
    ........
    ........
    ........
    ........
    ........
    ........
    ........
    ........
    ........


# uni-vga
# [˄] MODIFIER LETTER UP ARROWHEAD
u+02c4:
    ........
    ..@.....
    ..@.....
    .@@@....
    .@@@....
    @@.@@...
    @@.@@...
    ........
    ........
    ........
    ........
    ........
    ........
    ........
    ........
    ........


# uni-vga
# [˅] MODIFIER LETTER DOWN ARROWHEAD
u+02c5:
    ........
    @@.@@...
    @@.@@...
    .@@@....
    .@@@....
    ..@.....
    ..@.....
    ........
    ........
    ........
    ........
    ........
    ........
    ........
    ........
    ........


# [ˆ] MODIFIER LETTER CIRCUMFLEX ACCENT
u+02c6:
    ..@@@...
    .@@.@@..
    ........
    ........
    ........
    ........
    ........
    ........
    ........
    ........
    ........
    ........
    ........
    ........
    ........
    ........


# [ˉ] MODIFIER LETTER MACRON
u+02c9:
    ........
    @@@@@@@.
    ........
    ........
    ........
    ........
    ........
    ........
    ........
    ........
    ........
    ........
    ........
    ........
    ........
    ........


# [ˊ] MODIFIER LETTER ACUTE ACCENT
u+02ca:
    ....@@..
    ...@@...
    ........
    ........
    ........
    ........
    ........
    ........
    ........
    ........
    ........
    ........
    ........
    ........
    ........
    ........


# [ˋ] MODIFIER LETTER GRAVE ACCENT
u+02cb:
    .@@.....
    ..@@....
    ........
    ........
    ........
    ........
    ........
    ........
    ........
    ........
    ........
    ........
    ........
    ........
    ........
    ........


# [ˍ] MODIFIER LETTER LOW MACRON
u+02cd:
    ........
    ........
    ........
    ........
    ........
    ........
    ........
    ........
    ........
    ........
    ........
    ........
    ........
    ........
    .@@@@@@.
    ........


# uni-vga, rebaselined
# [ˎ] MODIFIER LETTER LOW GRAVE ACCENT
u+02ce:
    ........
    ........
    ........
    ........
    ........
    ........
    ........
    ........
    ........
    ........
    ........
    ........
    ........
    ........
    ...@@...
    ....@@..


# uni-vga, rebaselined
# [ˏ] MODIFIER LETTER LOW ACUTE ACCENT
u+02cf:
    ........
    ........
    ........
    ........
    ........
    ........
    ........
    ........
    ........
    ........
    ........
    ........
    ........
    ........
    ..@@....
    .@@.....


# [˚] RING ABOVE
u+02da:
    ..@@@...
    .@@.@@..
    ..@@@...
    ........
    ........
    ........
    ........
    ........
    ........
    ........
    ........
    ........
    ........
    ........
    ........
    ........


# [˜] SMALL TILDE
u+02dc:
    .@@@.@@.
    @@.@@@..
    ........
    ........
    ........
    ........
    ........
    ........
    ........
    ........
    ........
    ........
    ........
    ........
    ........
    ........


# uni-vga
# [ˮ] MODIFIER LETTER DOUBLE APOSTROPHE
u+02ee:
    ........
    .@@.@@..
    .@@.@@..
    .@@.@@..
    .@..@...
    ........
    ........
    ........
    ........
    ........
    ........
    ........
    ........
    ........
    ........
    ........


# [̀] COMBINING GRAVE ACCENT
u+0300:
    .@@.....
    ..@@....
    ........
    ........
    ........
    ........
    ........
    ........
    ........
    ........
    ........
    ........
    ........
    ........
    ........
    ........


# [́] COMBINING ACUTE ACCENT
u+0301:
    ....@@..
    ...@@...
    ........
    ........
    ........
    ........
    ........
    ........
    ........
    ........
    ........
    ........
    ........
    ........
    ........
    ........


# [̃] COMBINING TILDE
u+0303:
    .@@@.@@.
    @@.@@@..
    ........
    ........
    ........
    ........
    ........
    ........
    ........
    ........
    ........
    ........
    ........
    ........
    ........
    ........


# [̉] COMBINING HOOK ABOVE
u+0309:
    .@@@....
    ...@@...
    ..@@....
    ........
    ........
    ........
    ........
    ........
    ........
    ........
    ........
    ........
    ........
    ........
    ........
    ........


# [̒] COMBINING TURNED COMMA ABOVE
u+0312:
    ...@@...
    ..@@....
    ..@@....
    ........
    ........
    ........
    ........
    ........
    ........
    ........
    ........
    ........
    ........
    ........
    ........
    ........


# [̓] COMBINING COMMA ABOVE
u+0313:
    ...@@...
    ...@@...
    ..@@....
    ........
    ........
    ........
    ........
    ........
    ........
    ........
    ........
    ........
    ........
    ........
    ........
    ........


# [̔] COMBINING REVERSED COMMA ABOVE
u+0314:
    ..@@....
    ..@@....
    ...@@...
    ........
    ........
    ........
    ........
    ........
    ........
    ........
    ........
    ........
    ........
    ........
    ........
    ........



# [̣] COMBINING DOT BELOW
u+0323:
    ........
    ........
    ........
    ........
    ........
    ........
    ........
    ........
    ........
    ........
    ........
    ........
    ........
    ........
    ...@@...
    ...@@...


# uni-vga
# [̀] COMBINING GRAVE TONE MARK
u+0340:
    @@......
    .@@.....
    ........
    ........
    ........
    ........
    ........
    ........
    ........
    ........
    ........
    ........
    ........
    ........
    ........
    ........


# uni-vga
# [́] COMBINING ACUTE TONE MARK
u+0341:
    ......@@
    .....@@.
    ........
    ........
    ........
    ........
    ........
    ........
    ........
    ........
    ........
    ........
    ........
    ........
    ........
    ........


# uni-vga
# [ʹ] GREEK NUMERAL SIGN
u+0374:
    ........
    ..@@....
    ..@.....
    .@......
    ........
    ........
    ........
    ........
    ........
    ........
    ........
    ........
    ........
    ........
    ........
    ........


# uni-vga
# [͵] GREEK LOWER NUMERAL SIGN
u+0375:
    ........
    ........
    ........
    ........
    ........
    ........
    ........
    ........
    ........
    ........
    ...@....
    ..@.....
    .@@.....
    ........
    ........
    ........


# uni-vga
# [ͺ] GREEK YPOGEGRAMMENI
u+037a:
    ........
    ........
    ........
    ........
    ........
    ........
    ........
    ........
    ........
    ........
    ........
    ........
    ..@@....
    ..@@.@..
    ...@@...
    ........


# uni-vga
# [;] GREEK QUESTION MARK
u+037e:
    ........
    ........
    ........
    ........
    ...@@...
    ...@@...
    ........
    ........
    ........
    ...@@...
    ...@@...
    ..@@....
    ........
    ........
    ........
    ........


# uni-vga
# [·] GREEK ANO TELEIA
u+0387:
    ........
    ........
    ........
    ........
    ........
    ........
    ........
    ...@@...
    ...@@...
    ........
    ........
    ........
    ........
    ........
    ........
    ........


# uni-vga
# [ϐ] GREEK BETA SYMBOL
u+03d0:
    ........
    ........
    ..@@@@..
    .@@..@@.
    .@@..@@.
    .@@.@@..
    .@@@@@..
    .@@..@@.
    .@@..@@.
    .@@..@@.
    .@@..@@.
    ..@@@@..
    ........
    ........
    ........
    ........


# [ϒ] GREEK UPSILON WITH HOOK SYMBOL
u+03d2:
    ........
    ........
    ........
    @@...@@.
    @@..@@.@
    @@..@@.@
    @@..@@..
    .@@@@...
    ..@@....
    ..@@....
    ..@@....
    ..@@....
    .@@@@...
    ........
    ........
    ........


# [ϓ] GREEK UPSILON WITH ACUTE AND HOOK SYMBOL
u+03d3:
    .@@.....
    @@......
    ........
    @@...@@.
    @@..@@.@
    @@..@@.@
    @@..@@..
    .@@@@...
    ..@@....
    ..@@....
    ..@@....
    ..@@....
    .@@@@...
    ........
    ........
    ........


# [ϔ] GREEK UPSILON WITH DIAERESIS AND HOOK SYMBOL
u+03d4:
    .@@.@@..
    .@@.@@..
    ........
    @@...@@.
    @@..@@.@
    @@..@@.@
    @@..@@..
    .@@@@...
    ..@@....
    ..@@....
    ..@@....
    ..@@....
    .@@@@...
    ........
    ........
    ........


# uni-vga, rebaselined
# [ϖ] GREEK PI SYMBOL
u+03d6:
    ........
    ........
    ........
    ........
    ........
    ........
    @@@@@@@.
    .@@.@@..
    @@...@@.
    @@.@.@@.
    @@.@.@@.
    @@.@.@@.
    .@@.@@..
    ........
    ........
    ........


# uni-vga, rebaselined
# [ϗ] GREEK KAI SYMBOL
u+03d7:
    ........
    ........
    ........
    ........
    ........
    ........
    .@...@@.
    @.@..@@.
    ..@.@@..
    ..@@@...
    .@@.@...
    @@..@.@.
    @@...@..
    ....@@..
    ...@@...
    ........



# [Ϛ] GREEK LETTER STIGMA
u+03da:
    ........
    ........
    ........
    ..@@@@..
    .@@..@@.
    @@....@.
    @@......
    @@......
    @@......
    @@......
    .@@.....
    ..@@@@..
    .....@@.
    .....@@.
    ...@@@..
    ........


# [ϛ] GREEK SMALL LETTER STIGMA
u+03db:
    ........
    ........
    ........
    ........
    ........
    ........
    .@@@@@@.
    @@......
    @@......
    @@......
    @@......
    @@......
    .@@@@@..
    .....@@.
    .....@@.
    ...@@@..


# [Ϝ] GREEK LETTER DIGAMMA
u+03dc:
    ........
    ........
    ........
    @@@@@@@.
    .@@..@@.
    .@@...@.
    .@@.....
    .@@@@...
    .@@.@...
    .@@.....
    .@@.....
    .@@.....
    @@@@....
    ........
    ........
    ........


# [ϝ] GREEK SMALL LETTER DIGAMMA
u+03dd:
    ........
    ........
    ........
    ........
    ........
    ........
    .@@@@@@.
    ..@@..@.
    ..@@....
    ..@@....
    ..@@@@..
    ..@@.@..
    ..@@....
    ..@@....
    ..@@....
    ..@@....


# [Ϟ] GREEK LETTER KOPPA
u+03de:
    ........
    ........
    .@@.....
    ..@@....
    ..@@....
    .@@.....
    .@@...@@
    @@@@@@@@
    @@...@@.
    .....@@.
    ....@@..
    ....@@..
    .....@@.
    ........
    ........
    ........


# [ϟ] GREEK SMALL LETTER KOPPA
u+03df:
    ........
    ........
    ........
    ..@@....
    ..@@....
    .@@.....
    .@@.....
    @@@@@@@.
    @@@@@@@.
    ....@@..
    ....@@..
    ...@@...
    ...@@...
    ........
    ........
    ........


# [Ϡ] GREEK LETTER SAMPI
u+03e0:
    ........
    ........
    ........
    .@@@@...
    @.@.@@..
    ..@..@@.
    ..@..@@.
    ....@.@@
    ....@.@@
    ...@@.@@
    ...@@.@@
    ...@@.@@
    ...@@.@@
    ......@@
    ......@.
    .....@..


# [ϡ] GREEK SMALL LETTER SAMPI
u+03e1:
    ........
    ........
    ........
    ........
    ........
    @@......
    .@@.....
    ..@@....
    ...@@...
    ..@.@...
    .@..@@..
    ...@.@..
    ..@..@..
    .....@@.
    ......@.
    ......@.


# [Ϣ] COPTIC CAPITAL LETTER SHEI
u+03e2:
    ........
    ........
    ........
    @@.@@.@@
    @@.@@.@@
    @@.@@.@@
    @@.@@.@@
    @@.@@.@@
    @@.@@.@@
    @@.@@.@@
    @@.@@.@@
    @@.@@.@@
    .@@.@@.@
    ......@@
    ..@@@@@.
    ........


# [ϣ] COPTIC SMALL LETTER SHEI
u+03e3:
    ........
    ........
    ........
    ........
    ........
    ........
    @@.@@.@@
    @@.@@.@@
    @@.@@.@@
    @@.@@.@@
    @@.@@.@@
    @@.@@.@@
    .@@.@@.@
    ......@@
    .@@@@@@.
    ........


# [Ϥ] COPTIC CAPITAL LETTER FEI
u+03e4:
    ........
    ........
    ........
    .@@@.@@.
    @@.@.@@.
    @@...@@.
    @@...@@.
    @@...@@.
    .@@@@@@.
    .....@@.
    .....@@.
    .....@@.
    .....@@.
    ........
    ........
    ........


# [ϥ] COPTIC SMALL LETTER FEI
u+03e5:
    ........
    ........
    ........
    ..@@.@@.
    .@@..@@.
    .@@..@@.
    .@@..@@.
    .@@..@@.
    ..@@@@@.
    .....@@.
    .....@@.
    .....@@.
    .....@@.
    ........
    ........
    ........


# [Ϧ] COPTIC CAPITAL LETTER KHEI
u+03e6:
    ........
    ........
    ........
    @@......
    @@......
    @@......
    @@......
    @@@@@@..
    @@...@@.
    @@...@@.
    @@...@@.
    @@...@@.
    @@...@@.
    .....@@.
    .@@@.@@.
    @..@@@..


# [ϧ] COPTIC SMALL LETTER KHEI
u+03e7:
    ........
    ........
    ........
    ........
    ........
    ....@...
    .@@@@@..
    @@.@.@@.
    .@@..@@.
    .....@@.
    .....@@.
    .@@..@@.
    @.@@@@..
    ........
    ........
    ........


# [Ϩ] COPTIC CAPITAL LETTER HORI
u+03e8:
    ........
    ........
    ........
    .@@@@@..
    @@...@@.
    @@...@@.
    .....@@.
    ..@@@@..
    .@@.....
    @@...@@.
    @@...@@.
    @@...@@.
    .@@@@@..
    ........
    ........
    ........


# [ϩ] COPTIC SMALL LETTER HORI
u+03e9:
    ........
    ........
    ........
    ..@@@@..
    .@@..@@.
    .@@..@@.
    ..@..@@.
    ...@@@..
    .@@@....
    @@......
    @@....@.
    @@...@@.
    .@@@@@..
    ........
    ........
    ........


# [Ϫ] COPTIC CAPITAL LETTER GANGIA
u+03ea:
    ........
    ........
    ........
    @@...@@.
    .@@.@...
    ..@@@...
    ..@@....
    ..@@@...
    ..@@@...
    .@..@@..
    .@..@@..
    @....@@.
    @@@@@@@.
    ........
    ........
    ........


# [ϫ] COPTIC SMALL LETTER GANGIA
u+03eb:
    ........
    ........
    ........
    ........
    ........
    ........
    .@@..@..
    @.@@@.@.
    ..@@....
    ..@@@...
    ..@.@...
    .@..@@..
    .@@@@@..
    ........
    ........
    ........


# [Ϭ] COPTIC CAPITAL LETTER SHIMA
u+03ec:
    ........
    ........
    ........
    .@@@@@@.
    @@......
    @@..@@..
    @@.@.@@.
    @@...@@.
    @@...@@.
    @@...@@.
    @@...@@.
    @@...@@.
    .@@@@@..
    ........
    ........
    ........


# [ϭ] COPTIC SMALL LETTER SHIMA
u+03ed:
    ........
    ........
    ........
    ........
    ........
    ........
    .@@@@@@.
    @@......
    @@.@@@..
    @@...@@.
    @@...@@.
    @@...@@.
    .@@@@@..
    ........
    ........
    ........


# [Ϯ] COPTIC CAPITAL LETTER DEI
u+03ee:
    ........
    ........
    ........
    ..@@@@..
    ...@@...
    .@@@@@@.
    @..@@..@
    ...@@...
    ...@@...
    ...@@...
    ...@@...
    ...@@...
    ..@@@@..
    ........
    ........
    ........


# [ϯ] COPTIC SMALL LETTER DEI
u+03ef:
    ........
    ........
    ........
    ...@@...
    ...@@@..
    ...@@...
    .@@@@@@.
    .@.@@...
    ...@@...
    ...@@...
    ...@@...
    ..@@@...
    ...@@...
    ........
    ........
    ........


# [ϰ] GREEK KAPPA SYMBOL
u+03f0:
    ........
    ........
    ........
    ........
    ........
    ........
    .@...@@.
    @.@..@@.
    ..@.@@..
    ..@@@...
    .@@.@...
    @@..@.@.
    @@...@..
    ........
    ........
    ........


# [ϱ] GREEK RHO SYMBOL
u+03f1:
    ........
    ........
    ........
    ........
    ........
    ........
    .@@@@@..
    @@...@@.
    @@...@@.
    @@...@@.
    @@...@@.
    @@@@@@..
    @@......
    .@@.....
    ..@@@@..
    .....@@.


# [ϲ] GREEK LUNATE SIGMA SYMBOL
u+03f2:
    ........
    ........
    ........
    ........
    ........
    ........
    .@@@@@..
    @@...@@.
    @@......
    @@......
    @@......
    @@...@@.
    .@@@@@..
    ........
    ........
    ........


# [ϳ] GREEK LETTER YOT
u+03f3:
    ........
    ........
    ........
    .....@@.
    .....@@.
    ........
    ....@@@.
    .....@@.
    .....@@.
    .....@@.
    .....@@.
    .....@@.
    .....@@.
    .@@..@@.
    .@@..@@.
    ..@@@@..


# [Ѐ] CYRILLIC CAPITAL LETTER IE WITH GRAVE
u+0400:
    ..@@....
    ...@@...
    ........
    @@@@@@@.
    .@@..@@.
    .@@...@.
    .@@.@...
    .@@@@...
    .@@.@...
    .@@.....
    .@@...@.
    .@@..@@.
    @@@@@@@.
    ........
    ........
    ........


# [Ѝ] CYRILLIC CAPITAL LETTER I WITH GRAVE
u+040d:
    ..@@....
    ...@@...
    ........
    @@...@@.
    @@...@@.
    @@...@@.
    @@..@@@.
    @@.@@@@.
    @@@@.@@.
    @@@..@@.
    @@...@@.
    @@...@@.
    @@...@@.
    ........
    ........
    ........


# [ѐ] CYRILLIC SMALL LETTER IE WITH GRAVE
u+0450:
    ........
    ........
    .@@.....
    ..@@....
    ...@@...
    ........
    .@@@@@..
    @@...@@.
    @@...@@.
    @@@@@@@.
    @@......
    @@...@@.
    .@@@@@..
    ........
    ........
    ........


# [ѝ] CYRILLIC SMALL LETTER I WITH GRAVE
u+045d:
    ........
    ........
    .@@.....
    ..@@....
    ...@@...
    ........
    @@...@@.
    @@...@@.
    @@..@@@.
    @@.@@@@.
    @@@@.@@.
    @@@..@@.
    @@...@@.
    ........
    ........
    ........


# [Ѡ] CYRILLIC CAPITAL LETTER OMEGA
u+0460:
    ........
    ........
    ........
    .@@.@@..
    @@...@@.
    @@...@@.
    @@.@.@@.
    @@.@.@@.
    @@.@.@@.
    @@.@.@@.
    @@.@.@@.
    @@@@@@@.
    .@@.@@..
    ........
    ........
    ........


# [ѡ] CYRILLIC SMALL LETTER OMEGA
u+0461:
    ........
    ........
    ........
    ........
    ........
    ........
    .@@.@@..
    @@...@@.
    @@.@.@@.
    @@.@.@@.
    @@.@.@@.
    @@@@@@@.
    .@@.@@..
    ........
    ........
    ........


# [Ѣ] CYRILLIC CAPITAL LETTER YAT
u+0462:
    ........
    ........
    ........
    ..@@....
    @@@@@@..
    @.@@.@..
    ..@@....
    ..@@@@..
    ..@@.@@.
    ..@@.@@.
    ..@@.@@.
    ..@@.@@.
    .@@@@@..
    ........
    ........
    ........


# [ѣ] CYRILLIC SMALL LETTER YAT
u+0463:
    ........
    ........
    ........
    ..@@....
    ..@@....
    ..@@....
    @@@@@@..
    @.@@.@..
    ..@@....
    ..@@@@..
    ..@@.@@.
    ..@@.@@.
    .@@@@@..
    ........
    ........
    ........


# [Ѥ] CYRILLIC CAPITAL LETTER IOTIFIED E
u+0464:
    ........
    ........
    ........
    @@..@@@.
    @@.@@.@@
    @@.@@..@
    @@.@@...
    @@@@@@@.
    @@.@@...
    @@.@@...
    @@.@@..@
    @@.@@.@@
    @@..@@@.
    ........
    ........
    ........


# [ѥ] CYRILLIC SMALL LETTER IOTIFIED E
u+0465:
    ........
    ........
    ........
    ........
    ........
    ........
    @@..@@@.
    @@.@@.@@
    @@.@@...
    @@@@@@@.
    @@.@@...
    @@.@@.@@
    @@..@@@.
    ........
    ........
    ........


# [Ѧ] CYRILLIC CAPITAL LETTER LITTLE YUS
u+0466:
    ........
    ........
    ........
    ...@....
    ..@@@...
    ..@@@...
    .@@.@@..
    .@@.@@..
    .@@.@@..
    @@@@@@@.
    @@.@.@@.
    @@.@.@@.
    @@.@.@@.
    ........
    ........
    ........


# [ѧ] CYRILLIC SMALL LETTER LITTLE YUS
u+0467:
    ........
    ........
    ........
    ........
    ........
    ........
    ...@....
    ..@@@...
    ..@@@...
    .@@.@@..
    .@@@@@..
    @@.@.@@.
    @@.@.@@.
    ........
    ........
    ........


# [Ѩ] CYRILLIC CAPITAL LETTER IOTIFIED LITTLE YUS
u+0468:
    ........
    ........
    ........
    @...@...
    @...@@..
    @..@@@..
    @..@.@@.
    @@@@.@@.
    @.@@.@@.
    @.@@@@@@
    @.@.@.@@
    @@@.@.@@
    @@@.@.@@
    ........
    ........
    ........


# [ѩ] CYRILLIC SMALL LETTER IOTIFIED LITTLE YUS
u+0469:
    ........
    ........
    ........
    ........
    ........
    ........
    @...@...
    @...@@..
    @..@@@..
    @@@@.@@.
    @.@@@@@.
    @.@.@.@@
    @@@.@.@@
    ........
    ........
    ........


# [Ѫ] CYRILLIC CAPITAL LETTER BIG YUS
u+046a:
    ........
    ........
    ........
    @@@@@@@.
    @@...@@.
    .@@.@@..
    .@@.@@..
    ..@@@...
    .@@@@@..
    @@.@.@@.
    @@.@.@@.
    @@.@.@@.
    @@.@.@@.
    ........
    ........
    ........


# [ѫ] CYRILLIC SMALL LETTER BIG YUS
u+046b:
    ........
    ........
    ........
    ........
    ........
    ........
    @@@@@@@.
    @@...@@.
    .@@.@@..
    .@@@@@..
    @@.@.@@.
    @@.@.@@.
    @@.@.@@.
    ........
    ........
    ........


# [Ѭ] CYRILLIC CAPITAL LETTER IOTIFIED BIG YUS
u+046c:
    ........
    ........
    ........
    @@@@@@@@
    @.@...@@
    @.@@..@.
    @..@.@@.
    @@@@@@..
    @..@@@..
    @.@@@@@.
    @.@.@.@.
    @.@.@.@@
    @@@.@.@@
    ........
    ........
    ........


# [ѭ] CYRILLIC SMALL LETTER IOTIFIED BIG YUS
u+046d:
    ........
    ........
    ........
    ........
    ........
    ........
    @.@@@@@@
    @.@...@@
    @..@.@@.
    @@@@@@@.
    @.@.@.@@
    @.@.@.@@
    @@@.@.@@
    ........
    ........
    ........


# modified
# [Ѯ] CYRILLIC CAPITAL LETTER KSI
u+046e:
    .@@.@@..
    ..@@@...
    ...@....
    ........
    .@@@@@..
    @@...@@.
    .....@@.
    .....@@.
    .@@@@@..
    .....@@.
    .....@@.
    .....@@.
    .@@@@@..
    @@......
    .@@@@@..
    ........


# [ѯ] CYRILLIC SMALL LETTER KSI
u+046f:
    ........
    ........
    .@@.@@..
    ..@@@...
    ...@....
    ........
    .@@@@@..
    @....@@.
    .....@@.
    .@@@@@..
    .....@@.
    .....@@.
    .@@@@@..
    @@......
    .@@@@@..
    ........


# [Ѱ] CYRILLIC CAPITAL LETTER PSI
u+0470:
    ........
    ........
    ........
    ...@....
    @..@.@@.
    @@.@.@@.
    @@.@.@@.
    @@.@.@@.
    @@.@.@@.
    @@.@.@@.
    .@@@@@..
    ...@....
    ...@....
    ........
    ........
    ........


# [ѱ] CYRILLIC SMALL LETTER PSI
u+0471:
    ........
    ........
    ........
    ...@....
    ...@....
    ...@....
    @..@.@@.
    @@.@.@@.
    @@.@.@@.
    @@.@.@@.
    @@.@.@@.
    @@.@.@@.
    .@@@@@..
    ...@....
    ...@....
    ...@....


# [Ѳ] CYRILLIC CAPITAL LETTER FITA
u+0472:
    ........
    ........
    ........
    .@@@@@..
    @@...@@.
    @@...@@.
    @@...@@.
    @@@@@@@.
    @@...@@.
    @@...@@.
    @@...@@.
    @@...@@.
    .@@@@@..
    ........
    ........
    ........


# [ѳ] CYRILLIC SMALL LETTER FITA
u+0473:
    ........
    ........
    ........
    ........
    ........
    ........
    .@@@@@..
    @@...@@.
    @@...@@.
    @@@@@@@.
    @@...@@.
    @@...@@.
    .@@@@@..
    ........
    ........
    ........


# [Ѵ] CYRILLIC CAPITAL LETTER IZHITSA
u+0474:
    ........
    ........
    ........
    @@....@.
    @@...@@.
    @@...@@.
    @@...@..
    @@..@@..
    .@@.@@..
    .@@.@...
    .@@@@...
    ..@@@...
    ..@@....
    ........
    ........
    ........


# [ѵ] CYRILLIC SMALL LETTER IZHITSA
u+0475:
    ........
    ........
    ........
    ........
    ........
    ........
    @@....@.
    @@...@@.
    .@@..@..
    .@@.@@..
    ..@@@...
    ..@@@...
    ...@....
    ........
    ........
    ........


# [Ѷ] CYRILLIC CAPITAL LETTER IZHITSA WITH DOUBLE GRAVE ACCENT
u+0476:
    ........
    @@..@@..
    .@@..@@.
    ........
    @@....@.
    @@...@@.
    @@...@..
    @@...@..
    .@@.@@..
    .@@.@...
    .@@@@...
    ..@@@...
    ..@@....
    ........
    ........
    ........


# [ѷ] CYRILLIC SMALL LETTER IZHITSA WITH DOUBLE GRAVE ACCENT
u+0477:
    ........
    ........
    ........
    @@..@@..
    .@@..@@.
    ........
    @@....@.
    @@...@@.
    .@@..@..
    .@@.@@..
    ..@@@...
    ..@@@...
    ...@....
    ........
    ........
    ........


# [Ѹ] CYRILLIC CAPITAL LETTER UK
u+0478:
    ........
    ........
    ........
    .@@@....
    @@.@@...
    @@.@@...
    @@.@@.@@
    @@.@@.@@
    @@.@@.@@
    @@.@@.@@
    @@.@@.@@
    @@.@@.@@
    .@@.@@@@
    ......@@
    .....@@.
    ...@@@..


# [ѹ] CYRILLIC SMALL LETTER UK
u+0479:
    ........
    ........
    ........
    ........
    ........
    ........
    .@@@..@@
    @@.@@.@@
    @@.@@.@@
    @@.@@.@@
    @@.@@.@@
    @@.@@.@@
    .@@.@@@@
    ......@@
    .....@@.
    ...@@@..


# [Ѻ] CYRILLIC CAPITAL LETTER ROUND OMEGA
u+047a:
    ........
    ........
    ...@....
    .@@@@@..
    @@.@.@@.
    @@...@@.
    @@...@@.
    @@...@@.
    @@...@@.
    @@...@@.
    @@...@@.
    @@.@.@@.
    .@@@@@..
    ...@....
    ........
    ........


# [ѻ] CYRILLIC SMALL LETTER ROUND OMEGA
u+047b:
    ........
    ........
    ........
    ........
    ........
    ...@....
    .@@@@@..
    @@.@.@@.
    @@...@@.
    @@...@@.
    @@...@@.
    @@.@.@@.
    .@@@@@..
    ...@....
    ........
    ........


# modified
# [Ѽ] CYRILLIC CAPITAL LETTER OMEGA WITH TITLO
u+047c:
    .....@..
    .@@@@@..
    .@......
    ........
    .@@.@@..
    @@...@@.
    @@...@@.
    @@.@.@@.
    @@.@.@@.
    @@.@.@@.
    @@.@.@@.
    @@@@@@@.
    .@@.@@..
    ........
    ........
    ........


# [ѽ] CYRILLIC SMALL LETTER OMEGA WITH TITLO
u+047d:
    ........
    ........
    .....@..
    .@@@@@..
    .@......
    ........
    .@@.@@..
    @@...@@.
    @@.@.@@.
    @@.@.@@.
    @@.@.@@.
    @@@@@@@.
    .@@.@@..
    ........
    ........
    ........


# [Ѿ] CYRILLIC CAPITAL LETTER OT
u+047e:
    ........
    .@@@@@..
    .@.@.@..
    ........
    .@@.@@..
    @@...@@.
    @@...@@.
    @@.@.@@.
    @@.@.@@.
    @@.@.@@.
    @@.@.@@.
    @@@@@@@.
    .@@.@@..
    ........
    ........
    ........


# [ѿ] CYRILLIC SMALL LETTER OT
u+047f:
    ........
    ........
    ........
    .@@@@@..
    .@.@.@..
    ........
    .@@.@@..
    @@...@@.
    @@.@.@@.
    @@.@.@@.
    @@.@.@@.
    @@@@@@@.
    .@@.@@..
    ........
    ........
    ........


# [Ҁ] CYRILLIC CAPITAL LETTER KOPPA
u+0480:
    ........
    ........
    ........
    ..@@@@..
    .@@..@@.
    @@....@.
    @@......
    @@......
    @@......
    @@......
    @@......
    .@@.....
    ..@@@@..
    ....@@..
    ....@@..
    ....@@..


# [ҁ] CYRILLIC SMALL LETTER KOPPA
u+0481:
    ........
    ........
    ........
    ........
    ........
    ........
    .@@@@@..
    @@...@@.
    @@......
    @@......
    @@......
    @@......
    .@@@@...
    ...@@...
    ...@@...
    ........


# [҂] CYRILLIC THOUSANDS SIGN
u+0482:
    ........
    ........
    ........
    .....@@.
    .....@@.
    ..@@@@..
    ....@@@@
    ...@@...
    ...@@...
    @@@@....
    ..@@@@..
    .@@.....
    .@@.....
    ........
    ........
    ........


# not rebaselined
# [҃] COMBINING CYRILLIC TITLO
u+0483:
    ........
    .....@..
    .@@@@@..
    .@......
    ........
    ........
    ........
    ........
    ........
    ........
    ........
    ........
    ........
    ........
    ........
    ........


# not rebaselined
# [҄] COMBINING CYRILLIC PALATALIZATION
u+0484:
    ........
    ...@@...
    ..@..@..
    .@...@..
    ........
    ........
    ........
    ........
    ........
    ........
    ........
    ........
    ........
    ........
    ........
    ........


# not rebaselined
# [҅] COMBINING CYRILLIC DASIA PNEUMATA
u+0485:
    ........
    .@......
    .@@@@@..
    .@......
    ........
    ........
    ........
    ........
    ........
    ........
    ........
    ........
    ........
    ........
    ........
    ........


# not rebaselined
# [҆] COMBINING CYRILLIC PSILI PNEUMATA
u+0486:
    ........
    .....@..
    .@@@@@..
    .....@..
    ........
    ........
    ........
    ........
    ........
    ........
    ........
    ........
    ........
    ........
    ........
    ........


# [҈] COMBINING CYRILLIC HUNDRED THOUSANDS SIGN
u+0488:
    ........
    ........
    ........
    ........
    ...@@...
    .@@..@@.
    ........
    @@....@@
    ........
    .@@..@@.
    ...@@...
    ........
    ........
    ........
    ........
    ........


# [҉] COMBINING CYRILLIC MILLIONS SIGN
u+0489:
    ........
    ........
    ........
    ....@...
    .@.@....
    .@...@@.
    ........
    @.....@.
    .@.....@
    ........
    .@@...@.
    ....@.@.
    ...@....
    ........
    ........
    ........


# modified
# [Ҋ] CYRILLIC CAPITAL LETTER SHORT I WITH TAIL
u+048a:
    .@@.@@..
    ..@@@...
    ........
    @@...@@.
    @@...@@.
    @@...@@.
    @@..@@@.
    @@.@@@@.
    @@@@@@@.
    @@@@.@@.
    @@@..@@.
    @@...@@.
    @@...@@@
    ......@@
    .......@
    ........


# [ҋ] CYRILLIC SMALL LETTER SHORT I WITH TAIL
u+048b:
    ........
    ........
    ........
    .@@.@@..
    ..@@@...
    ........
    @@...@@.
    @@..@@@.
    @@.@@@@.
    @@@@@@@.
    @@@@.@@.
    @@@..@@.
    @@...@@@
    ......@@
    .......@
    ........


# [Ҍ] CYRILLIC CAPITAL LETTER SEMISOFT SIGN
u+048c:
    ........
    ........
    .@@.....
    @@@@....
    .@@.....
    .@@.....
    .@@.....
    .@@@@@..
    .@@..@@.
    .@@..@@.
    .@@..@@.
    .@@..@@.
    @@@@@@..
    ........
    ........
    ........


# [ҍ] CYRILLIC SMALL LETTER SEMISOFT SIGN
u+048d:
    ........
    ........
    ........
    ........
    ........
    .@@.....
    @@@@....
    .@@.....
    .@@.....
    .@@@@@..
    .@@..@@.
    .@@..@@.
    @@@@@@..
    ........
    ........
    ........


# [Ҏ] CYRILLIC CAPITAL LETTER ER WITH TICK
u+048e:
    ........
    ........
    ........
    @@@@@@..
    .@@..@@.
    .@@.@@@.
    .@@..@..
    .@@@@.@.
    .@@.....
    .@@.....
    .@@.....
    .@@.....
    @@@@....
    ........
    ........
    ........


# [ҏ] CYRILLIC SMALL LETTER ER WITH TICK
u+048f:
    ........
    ........
    ........
    ........
    ........
    ........
    @@.@@@..
    .@@..@@.
    .@@..@@.
    .@@..@@.
    .@@.@@@.
    .@@..@..
    .@@@@.@.
    .@@.....
    .@@.....
    @@@@....



# [Ҧ] CYRILLIC CAPITAL LETTER PE WITH MIDDLE HOOK
u+04a6:
    ........
    ........
    ........
    @@@@@...
    @@.@@...
    @@.@@...
    @@.@@...
    @@.@@@@.
    @@.@@.@@
    @@.@@.@@
    @@.@@.@@
    @@.@@.@@
    @@.@@.@@
    ......@@
    ....@.@@
    .....@@.


# [ҧ] CYRILLIC SMALL LETTER PE WITH MIDDLE HOOK
u+04a7:
    ........
    ........
    ........
    ........
    ........
    ........
    @@.@@...
    @@.@@...
    @@.@@...
    @@@@@@@.
    @@.@@.@@
    @@.@@.@@
    @@.@@.@@
    ......@@
    ....@.@@
    .....@@.



# [Ӆ] CYRILLIC CAPITAL LETTER EL WITH TAIL
u+04c5:
    ........
    ........
    ........
    ..@@@@@.
    .@@..@@.
    .@@..@@.
    .@@..@@.
    .@@..@@.
    .@@..@@.
    .@@..@@.
    .@@..@@.
    .@@..@@.
    @@...@@@
    ......@@
    .......@
    ........


# [ӆ] CYRILLIC SMALL LETTER EL WITH TAIL
u+04c6:
    ........
    ........
    ........
    ........
    ........
    ........
    ..@@@@@.
    .@@..@@.
    .@@..@@.
    .@@..@@.
    .@@..@@.
    .@@..@@.
    @@...@@@
    ......@@
    .......@
    ........




# [Ӊ] CYRILLIC CAPITAL LETTER EN WITH TAIL
u+04c9:
    ........
    ........
    ........
    @@...@@.
    @@...@@.
    @@...@@.
    @@...@@.
    @@@@@@@.
    @@...@@.
    @@...@@.
    @@...@@.
    @@...@@.
    @@...@@@
    ......@@
    .......@
    ........


# [ӊ] CYRILLIC SMALL LETTER EN WITH TAIL
u+04ca:
    ........
    ........
    ........
    ........
    ........
    ........
    @@...@@.
    @@...@@.
    @@...@@.
    @@@@@@@.
    @@...@@.
    @@...@@.
    @@...@@@
    ......@@
    .......@
    ........


# [Ӎ] CYRILLIC CAPITAL LETTER EM WITH TAIL
u+04cd:
    ........
    ........
    ........
    @@...@@.
    @@@.@@@.
    @@@@@@@.
    @@@@@@@.
    @@.@.@@.
    @@...@@.
    @@...@@.
    @@...@@.
    @@...@@.
    @@...@@@
    ......@@
    .......@
    ........


# [ӎ] CYRILLIC SMALL LETTER EM WITH TAIL
u+04ce:
    ........
    ........
    ........
    ........
    ........
    ........
    @@...@@.
    @@@.@@@.
    @@@@@@@.
    @@@@@@@.
    @@.@.@@.
    @@...@@.
    @@...@@@
    ......@@
    .......@
    ........



# [Ӭ] CYRILLIC CAPITAL LETTER E WITH DIAERESIS
u+04ec:
    ........
    .@@.@@..
    .@@.@@..
    ........
    .@@@@...
    @@..@@..
    @....@@.
    .....@@.
    ..@@@@@.
    .....@@.
    @....@@.
    @@..@@..
    .@@@@...
    ........
    ........
    ........


# [ӭ] CYRILLIC SMALL LETTER E WITH DIAERESIS
u+04ed:
    ........
    ........
    ........
    .@@.@@..
    .@@.@@..
    ........
    .@@@@@..
    @@...@@.
    .....@@.
    ..@@@@@.
    .....@@.
    @@...@@.
    .@@@@@..
    ........
    ........
    ........


# [Ԁ] CYRILLIC CAPITAL LETTER KOMI DE
u+0500:
    ........
    ........
    ........
    ...@@@@.
    ....@@..
    ....@@..
    ....@@..
    .@@@@@..
    @@..@@..
    @@..@@..
    @@..@@..
    @@..@@..
    .@@@@@@.
    ........
    ........
    ........


# [ԁ] CYRILLIC SMALL LETTER KOMI DE
u+0501:
    ........
    ........
    ........
    ...@@@..
    ....@@..
    ....@@..
    ..@@@@..
    .@@.@@..
    @@..@@..
    @@..@@..
    @@..@@..
    @@..@@..
    .@@@.@@.
    ........
    ........
    ........


# [Ԃ] CYRILLIC CAPITAL LETTER KOMI DJE
u+0502:
    ........
    ........
    ........
    ...@@@@.
    ....@@..
    ....@@..
    ....@@..
    .@@@@@..
    @@..@@.@
    @@..@@.@
    @@..@@.@
    @@..@@.@
    .@@@.@@.
    ........
    ........
    ........


# [ԃ] CYRILLIC SMALL LETTER KOMI DJE
u+0503:
    ........
    ........
    ........
    ...@@@..
    ....@@..
    ....@@..
    ..@@@@..
    .@@.@@..
    @@..@@..
    @@..@@.@
    @@..@@.@
    @@..@@.@
    .@@@.@@.
    ........
    ........
    ........


# [Ԅ] CYRILLIC CAPITAL LETTER KOMI ZJE
u+0504:
    ........
    ........
    ........
    .@@@@...
    @@..@@..
    @...@@..
    ....@@..
    ..@@@...
    ....@@.@
    ....@@.@
    ....@@.@
    ....@@.@
    .....@@.
    ........
    ........
    ........


# [ԅ] CYRILLIC SMALL LETTER KOMI ZJE
u+0505:
    ........
    ........
    ........
    ........
    ........
    ........
    .@@@@...
    @@..@@..
    ....@@..
    ..@@@..@
    ....@@.@
    ....@@.@
    .....@@.
    ........
    ........
    ........


# [Ԇ] CYRILLIC CAPITAL LETTER KOMI DZJE
u+0506:
    ........
    ........
    ........
    .@@@@@..
    @@...@@.
    @....@@.
    .....@@.
    ..@@@@..
    .....@@.
    .....@@.
    .....@@.
    .....@@.
    .....@@@
    ......@@
    .......@
    ........


# [ԇ] CYRILLIC SMALL LETTER KOMI DZJE
u+0507:
    ........
    ........
    ........
    ........
    ........
    ........
    .@@@@@..
    @@...@@.
    .....@@.
    ..@@@@..
    .....@@.
    .....@@.
    .....@@@
    ......@@
    .......@
    ........


# [Ԉ] CYRILLIC CAPITAL LETTER KOMI LJE
u+0508:
    ........
    ........
    ........
    ..@@@@..
    .@@.@@..
    .@@.@@..
    .@@.@@..
    .@@.@@..
    .@@.@@.@
    .@@.@@.@
    .@@.@@.@
    .@@.@@.@
    @@...@@.
    ........
    ........
    ........


# [ԉ] CYRILLIC SMALL LETTER KOMI LJE
u+0509:
    ........
    ........
    ........
    ........
    ........
    ........
    ..@@@@..
    .@@.@@..
    .@@.@@..
    .@@.@@.@
    .@@.@@.@
    .@@.@@.@
    @@...@@.
    ........
    ........
    ........


# [Ԋ] CYRILLIC CAPITAL LETTER KOMI NJE
u+050a:
    ........
    ........
    ........
    @@..@@..
    @@..@@..
    @@..@@..
    @@..@@..
    @@@@@@..
    @@..@@.@
    @@..@@.@
    @@..@@.@
    @@..@@.@
    @@...@@.
    ........
    ........
    ........


# [ԋ] CYRILLIC SMALL LETTER KOMI NJE
u+050b:
    ........
    ........
    ........
    ........
    ........
    ........
    @@..@@..
    @@..@@..
    @@..@@..
    @@@@@@.@
    @@..@@.@
    @@..@@.@
    @@...@@.
    ........
    ........
    ........


# [Ԍ] CYRILLIC CAPITAL LETTER KOMI SJE
u+050c:
    ........
    ........
    ........
    ..@@@@..
    .@@..@@.
    @@....@.
    @@......
    @@......
    @@..@@@.
    @@...@@.
    @@...@@.
    .@@..@@.
    ..@@@@..
    ........
    ........
    ........


# [ԍ] CYRILLIC SMALL LETTER KOMI SJE
u+050d:
    ........
    ........
    ........
    ........
    ........
    ........
    .@@@@@..
    @@...@@.
    @@......
    @@..@@@.
    @@...@@.
    @@...@@.
    .@@@@@..
    ........
    ........
    ........


# [Ԏ] CYRILLIC CAPITAL LETTER KOMI TJE
u+050e:
    ........
    ........
    ........
    .@@@@@@.
    .@@@@@@.
    .@.@@.@.
    ...@@...
    ...@@...
    ...@@.@@
    ...@@.@@
    ...@@.@@
    ...@@.@@
    ....@@@.
    ........
    ........
    ........


# [ԏ] CYRILLIC SMALL LETTER KOMI TJE
u+050f:
    ........
    ........
    ........
    ........
    ........
    ........
    .@@@@@@.
    .@.@@.@.
    ...@@...
    ...@@.@@
    ...@@.@@
    ...@@.@@
    ....@@@.
    ........
    ........
    ........


# uni-vga
# [ՙ] ARMENIAN MODIFIER LETTER LEFT HALF RING
u+0559:
    ........
    ...@@...
    ..@@....
    ..@@....
    ...@@...
    ........
    ........
    ........
    ........
    ........
    ........
    ........
    ........
    ........
    ........
    ........

# uni-vga
# [՟] ARMENIAN ABBREVIATION MARK
u+055f:
    ........
    .@@@....
    .@@.....
    ..@@@@@.
    ........
    ........
    ........
    ........
    ........
    ........
    ........
    ........
    ........
    ........
    ........
    ........


# uni-vga, rebaselined
# [և] ARMENIAN SMALL LIGATURE ECH YIWN
u+0587:
    ........
    ........
    ........
    @@......
    @@......
    @@......
    @@......
    @@......
    @@..@@..
    @@..@@..
    @@..@@..
    @@..@@..
    .@@@.@@@
    ........
    ........
    ........


# uni-vga, rebaselined
# [։] ARMENIAN FULL STOP
u+0589:
    ........
    ........
    ........
    ........
    ........
    ........
    ...@@...
    ...@@...
    ........
    ........
    ........
    ...@@...
    ...@@...
    ........
    ........
    ........


# uni-vga under u+0530
# U+058E LEFT-FACING ARMENIAN ETERNITY SIGN
u+058e:
    ........
    ........
    ........
    ........
    ...@@...
    .@@..@..
    @..@.@..
    @.@@@.@.
    .@.@..@.
    .@..@@..
    ..@@....
    ........
    ........
    ........
    ........
    ........


# [֑] HEBREW ACCENT ETNAHTA
u+0591:
    ........
    ........
    ........
    ........
    ........
    ........
    ........
    ........
    ........
    ........
    ........
    ........
    ...@....
    ...@....
    ..@@@...
    .@@.@@..


# [֒] HEBREW ACCENT SEGOL
u+0592:
    ...@@...
    ........
    .@@..@@.
    ........
    ........
    ........
    ........
    ........
    ........
    ........
    ........
    ........
    ........
    ........
    ........
    ........


# [֓] HEBREW ACCENT SHALSHELET
u+0593:
    ....@...
    ..@@@...
    ...@....
    ..@@@...
    ..@.....
    ........
    ........
    ........
    ........
    ........
    ........
    ........
    ........
    ........
    ........
    ........


# [֔] HEBREW ACCENT ZAQEF QATAN
u+0594:
    ...@@...
    ........
    ...@@...
    ........
    ........
    ........
    ........
    ........
    ........
    ........
    ........
    ........
    ........
    ........
    ........
    ........


# [֕] HEBREW ACCENT ZAQEF GADOL
u+0595:
    .@@.@@..
    .@@.....
    .@@.@@..
    ........
    ........
    ........
    ........
    ........
    ........
    ........
    ........
    ........
    ........
    ........
    ........
    ........


# [֖] HEBREW ACCENT TIPEHA
u+0596:
    ........
    ........
    ........
    ........
    ........
    ........
    ........
    ........
    ........
    ........
    ........
    ........
    ...@....
    ...@@...
    ....@@..
    ........


# [֗] HEBREW ACCENT REVIA
u+0597:
    ...@....
    ..@@@...
    ...@....
    ........
    ........
    ........
    ........
    ........
    ........
    ........
    ........
    ........
    ........
    ........
    ........
    ........


# [֘] HEBREW ACCENT ZARQA
u+0598:
    .@@@.@..
    @@.@.@@.
    .@.@@@..
    ........
    ........
    ........
    ........
    ........
    ........
    ........
    ........
    ........
    ........
    ........
    ........
    ........


# [֙] HEBREW ACCENT PASHTA
u+0599:
    @@......
    .@@.....
    ..@.....
    ........
    ........
    ........
    ........
    ........
    ........
    ........
    ........
    ........
    ........
    ........
    ........
    ........


# [֚] HEBREW ACCENT YETIV
u+059a:
    ........
    ........
    ........
    ........
    ........
    ........
    ........
    ........
    ........
    ........
    ........
    ........
    ......@@
    .....@@.
    ......@@
    ........


# [֛] HEBREW ACCENT TEVIR
u+059b:
    ........
    ........
    ........
    ........
    ........
    ........
    ........
    ........
    ........
    ........
    ........
    ........
    ..@.@...
    ...@@...
    ..@@....
    ........


# [֜] HEBREW ACCENT GERESH
u+059c:
    ....@@..
    ...@@...
    ...@....
    ........
    ........
    ........
    ........
    ........
    ........
    ........
    ........
    ........
    ........
    ........
    ........
    ........


# [֝] HEBREW ACCENT GERESH MUQDAM
u+059d:
    ......@@
    .....@@.
    .....@..
    ........
    ........
    ........
    ........
    ........
    ........
    ........
    ........
    ........
    ........
    ........
    ........
    ........


# [֞] HEBREW ACCENT GERSHAYIM
u+059e:
    ...@@.@@
    ..@@.@@.
    ..@..@..
    ........
    ........
    ........
    ........
    ........
    ........
    ........
    ........
    ........
    ........
    ........
    ........
    ........


# [֟] HEBREW ACCENT QARNEY PARA
u+059f:
    .@...@..
    @.@.@.@.
    .@@.@@..
    ..@.@...
    ........
    ........
    ........
    ........
    ........
    ........
    ........
    ........
    ........
    ........
    ........
    ........


# [֠] HEBREW ACCENT TELISHA GEDOLA
u+05a0:
    .....@..
    ....@.@.
    ....@@..
    ....@...
    ........
    ........
    ........
    ........
    ........
    ........
    ........
    ........
    ........
    ........
    ........
    ........


# [֡] HEBREW ACCENT PAZER
u+05a1:
    .@......
    .@.@....
    @@@.....
    @.......
    ........
    ........
    ........
    ........
    ........
    ........
    ........
    ........
    ........
    ........
    ........
    ........


# [֣] HEBREW ACCENT MUNAH
u+05a3:
    ........
    ........
    ........
    ........
    ........
    ........
    ........
    ........
    ........
    ........
    ........
    ........
    ....@@..
    ....@@..
    ..@@@@..
    ........


# [֤] HEBREW ACCENT MAHAPAKH
u+05a4:
    ........
    ........
    ........
    ........
    ........
    ........
    ........
    ........
    ........
    ........
    ........
    ........
    ...@@...
    ..@@....
    ...@@...
    ........


# [֥] HEBREW ACCENT MERKHA
u+05a5:
    ........
    ........
    ........
    ........
    ........
    ........
    ........
    ........
    ........
    ........
    ........
    ........
    ...@....
    ..@@....
    .@@.....
    ........


# [֦] HEBREW ACCENT MERKHA KEFULA
u+05a6:
    ........
    ........
    ........
    ........
    ........
    ........
    ........
    ........
    ........
    ........
    ........
    ........
    ..@..@..
    .@@.@@..
    @@.@@...
    ........


# [֧] HEBREW ACCENT DARGA
u+05a7:
    ........
    ........
    ........
    ........
    ........
    ........
    ........
    ........
    ........
    ........
    ........
    ........
    ...@@...
    ..@@....
    ....@...
    ..@@....


# [֨] HEBREW ACCENT QADMA
u+05a8:
    .@@.....
    ..@@....
    ...@....
    ........
    ........
    ........
    ........
    ........
    ........
    ........
    ........
    ........
    ........
    ........
    ........
    ........


# [֩] HEBREW ACCENT TELISHA QETANA
u+05a9:
    .@......
    @.@.....
    .@@.....
    ..@.....
    ........
    ........
    ........
    ........
    ........
    ........
    ........
    ........
    ........
    ........
    ........
    ........


# [֪] HEBREW ACCENT YERAH BEN YOMO
u+05aa:
    ........
    ........
    ........
    ........
    ........
    ........
    ........
    ........
    ........
    ........
    ........
    ........
    .@@.@@..
    ..@@@...
    ...@....
    ...@....


# [֫] HEBREW ACCENT OLE
u+05ab:
    ...@@...
    ..@@....
    ...@@...
    ........
    ........
    ........
    ........
    ........
    ........
    ........
    ........
    ........
    ........
    ........
    ........
    ........


# [֬] HEBREW ACCENT ILUY
u+05ac:
    ....@@..
    ....@@..
    ..@@@@..
    ........
    ........
    ........
    ........
    ........
    ........
    ........
    ........
    ........
    ........
    ........
    ........
    ........


# [֭] HEBREW ACCENT DEHI
u+05ad:
    ........
    ........
    ........
    ........
    ........
    ........
    ........
    ........
    ........
    ........
    ........
    ........
    .....@..
    .....@@.
    ......@@
    ........


# [֮] HEBREW ACCENT ZINOR
u+05ae:
    .@..@...
    @.@.@...
    @..@....
    ........
    ........
    ........
    ........
    ........
    ........
    ........
    ........
    ........
    ........
    ........
    ........
    ........


# [֯] HEBREW MARK MASORA CIRCLE
u+05af:
    ..@@@...
    .@@.@@..
    ..@@@...
    ........
    ........
    ........
    ........
    ........
    ........
    ........
    ........
    ........
    ........
    ........
    ........
    ........


# [ְ] HEBREW POINT SHEVA
u+05b0:
    ........
    ........
    ........
    ........
    ........
    ........
    ........
    ........
    ........
    ........
    ........
    ........
    ...@@...
    ........
    ...@@...
    ........


# [ֱ] HEBREW POINT HATAF SEGOL
u+05b1:
    ........
    ........
    ........
    ........
    ........
    ........
    ........
    ........
    ........
    ........
    ........
    ........
    @@.@@.@@
    ........
    ..@@..@@
    ........


# [ֲ] HEBREW POINT HATAF PATAH
u+05b2:
    ........
    ........
    ........
    ........
    ........
    ........
    ........
    ........
    ........
    ........
    ........
    ........
    @@@@.@@.
    ........
    .....@@.
    ........


# [ֳ] HEBREW POINT HATAF QAMATS
u+05b3:
    ........
    ........
    ........
    ........
    ........
    ........
    ........
    ........
    ........
    ........
    ........
    ........
    @@@@.@@.
    .@@.....
    .@@..@@.
    ........


# [ִ] HEBREW POINT HIRIQ
u+05b4:
    ........
    ........
    ........
    ........
    ........
    ........
    ........
    ........
    ........
    ........
    ........
    ........
    ...@@...
    ........
    ........
    ........


# [ֵ] HEBREW POINT TSERE
u+05b5:
    ........
    ........
    ........
    ........
    ........
    ........
    ........
    ........
    ........
    ........
    ........
    ........
    .@@..@@.
    ........
    ........
    ........


# [ֶ] HEBREW POINT SEGOL
u+05b6:
    ........
    ........
    ........
    ........
    ........
    ........
    ........
    ........
    ........
    ........
    ........
    ........
    .@@..@@.
    ........
    ...@@...
    ........


# [ַ] HEBREW POINT PATAH
u+05b7:
    ........
    ........
    ........
    ........
    ........
    ........
    ........
    ........
    ........
    ........
    ........
    ........
    ........
    .@@@@@@.
    ........
    ........


# [ָ] HEBREW POINT QAMATS
u+05b8:
    ........
    ........
    ........
    ........
    ........
    ........
    ........
    ........
    ........
    ........
    ........
    ........
    ........
    .@@@@@@.
    ...@@...
    ...@@...


# [ֹ] HEBREW POINT HOLAM
u+05b9:
    ........
    .@@.....
    .@@.....
    ........
    ........
    ........
    ........
    ........
    ........
    ........
    ........
    ........
    ........
    ........
    ........
    ........


# [ֻ] HEBREW POINT QUBUTS
u+05bb:
    ........
    ........
    ........
    ........
    ........
    ........
    ........
    ........
    ........
    ........
    ........
    ........
    @@......
    ...@@...
    ......@@
    ........


# [ּ] HEBREW POINT DAGESH OR MAPIQ
u+05bc:
    ........
    ........
    ........
    ........
    ........
    ........
    ........
    ...@@...
    ...@@...
    ........
    ........
    ........
    ........
    ........
    ........
    ........


# [ֽ] HEBREW POINT METEG
u+05bd:
    ........
    ........
    ........
    ........
    ........
    ........
    ........
    ........
    ........
    ........
    ........
    ........
    ........
    ...@@...
    ...@@...
    ...@@...


# [־] HEBREW PUNCTUATION MAQAF
u+05be:
    ........
    ........
    ........
    .@@@@@@.
    @@@@@@..
    ........
    ........
    ........
    ........
    ........
    ........
    ........
    ........
    ........
    ........
    ........


# [ֿ] HEBREW POINT RAFE
u+05bf:
    ........
    ........
    .@@@@@..
    ........
    ........
    ........
    ........
    ........
    ........
    ........
    ........
    ........
    ........
    ........
    ........
    ........


# [׀] HEBREW PUNCTUATION PASEQ
u+05c0:
    ........
    ........
    ........
    ........
    ...@@...
    ...@@...
    ...@@...
    ...@@...
    ...@@...
    ...@@...
    ...@@...
    ...@@...
    ........
    ........
    ........
    ........


# [ׁ] HEBREW POINT SHIN DOT
u+05c1:
    ........
    .....@@.
    .....@@.
    ........
    ........
    ........
    ........
    ........
    ........
    ........
    ........
    ........
    ........
    ........
    ........
    ........


# [ׂ] HEBREW POINT SIN DOT
u+05c2:
    ........
    @@......
    @@......
    ........
    ........
    ........
    ........
    ........
    ........
    ........
    ........
    ........
    ........
    ........
    ........
    ........


# [׃] HEBREW PUNCTUATION SOF PASUQ
u+05c3:
    ........
    ........
    ........
    ........
    ...@@...
    ...@@...
    ........
    ........
    ........
    ........
    ...@@...
    ...@@...
    ........
    ........
    ........
    ........


# [ׄ] HEBREW MARK UPPER DOT
u+05c4:
    ........
    ...@@...
    ...@@...
    ........
    ........
    ........
    ........
    ........
    ........
    ........
    ........
    ........
    ........
    ........
    ........
    ........


# uni-vga, rebaselined
# [װ] HEBREW LIGATURE YIDDISH DOUBLE VAV
u+05f0:
    ........
    ........
    ........
    ........
    ........
    @@..@@..
    .@@..@@.
    .@@..@@.
    .@@..@@.
    .@@..@@.
    .@@..@@.
    .@@..@@.
    .@@..@@.
    ........
    ........
    ........


# uni-vga, rebaselined
# [ױ] HEBREW LIGATURE YIDDISH VAV YOD
u+05f1:
    ........
    ........
    ........
    ........
    ........
    @@..@@..
    .@@..@@.
    .@@..@@.
    .@@..@@.
    @@...@@.
    .....@@.
    .....@@.
    .....@@.
    ........
    ........
    ........


# uni-vga, rebaselined
# [ײ] HEBREW LIGATURE YIDDISH DOUBLE YOD
u+05f2:
    ........
    ........
    ........
    ........
    ........
    @@..@@..
    .@@..@@.
    .@@..@@.
    .@@..@@.
    @@..@@..
    ........
    ........
    ........
    ........
    ........
    ........


# uni-vga
# [׳] HEBREW PUNCTUATION GERESH
u+05f3:
    ........
    ........
    ....@@..
    ...@@...
    ........
    ........
    ........
    ........
    ........
    ........
    ........
    ........
    ........
    ........
    ........
    ........


# uni-vga
# [״] HEBREW PUNCTUATION GERSHAYIM
u+05f4:
    ........
    ........
    .@@..@@.
    @@..@@..
    ........
    ........
    ........
    ........
    ........
    ........
    ........
    ........
    ........
    ........
    ........
    ........

# [ء] ARABIC LETTER HAMZA
u+0621:
    ........
    ........
    ........
    ........
    ...@@...
    ..@..@..
    ..@.....
    ...@@@@.
    ..@.....
    ........
    ........
    ........
    ........
    ........
    ........
    ........


# [آ] ARABIC LETTER ALEF WITH MADDA ABOVE
u+0622:
    ......@.
    ..@@@@..
    .@......
    ...@....
    ...@....
    ...@....
    ...@....
    ...@....
    ...@....
    ........
    ........
    ........
    ........
    ........
    ........
    ........


# [أ] ARABIC LETTER ALEF WITH HAMZA ABOVE
u+0623:
    ...@@...
    ..@.....
    ...@@@..
    ..@.....
    ....@...
    ....@...
    ....@...
    ....@...
    ....@...
    ........
    ........
    ........
    ........
    ........
    ........
    ........


# [ؤ] ARABIC LETTER WAW WITH HAMZA ABOVE
u+0624:
    ........
    ...@@@..
    ..@.....
    ...@@@..
    ..@.....
    ....@@..
    ...@..@.
    ....@@@.
    ......@.
    .....@..
    ...@@...
    .@@.....
    ........
    ........
    ........
    ........


# [إ] ARABIC LETTER ALEF WITH HAMZA BELOW
u+0625:
    ........
    ........
    ........
    ....@...
    ....@...
    ....@...
    ....@...
    ....@...
    ....@...
    ........
    ...@@...
    ..@.....
    ...@@@..
    ..@.....
    ........
    ........


# [ئ] ARABIC LETTER YEH WITH HAMZA ABOVE
u+0626:
    ........
    ..@@....
    .@......
    ..@@@...
    .@......
    .....@@@
    ....@...
    @...@...
    @....@@.
    @......@
    @.....@.
    .@@@@@..
    ........
    ........
    ........
    ........


# [ا] ARABIC LETTER ALEF
u+0627:
    ........
    ........
    ........
    ....@...
    ....@...
    ....@...
    ....@...
    ....@...
    ....@...
    ........
    ........
    ........
    ........
    ........
    ........
    ........


# [ب] ARABIC LETTER BEH
u+0628:
    ........
    ........
    ........
    ........
    ........
    .@......
    @......@
    @......@
    .@@@@@@.
    ........
    ........
    ....@...
    ........
    ........
    ........
    ........


# [ة] ARABIC LETTER TEH MARBUTA
u+0629:
    ........
    ..@.@...
    ........
    ........
    ...@@...
    ..@..@..
    ..@...@.
    ..@...@.
    ...@@@..
    ........
    ........
    ........
    ........
    ........
    ........
    ........


# [ت] ARABIC LETTER TEH
u+062a:
    ........
    ........
    ........
    ........
    ...@.@..
    .@......
    @......@
    @......@
    .@@@@@@.
    ........
    ........
    ........
    ........
    ........
    ........
    ........


# [ث] ARABIC LETTER THEH
u+062b:
    ........
    ....@...
    ........
    ...@.@..
    ........
    .@......
    @......@
    @......@
    .@@@@@@.
    ........
    ........
    ........
    ........
    ........
    ........
    ........


# [ج] ARABIC LETTER JEEM
u+062c:
    ........
    ........
    ........
    ........
    .@@@....
    @...@@@@
    ..@@....
    .@......
    @.......
    @...@...
    @.......
    .@.....@
    ..@@@@@.
    ........
    ........
    ........


# [ح] ARABIC LETTER HAH
u+062d:
    ........
    ........
    ........
    ........
    .@@@....
    @...@@@@
    ..@@....
    .@......
    @.......
    @.......
    @.......
    .@.....@
    ..@@@@@.
    ........
    ........
    ........


# [خ] ARABIC LETTER KHAH
u+062e:
    ........
    ..@.....
    ........
    ........
    .@@@....
    @...@@@@
    ..@@....
    .@......
    @.......
    @.......
    @.......
    .@.....@
    ..@@@@@.
    ........
    ........
    ........


# [د] ARABIC LETTER DAL
u+062f:
    ........
    ........
    ........
    ........
    ....@...
    .....@..
    ......@.
    .@....@.
    ..@@@@..
    ........
    ........
    ........
    ........
    ........
    ........
    ........


# [ذ] ARABIC LETTER THAL
u+0630:
    ........
    ........
    ...@....
    ........
    ....@...
    .....@..
    ......@.
    .@....@.
    ..@@@@..
    ........
    ........
    ........
    ........
    ........
    ........
    ........


# [ر] ARABIC LETTER REH
u+0631:
    ........
    ........
    ........
    ........
    ........
    .....@..
    ......@.
    ......@.
    .....@..
    ...@@...
    .@@.....
    ........
    ........
    ........
    ........
    ........


# [ز] ARABIC LETTER ZAIN
u+0632:
    ........
    ........
    ....@...
    ........
    ........
    .....@..
    ......@.
    ......@.
    .....@..
    ...@@...
    .@@.....
    ........
    ........
    ........
    ........
    ........


# [س] ARABIC LETTER SEEN
u+0633:
    ........
    ........
    ........
    ........
    ........
    .......@
    ...@.@.@
    @...@...
    @....@..
    @....@..
    .@@@@...
    ........
    ........
    ........
    ........
    ........


# [ش] ARABIC LETTER SHEEN
u+0634:
    ........
    ....@...
    ........
    ...@.@..
    ........
    .......@
    ...@.@.@
    @...@...
    @....@..
    @....@..
    .@@@@...
    ........
    ........
    ........
    ........
    ........


# [ص] ARABIC LETTER SAD
u+0635:
    ........
    ........
    ........
    ........
    .....@@.
    ....@..@
    ..@@...@
    @..@@@@.
    @...@...
    @...@...
    .@@@....
    ........
    ........
    ........
    ........
    ........


# [ض] ARABIC LETTER DAD
u+0636:
    ........
    ........
    .....@..
    ........
    .....@@.
    ....@..@
    ..@@...@
    @..@@@@.
    @...@...
    @...@...
    .@@@....
    ........
    ........
    ........
    ........
    ........


# [ط] ARABIC LETTER TAH
u+0637:
    ........
    ........
    ..@.....
    ..@.....
    ..@.....
    ..@.@@..
    ..@@..@.
    @.@...@.
    .@@@@@..
    ........
    ........
    ........
    ........
    ........
    ........
    ........


# [ظ] ARABIC LETTER ZAH
u+0638:
    ........
    ........
    ..@..@..
    ..@.....
    ..@.....
    ..@.@@..
    ..@@..@.
    @.@...@.
    .@@@@@..
    ........
    ........
    ........
    ........
    ........
    ........
    ........


# [ع] ARABIC LETTER AIN
u+0639:
    ........
    ........
    ........
    ........
    .@@@....
    @.......
    @...@@..
    .@@@....
    .@......
    @.......
    @.......
    @.......
    .@.....@
    ..@@@@@.
    ........
    ........


# [غ] ARABIC LETTER GHAIN
u+063a:
    ........
    .@......
    ........
    ........
    .@@@....
    @.......
    @...@@..
    .@@@....
    .@......
    @.......
    @.......
    @.......
    .@.....@
    ..@@@@@.
    ........
    ........


# [ـ] ARABIC TATWEEL
u+0640:
    ........
    ........
    ........
    ........
    ........
    ........
    ........
    ........
    @@@@@@@@
    ........
    ........
    ........
    ........
    ........
    ........
    ........


# [ف] ARABIC LETTER FEH
u+0641:
    ........
    ........
    .....@..
    ........
    .....@@.
    .@..@..@
    @....@.@
    @.....@@
    .@@@@@@.
    ........
    ........
    ........
    ........
    ........
    ........
    ........


# [ق] ARABIC LETTER QAF
u+0642:
    ........
    ........
    ....@.@.
    ........
    .....@@.
    ....@..@
    ....@..@
    .@...@@@
    @......@
    @......@
    @......@
    .@....@.
    ..@@@@..
    ........
    ........
    ........


# [ك] ARABIC LETTER KAF
u+0643:
    ........
    ........
    ...@@..@
    ..@....@
    ...@@..@
    ..@....@
    .......@
    @......@
    .@@@@@@.
    ........
    ........
    ........
    ........
    ........
    ........
    ........


# [ل] ARABIC LETTER LAM
u+0644:
    ........
    ......@.
    ......@.
    ......@.
    ......@.
    ......@.
    .@....@.
    @.....@.
    @.....@.
    @....@..
    .@@@@...
    ........
    ........
    ........
    ........
    ........


# [م] ARABIC LETTER MEEM
u+0645:
    ........
    ........
    ........
    ........
    ....@@..
    ...@..@.
    ...@..@.
    ..@@@@..
    .@......
    .@......
    .@......
    .@......
    .@......
    .@......
    ........
    ........


# [ن] ARABIC LETTER NOON
u+0646:
    ........
    ........
    ....@...
    ........
    ........
    .@.....@
    @......@
    @......@
    @......@
    .@....@.
    ..@@@@..
    ........
    ........
    ........
    ........
    ........


# [ه] ARABIC LETTER HEH
u+0647:
    ........
    ........
    ........
    .@......
    ..@@....
    .@..@@@.
    .@..@..@
    ..@@@..@
    @@@..@@.
    ........
    ........
    ........
    ........
    ........
    ........
    ........


# [و] ARABIC LETTER WAW
u+0648:
    ........
    ........
    ........
    ........
    ........
    ....@@..
    ...@..@.
    ....@@@.
    ......@.
    .....@..
    ...@@...
    .@@.....
    ........
    ........
    ........
    ........


# [ى] ARABIC LETTER ALEF MAKSURA
u+0649:
    ........
    ........
    ........
    ........
    ........
    .....@@@
    ....@...
    @...@...
    @....@@.
    @......@
    @......@
    .@@@@@@.
    ........
    ........
    ........
    ........


# [ي] ARABIC LETTER YEH
u+064a:
    ........
    ........
    ........
    ........
    ........
    .....@@@
    ....@...
    @...@...
    @....@@.
    @......@
    @......@
    .@@@@@@.
    ........
    ........
    ..@..@..
    ........


# [ً] ARABIC FATHATAN
u+064b:
    ....@@..
    ..@@....
    ....@@..
    ..@@....
    ........
    ........
    ........
    ........
    ........
    ........
    ........
    ........
    ........
    ........
    ........
    ........


# [ٌ] ARABIC DAMMATAN
u+064c:
    ....@@..
    ...@..@.
    @@..@.@.
    ..@.@@..
    .@@@....
    ........
    ........
    ........
    ........
    ........
    ........
    ........
    ........
    ........
    ........
    ........


# [ٍ] ARABIC KASRATAN
u+064d:
    ........
    ........
    ........
    ........
    ........
    ........
    ........
    ........
    ........
    ........
    ....@@..
    ..@@....
    ....@@..
    ..@@....
    ........
    ........


# [َ] ARABIC FATHA
u+064e:
    ....@@..
    ..@@....
    ........
    ........
    ........
    ........
    ........
    ........
    ........
    ........
    ........
    ........
    ........
    ........
    ........
    ........


# [ُ] ARABIC DAMMA
u+064f:
    ....@...
    ...@.@..
    ....@@..
    ....@...
    ...@....
    ........
    ........
    ........
    ........
    ........
    ........
    ........
    ........
    ........
    ........
    ........


# [ِ] ARABIC KASRA
u+0650:
    ........
    ........
    ........
    ........
    ........
    ........
    ........
    ........
    ........
    ........
    ........
    ........
    ....@@..
    ..@@....
    ........
    ........


# [ّ] ARABIC SHADDA
u+0651:
    ....@.@.
    ..@.@.@.
    ..@.@@..
    ...@....
    ........
    ........
    ........
    ........
    ........
    ........
    ........
    ........
    ........
    ........
    ........
    ........


# [ْ] ARABIC SUKUN
u+0652:
    ...@@...
    ..@..@..
    ...@@...
    ........
    ........
    ........
    ........
    ........
    ........
    ........
    ........
    ........
    ........
    ........
    ........
    ........


# [ٓ] ARABIC MADDAH ABOVE
u+0653:
    .......@
    .@@@@@@.
    @.......
    ........
    ........
    ........
    ........
    ........
    ........
    ........
    ........
    ........
    ........
    ........
    ........
    ........


# [ٔ] ARABIC HAMZA ABOVE
u+0654:
    ....@@..
    ...@....
    ....@@..
    ...@....
    ........
    ........
    ........
    ........
    ........
    ........
    ........
    ........
    ........
    ........
    ........
    ........


# [ٕ] ARABIC HAMZA BELOW
u+0655:
    ........
    ........
    ........
    ........
    ........
    ........
    ........
    ........
    ........
    ........
    ........
    ........
    ....@@..
    ...@....
    ....@@..
    ...@....


# [٪] ARABIC PERCENT SIGN
u+066a:
    ........
    ........
    .@@.....
    @..@...@
    @..@..@.
    .@@..@..
    ....@...
    ...@....
    ..@..@@.
    .@..@..@
    @...@..@
    .....@@.
    ........
    ........
    ........
    ........


# [٫] ARABIC DECIMAL SEPARATOR
u+066b:
    ........
    ........
    ........
    ........
    ........
    ........
    ........
    ........
    ...@@...
    ...@@...
    ..@@....
    ..@@....
    .@@.....
    .@@.....
    ........
    ........


# [٬] ARABIC THOUSANDS SEPARATOR
u+066c:
    ........
    ...@....
    ..@@@...
    ...@@...
    ...@....
    ..@.....
    ........
    ........
    ........
    ........
    ........
    ........
    ........
    ........
    ........
    ........


# [٭] ARABIC FIVE POINTED STAR
u+066d:
    ........
    ........
    ........
    ...@....
    ...@....
    ..@@@...
    @@@@@@@.
    .@@@@@..
    ..@@@...
    .@@.@@..
    .@...@..
    ........
    ........
    ........
    ........
    ........


# [ٰ] ARABIC LETTER SUPERSCRIPT ALEF
u+0670:
    ...@....
    ...@....
    ...@....
    ...@....
    ........
    ........
    ........
    ........
    ........
    ........
    ........
    ........
    ........
    ........
    ........
    ........


# [ٱ] ARABIC LETTER ALEF WASLA
u+0671:
    .....@@.
    ..@.@..@
    .@.@@@@.
    ........
    .....@..
    .....@..
    .....@..
    .....@..
    .....@..
    ........
    ........
    ........
    ........
    ........
    ........
    ........


# [ٲ] ARABIC LETTER ALEF WITH WAVY HAMZA ABOVE
u+0672:
    .....@@.
    ..@.@...
    .@.@@@@.
    ........
    .....@..
    .....@..
    .....@..
    .....@..
    .....@..
    ........
    ........
    ........
    ........
    ........
    ........
    ........


# [ٳ] ARABIC LETTER ALEF WITH WAVY HAMZA BELOW
u+0673:
    ........
    ........
    ........
    .....@..
    .....@..
    .....@..
    .....@..
    .....@..
    .....@..
    ........
    .....@@.
    ..@.@...
    .@.@@@@.
    ........
    ........
    ........


# [ٴ] ARABIC LETTER HIGH HAMZA
u+0674:
    ........
    .....@@@
    ....@...
    .....@@@
    ....@...
    ........
    ........
    ........
    ........
    ........
    ........
    ........
    ........
    ........
    ........
    ........


# [ٵ] ARABIC LETTER HIGH HAMZA ALEF
u+0675:
    ......@@
    .....@..
    ......@@
    ...@.@..
    ...@....
    ...@....
    ...@....
    ...@....
    ...@....
    ........
    ........
    ........
    ........
    ........
    ........
    ........


# [ٶ] ARABIC LETTER HIGH HAMZA WAW
u+0676:
    ......@@
    .....@..
    ......@@
    .....@..
    ........
    ....@@..
    ...@..@.
    ....@@@.
    ......@.
    .....@..
    ...@@...
    .@@.....
    ........
    ........
    ........
    ........


# [ٷ] ARABIC LETTER U WITH HAMZA ABOVE
u+0677:
    ..@...@@
    .@.@.@..
    ..@@..@@
    ..@..@..
    .@......
    ....@@..
    ...@..@.
    ....@@@.
    ......@.
    .....@..
    ...@@...
    .@@.....
    ........
    ........
    ........
    ........


# [ٸ] ARABIC LETTER HIGH HAMZA YEH
u+0678:
    ......@@
    .....@..
    ......@@
    .....@..
    ........
    .....@@@
    ....@...
    @...@...
    @....@@.
    @......@
    @......@
    .@@@@@@.
    ........
    ........
    ........
    ........


# [ٹ] ARABIC LETTER TTEH
u+0679:
    ...@....
    ...@@@..
    ...@.@..
    ..@@@...
    ........
    .@......
    @......@
    @......@
    .@@@@@@.
    ........
    ........
    ........
    ........
    ........
    ........
    ........


# [ٺ] ARABIC LETTER TTEHEH
u+067a:
    ........
    ....@...
    ........
    ....@...
    ........
    .@......
    @......@
    @......@
    .@@@@@@.
    ........
    ........
    ........
    ........
    ........
    ........
    ........


# [ٻ] ARABIC LETTER BEEH
u+067b:
    ........
    ........
    ........
    ........
    ........
    .@......
    @......@
    @......@
    .@@@@@@.
    ........
    ....@...
    ........
    ....@...
    ........
    ........
    ........


# [ټ] ARABIC LETTER TEH WITH RING
u+067c:
    ........
    ........
    ........
    ........
    ...@.@..
    .@......
    @......@
    @......@
    .@@@@@@.
    ....@...
    ...@.@..
    ....@...
    ........
    ........
    ........
    ........


# [ٽ] ARABIC LETTER TEH WITH THREE DOTS ABOVE DOWNWARDS
u+067d:
    ........
    ...@.@..
    ........
    ....@...
    ........
    .@......
    @......@
    @......@
    .@@@@@@.
    ........
    ........
    ........
    ........
    ........
    ........
    ........


# [پ] ARABIC LETTER PEH
u+067e:
    ........
    ........
    ........
    ........
    ........
    .@......
    @......@
    @......@
    .@@@@@@.
    ........
    ........
    ...@.@..
    ........
    ....@...
    ........
    ........


# [ٿ] ARABIC LETTER TEHEH
u+067f:
    ........
    ...@.@..
    ........
    ...@.@..
    ........
    .@......
    @......@
    @......@
    .@@@@@@.
    ........
    ........
    ........
    ........
    ........
    ........
    ........


# [ڀ] ARABIC LETTER BEHEH
u+0680:
    ........
    ........
    ........
    ........
    ........
    .@......
    @......@
    @......@
    .@@@@@@.
    ........
    ........
    ...@.@..
    ........
    ...@.@..
    ........
    ........


# [ځ] ARABIC LETTER HAH WITH HAMZA ABOVE
u+0681:
    .....@@.
    ....@...
    .....@@.
    ....@...
    .@@@....
    @...@@@@
    ..@@....
    .@......
    @.......
    @.......
    @.......
    .@.....@
    ..@@@@@.
    ........
    ........
    ........


# [ڂ] ARABIC LETTER HAH WITH TWO DOTS VERTICAL ABOVE
u+0682:
    ....@...
    ........
    ....@...
    ........
    .@@@....
    @...@@@@
    ..@@....
    .@......
    @.......
    @.......
    @.......
    .@.....@
    ..@@@@@.
    ........
    ........
    ........


# [ڃ] ARABIC LETTER NYEH
u+0683:
    ........
    ........
    ........
    ........
    .@@@....
    @...@@@@
    ..@@....
    .@......
    @.......
    @..@.@..
    @.......
    .@.....@
    ..@@@@@.
    ........
    ........
    ........


# [ڄ] ARABIC LETTER DYEH
u+0684:
    ........
    ........
    ........
    ........
    .@@@....
    @...@@@@
    ..@@....
    .@......
    @...@...
    @.......
    @...@...
    .@.....@
    ..@@@@@.
    ........
    ........
    ........


# [څ] ARABIC LETTER HAH WITH THREE DOTS ABOVE
u+0685:
    ....@...
    ........
    ...@.@..
    ........
    .@@@....
    @...@@@@
    ..@@....
    .@......
    @.......
    @.......
    @.......
    .@.....@
    ..@@@@@.
    ........
    ........
    ........


# [چ] ARABIC LETTER TCHEH
u+0686:
    ........
    ........
    ........
    ........
    .@@@....
    @...@@@@
    ..@@....
    .@......
    @..@.@..
    @.......
    @...@...
    .@.....@
    ..@@@@@.
    ........
    ........
    ........


# [ڇ] ARABIC LETTER TCHEHEH
u+0687:
    ........
    ........
    ........
    ........
    .@@@....
    @...@@@@
    ..@@....
    .@......
    @..@.@..
    @.......
    @..@.@..
    .@.....@
    ..@@@@@.
    ........
    ........
    ........


# [ڈ] ARABIC LETTER DDAL
u+0688:
    ..@.....
    ..@@@...
    ..@.@...
    .@@@....
    ....@...
    .....@..
    ......@.
    .@....@.
    ..@@@@..
    ........
    ........
    ........
    ........
    ........
    ........
    ........


# [ډ] ARABIC LETTER DAL WITH RING
u+0689:
    ........
    ........
    ........
    ........
    ....@...
    .....@..
    ......@.
    .@....@.
    ..@@@@..
    ....@...
    ...@.@..
    ....@...
    ........
    ........
    ........
    ........


# [ڊ] ARABIC LETTER DAL WITH DOT BELOW
u+068a:
    ........
    ........
    ........
    ........
    ....@...
    .....@..
    ......@.
    .@....@.
    ..@@@@..
    ........
    ........
    ....@...
    ........
    ........
    ........
    ........


# [ڋ] ARABIC LETTER DAL WITH DOT BELOW AND SMALL TAH
u+068b:
    ..@.....
    ..@@@...
    ..@.@...
    .@@@....
    ....@...
    .....@..
    ......@.
    .@....@.
    ..@@@@..
    ........
    ........
    ....@...
    ........
    ........
    ........
    ........


# [ڌ] ARABIC LETTER DAHAL
u+068c:
    ........
    ...@.@..
    ........
    ........
    ....@...
    .....@..
    ......@.
    .@....@.
    ..@@@@..
    ........
    ........
    ........
    ........
    ........
    ........
    ........


# [ڍ] ARABIC LETTER DDAHAL
u+068d:
    ........
    ........
    ........
    ........
    ....@...
    .....@..
    ......@.
    .@....@.
    ..@@@@..
    ........
    ........
    ...@.@..
    ........
    ........
    ........
    ........


# [ڎ] ARABIC LETTER DUL
u+068e:
    ....@...
    ........
    ...@.@..
    ........
    ....@...
    .....@..
    ......@.
    .@....@.
    ..@@@@..
    ........
    ........
    ........
    ........
    ........
    ........
    ........


# [ڏ] ARABIC LETTER DAL WITH THREE DOTS ABOVE DOWNWARDS
u+068f:
    ...@.@..
    ........
    ....@...
    ........
    ....@...
    .....@..
    ......@.
    .@....@.
    ..@@@@..
    ........
    ........
    ........
    ........
    ........
    ........
    ........


# [ڐ] ARABIC LETTER DAL WITH FOUR DOTS ABOVE
u+0690:
    ...@.@..
    ........
    ...@.@..
    ........
    ....@...
    .....@..
    ......@.
    .@....@.
    ..@@@@..
    ........
    ........
    ........
    ........
    ........
    ........
    ........


# [ڑ] ARABIC LETTER RREH
u+0691:
    ...@....
    ...@@@..
    ...@.@..
    ..@@@...
    ........
    .....@..
    ......@.
    ......@.
    .....@..
    ...@@...
    .@@.....
    ........
    ........
    ........
    ........
    ........


# [ڒ] ARABIC LETTER REH WITH SMALL V
u+0692:
    ........
    ...@.@..
    ....@...
    ........
    ........
    .....@..
    ......@.
    ......@.
    .....@..
    ...@@...
    .@@.....
    ........
    ........
    ........
    ........
    ........


# [ړ] ARABIC LETTER REH WITH RING
u+0693:
    ........
    ........
    ........
    ........
    ........
    .....@..
    ......@.
    ......@.
    .....@..
    ...@@@..
    .@@.@.@.
    .....@..
    ........
    ........
    ........
    ........


# [ڔ] ARABIC LETTER REH WITH DOT BELOW
u+0694:
    ........
    ........
    ........
    ........
    ........
    .....@..
    ......@.
    ......@.
    .....@..
    ...@@...
    .@@...@.
    ........
    ........
    ........
    ........
    ........


# [ڕ] ARABIC LETTER REH WITH SMALL V BELOW
u+0695:
    ........
    ........
    ........
    ........
    ........
    .....@..
    ......@.
    ......@.
    .....@..
    ...@@...
    .@@.....
    ........
    ...@.@..
    ....@...
    ........
    ........


# [ږ] ARABIC LETTER REH WITH DOT BELOW AND DOT ABOVE
u+0696:
    ........
    ........
    ........
    ........
    ........
    .....@..
    ......@.
    ...@..@.
    .....@..
    ...@@...
    .@@...@.
    ........
    ........
    ........
    ........
    ........


# [ڗ] ARABIC LETTER REH WITH TWO DOTS ABOVE
u+0697:
    ........
    ........
    ...@.@..
    ........
    ........
    .....@..
    ......@.
    ......@.
    .....@..
    ...@@...
    .@@.....
    ........
    ........
    ........
    ........
    ........


# [ژ] ARABIC LETTER JEH
u+0698:
    ....@...
    ........
    ...@.@..
    ........
    ........
    .....@..
    ......@.
    ......@.
    .....@..
    ...@@...
    .@@.....
    ........
    ........
    ........
    ........
    ........


# [ڙ] ARABIC LETTER REH WITH FOUR DOTS ABOVE
u+0699:
    ...@.@..
    ........
    ...@.@..
    ........
    ........
    .....@..
    ......@.
    ......@.
    .....@..
    ...@@...
    .@@.....
    ........
    ........
    ........
    ........
    ........


# [ښ] ARABIC LETTER SEEN WITH DOT BELOW AND DOT ABOVE
u+069a:
    ........
    ........
    ........
    .....@..
    ........
    .......@
    ...@.@.@
    @...@...
    @...@...
    @...@.@.
    .@@@....
    ........
    ........
    ........
    ........
    ........


# [ڛ] ARABIC LETTER SEEN WITH THREE DOTS BELOW
u+069b:
    ........
    ........
    ........
    ........
    ........
    .......@
    ...@.@.@
    @...@...
    @...@...
    @..@....
    .@@..@.@
    ........
    ......@.
    ........
    ........
    ........


# [ڜ] ARABIC LETTER SEEN WITH THREE DOTS BELOW AND THREE DOTS ABOVE
u+069c:
    ........
    .....@..
    ........
    ....@.@.
    ........
    .......@
    ...@.@.@
    @...@...
    @...@...
    @..@....
    .@@..@.@
    ........
    ......@.
    ........
    ........
    ........


# [ڝ] ARABIC LETTER SAD WITH TWO DOTS BELOW
u+069d:
    ........
    ........
    ........
    ........
    .....@@.
    ....@..@
    ..@@...@
    @..@@@@.
    @...@...
    @..@....
    .@@..@.@
    ........
    ........
    ........
    ........
    ........


# [ڞ] ARABIC LETTER SAD WITH THREE DOTS ABOVE
u+069e:
    .....@..
    ........
    ....@.@.
    ........
    .....@@.
    ....@..@
    ..@@...@
    @..@@@@.
    @...@...
    @...@...
    .@@@....
    ........
    ........
    ........
    ........
    ........


# [ڟ] ARABIC LETTER TAH WITH THREE DOTS ABOVE
u+069f:
    .....@..
    ........
    ..@.@.@.
    ..@.....
    ..@.....
    ..@.@@..
    ..@@..@.
    @.@...@.
    .@@@@@..
    ........
    ........
    ........
    ........
    ........
    ........
    ........


# [ڠ] ARABIC LETTER AIN WITH THREE DOTS ABOVE
u+06a0:
    ..@.....
    ........
    .@.@....
    ........
    .@@@....
    @.......
    @...@@..
    .@@@....
    .@......
    @.......
    @.......
    @.......
    .@.....@
    ..@@@@@.
    ........
    ........


# [ڡ] ARABIC LETTER DOTLESS FEH
u+06a1:
    ........
    ........
    ........
    ........
    .....@@.
    .@..@..@
    @....@.@
    @.....@@
    .@@@@@@.
    ........
    ........
    ........
    ........
    ........
    ........
    ........


# [ڢ] ARABIC LETTER FEH WITH DOT MOVED BELOW
u+06a2:
    ........
    ........
    ........
    ........
    .....@@.
    .@..@..@
    @....@.@
    @.....@@
    .@@@@@@.
    ........
    ......@.
    ........
    ........
    ........
    ........
    ........


# [ڣ] ARABIC LETTER FEH WITH DOT BELOW
u+06a3:
    ........
    ........
    .....@..
    ........
    .....@@.
    .@..@..@
    @....@.@
    @.....@@
    .@@@@@@.
    ........
    ....@...
    ........
    ........
    ........
    ........
    ........


# [ڤ] ARABIC LETTER VEH
u+06a4:
    .....@..
    ........
    ....@.@.
    ........
    .....@@.
    .@..@..@
    @....@.@
    @.....@@
    .@@@@@@.
    ........
    ........
    ........
    ........
    ........
    ........
    ........


# [ڥ] ARABIC LETTER FEH WITH THREE DOTS BELOW
u+06a5:
    ........
    ........
    ........
    ........
    .....@@.
    .@..@..@
    @....@.@
    @.....@@
    .@@@@@@.
    ........
    ....@.@.
    ........
    .....@..
    ........
    ........
    ........


# [ڦ] ARABIC LETTER PEHEH
u+06a6:
    ....@.@.
    ........
    ....@.@.
    ........
    .....@@.
    .@..@..@
    @....@.@
    @.....@@
    .@@@@@@.
    ........
    ........
    ........
    ........
    ........
    ........
    ........


# [ڧ] ARABIC LETTER QAF WITH DOT ABOVE
u+06a7:
    ........
    ........
    .....@..
    ........
    .....@@.
    ....@..@
    ....@..@
    .@...@@@
    @......@
    @......@
    @......@
    .@....@.
    ..@@@@..
    ........
    ........
    ........


# [ڨ] ARABIC LETTER QAF WITH THREE DOTS ABOVE
u+06a8:
    .....@..
    ........
    ....@.@.
    ........
    .....@@.
    ....@..@
    ....@..@
    .@...@@@
    @......@
    @......@
    @......@
    .@....@.
    ..@@@@..
    ........
    ........
    ........


# [ک] ARABIC LETTER KEHEH
u+06a9:
    ........
    .......@
    ......@.
    .....@..
    ....@...
    .@...@..
    @.....@.
    @.....@.
    .@@@@@..
    ........
    ........
    ........
    ........
    ........
    ........
    ........


# [ڪ] ARABIC LETTER SWASH KAF
u+06aa:
    ........
    ........
    ........
    ...@@...
    ..@.....
    .@......
    ..@@@@@.
    .......@
    @......@
    .@@@@@@.
    ........
    ........
    ........
    ........
    ........
    ........


# [ګ] ARABIC LETTER KAF WITH RING
u+06ab:
    ........
    .......@
    ......@.
    .....@.@
    ....@.@@
    .@..@...
    @....@..
    @.....@.
    .@@@@@..
    ........
    ........
    ........
    ........
    ........
    ........
    ........


# [ڬ] ARABIC LETTER KAF WITH DOT ABOVE
u+06ac:
    .....@..
    ........
    ...@@..@
    ..@....@
    ...@@..@
    ..@....@
    .......@
    @......@
    .@@@@@@.
    ........
    ........
    ........
    ........
    ........
    ........
    ........


# [ڭ] ARABIC LETTER NG
u+06ad:
    ...@....
    ........
    ..@.@..@
    .......@
    ...@@..@
    ..@....@
    ...@@..@
    @.@....@
    .@@@@@@.
    ........
    ........
    ........
    ........
    ........
    ........
    ........


# [ڮ] ARABIC LETTER KAF WITH THREE DOTS BELOW
u+06ae:
    ........
    ........
    ...@@..@
    ..@....@
    ...@@..@
    ..@....@
    .......@
    @......@
    .@@@@@@.
    ........
    ...@.@..
    ........
    ....@...
    ........
    ........
    ........


# [گ] ARABIC LETTER GAF
u+06af:
    .....@..
    ....@..@
    ...@..@.
    .....@..
    ....@...
    .@...@..
    @.....@.
    @.....@.
    .@@@@@..
    ........
    ........
    ........
    ........
    ........
    ........
    ........


# [ڰ] ARABIC LETTER GAF WITH RING
u+06b0:
    .....@..
    ....@..@
    ...@..@.
    .....@.@
    ....@.@@
    .@..@...
    @....@..
    @.....@.
    .@@@@@..
    ........
    ........
    ........
    ........
    ........
    ........
    ........


# [ڱ] ARABIC LETTER NGOEH
u+06b1:
    @.@..@..
    ....@..@
    ...@..@.
    .....@..
    ....@...
    .@...@..
    @.....@.
    @.....@.
    .@@@@@..
    ........
    ........
    ........
    ........
    ........
    ........
    ........


# [ڲ] ARABIC LETTER GAF WITH TWO DOTS BELOW
u+06b2:
    .....@..
    ....@..@
    ...@..@.
    .....@..
    ....@...
    .@...@..
    @.....@.
    @.....@.
    .@@@@@..
    ........
    ...@.@..
    ........
    ........
    ........
    ........
    ........


# [ڳ] ARABIC LETTER GUEH
u+06b3:
    .....@..
    ....@..@
    ...@..@.
    .....@..
    ....@...
    .@...@..
    @.....@.
    @.....@.
    .@@@@@..
    ........
    ....@...
    ........
    ....@...
    ........
    ........
    ........


# [ڴ] ARABIC LETTER GAF WITH THREE DOTS ABOVE
u+06b4:
    .@...@..
    ....@..@
    @.@...@.
    .....@..
    ....@...
    .@...@..
    @.....@.
    @.....@.
    .@@@@@..
    ........
    ........
    ........
    ........
    ........
    ........
    ........


# [ڵ] ARABIC LETTER LAM WITH SMALL V
u+06b5:
    ...@.@..
    ....@...
    ......@.
    ......@.
    ......@.
    ......@.
    .@....@.
    @.....@.
    @.....@.
    @....@..
    .@@@@...
    ........
    ........
    ........
    ........
    ........


# [ڶ] ARABIC LETTER LAM WITH DOT ABOVE
u+06b6:
    ....@...
    ......@.
    ......@.
    ......@.
    ......@.
    ......@.
    .@....@.
    @.....@.
    @.....@.
    @....@..
    .@@@@...
    ........
    ........
    ........
    ........
    ........


# [ڷ] ARABIC LETTER LAM WITH THREE DOTS ABOVE
u+06b7:
    ...@....
    ......@.
    ..@.@.@.
    ......@.
    ......@.
    ......@.
    .@....@.
    @.....@.
    @.....@.
    @....@..
    .@@@@...
    ........
    ........
    ........
    ........
    ........


# [ڸ] ARABIC LETTER LAM WITH THREE DOTS BELOW
u+06b8:
    ........
    ......@.
    ......@.
    ......@.
    ......@.
    ......@.
    .@....@.
    @.....@.
    @.....@.
    @....@..
    .@@@@...
    ........
    ...@.@..
    ........
    ....@...
    ........


# [ڹ] ARABIC LETTER NOON WITH DOT BELOW
u+06b9:
    ........
    ....@...
    ........
    ........
    ........
    .@.....@
    @......@
    @......@
    @......@
    .@....@.
    ..@@@@..
    ........
    ........
    .....@..
    ........
    ........


# [ں] ARABIC LETTER NOON GHUNNA
u+06ba:
    ........
    ........
    ........
    ........
    ........
    .@.....@
    @......@
    @......@
    @......@
    .@....@.
    ..@@@@..
    ........
    ........
    ........
    ........
    ........


# [ڻ] ARABIC LETTER RNOON
u+06bb:
    ...@....
    ...@@@..
    ...@.@..
    ..@@@...
    ........
    .@.....@
    @......@
    @......@
    @......@
    .@....@.
    ..@@@@..
    ........
    ........
    ........
    ........
    ........


# [ڼ] ARABIC LETTER NOON WITH RING
u+06bc:
    ........
    ........
    ....@...
    ........
    ........
    .@.....@
    @......@
    @......@
    @......@
    .@....@.
    ..@@@@..
    ....@...
    ...@.@..
    ....@...
    ........
    ........


# [ڽ] ARABIC LETTER NOON WITH THREE DOTS ABOVE
u+06bd:
    ....@...
    ........
    ...@.@..
    ........
    ........
    .@.....@
    @......@
    @......@
    @......@
    .@....@.
    ..@@@@..
    ........
    ........
    ........
    ........
    ........


# [ھ] ARABIC LETTER HEH DOACHASHMEE
u+06be:
    ........
    ........
    ........
    ...@....
    ..@@@...
    .@..@@..
    .@.@..@.
    ..@@..@.
    ..@@@@..
    .@......
    ........
    ........
    ........
    ........
    ........
    ........


# [ڿ] ARABIC LETTER TCHEH WITH DOT ABOVE
u+06bf:
    ........
    ........
    ...@....
    ........
    .@@@....
    @...@@@@
    ..@@....
    .@......
    @..@.@..
    @.......
    @...@...
    .@.....@
    ..@@@@@.
    ........
    ........
    ........


# [ۀ] ARABIC LETTER HEH WITH YEH ABOVE
u+06c0:
    ..@@@...
    .@......
    ..@@@...
    .@......
    ...@@...
    ..@..@..
    ..@...@.
    ..@...@.
    ...@@@..
    ........
    ........
    ........
    ........
    ........
    ........
    ........


# [ہ] ARABIC LETTER HEH GOAL
u+06c1:
    ........
    ........
    ........
    ........
    ........
    ........
    ........
    ....@@..
    ...@..@@
    ........
    ........
    ........
    ........
    ........
    ........
    ........


# [ۂ] ARABIC LETTER HEH GOAL WITH HAMZA ABOVE
u+06c2:
    ........
    ........
    ..@@@...
    .@......
    ..@@@...
    .@......
    ........
    ....@@..
    ...@..@@
    ........
    ........
    ........
    ........
    ........
    ........
    ........


# [ۃ] ARABIC LETTER TEH MARBUTA GOAL
u+06c3:
    ........
    ........
    ........
    ...@.@..
    ........
    ........
    ........
    ....@@..
    ...@..@@
    ........
    ........
    ........
    ........
    ........
    ........
    ........


# [ۄ] ARABIC LETTER WAW WITH RING
u+06c4:
    ........
    ........
    ........
    ........
    ........
    ....@@..
    ...@..@.
    ....@@@.
    ...@..@.
    ..@.@@..
    ...@@...
    .@@.....
    ........
    ........
    ........
    ........


# [ۅ] ARABIC LETTER KIRGHIZ OE
u+06c5:
    ........
    ........
    ........
    ........
    ........
    ....@@..
    ...@..@.
    ....@@@.
    ......@.
    ..@@@@..
    ...@@...
    .@@.....
    ........
    ........
    ........
    ........


# [ۆ] ARABIC LETTER OE
u+06c6:
    ........
    ...@.@..
    ....@...
    ........
    ........
    ....@@..
    ...@..@.
    ....@@@.
    ......@.
    .....@..
    ...@@...
    .@@.....
    ........
    ........
    ........
    ........


# [ۇ] ARABIC LETTER U
u+06c7:
    ...@....
    ..@.@...
    ...@@...
    ...@....
    ..@.....
    ....@@..
    ...@..@.
    ....@@@.
    ......@.
    .....@..
    ...@@...
    .@@.....
    ........
    ........
    ........
    ........


# [ۈ] ARABIC LETTER YU
u+06c8:
    ....@...
    ....@...
    ....@...
    ....@...
    ........
    ....@@..
    ...@..@.
    ....@@@.
    ......@.
    .....@..
    ...@@...
    .@@.....
    ........
    ........
    ........
    ........


# [ۉ] ARABIC LETTER KIRGHIZ YU
u+06c9:
    ........
    ....@...
    ...@.@..
    ........
    ........
    ....@@..
    ...@..@.
    ....@@@.
    ......@.
    .....@..
    ...@@...
    .@@.....
    ........
    ........
    ........
    ........


# [ۊ] ARABIC LETTER WAW WITH TWO DOTS ABOVE
u+06ca:
    ........
    ........
    ...@.@..
    ........
    ........
    ....@@..
    ...@..@.
    ....@@@.
    ......@.
    .....@..
    ...@@...
    .@@.....
    ........
    ........
    ........
    ........


# [ۋ] ARABIC LETTER VE
u+06cb:
    ....@...
    ........
    ...@.@..
    ........
    ........
    ....@@..
    ...@..@.
    ....@@@.
    ......@.
    .....@..
    ...@@...
    .@@.....
    ........
    ........
    ........
    ........


# [ی] ARABIC LETTER FARSI YEH
u+06cc:
    ........
    ........
    ........
    ........
    ........
    .....@@@
    ....@...
    @...@...
    @....@@.
    @......@
    @......@
    .@@@@@@.
    ........
    ........
    ........
    ........


# [ۍ] ARABIC LETTER YEH WITH TAIL
u+06cd:
    ........
    ........
    ........
    ........
    ..@.....
    .@...@@@
    @...@...
    ....@...
    @....@@.
    @......@
    @......@
    .@@@@@@.
    ........
    ........
    ........
    ........


# [ێ] ARABIC LETTER YEH WITH SMALL V
u+06ce:
    ........
    ........
    ........
    .@.@....
    ..@.....
    .....@@@
    ....@...
    @...@...
    @....@@.
    @......@
    @......@
    .@@@@@@.
    ........
    ........
    ........
    ........


# [ۏ] ARABIC LETTER WAW WITH DOT ABOVE
u+06cf:
    ........
    ........
    ....@...
    ........
    ........
    ....@@..
    ...@..@.
    ....@@@.
    ......@.
    .....@..
    ...@@...
    .@@.....
    ........
    ........
    ........
    ........


# [ې] ARABIC LETTER E
u+06d0:
    ........
    ........
    ........
    ........
    ........
    .....@@@
    ....@...
    @...@...
    @....@@.
    @......@
    @.....@.
    .@@@@@..
    ........
    ....@...
    ........
    ....@...


# [ۑ] ARABIC LETTER YEH WITH THREE DOTS BELOW
u+06d1:
    ........
    ........
    ........
    ........
    ........
    .....@@@
    ....@...
    @...@...
    @....@@.
    @......@
    @.....@.
    .@@@@@..
    ........
    ...@.@..
    ........
    ....@...


# [ے] ARABIC LETTER YEH BARREE
u+06d2:
    ........
    ........
    ........
    ........
    ........
    ........
    ....@...
    ...@.@..
    .@@.....
    @.......
    @@@@@@@.
    ........
    ........
    ........
    ........
    ........


# [ۓ] ARABIC LETTER YEH BARREE WITH HAMZA ABOVE
u+06d3:
    ........
    ........
    .@@.....
    @.......
    .@@.....
    @.......
    ....@...
    ...@.@..
    .@@.....
    @.......
    @@@@@@@.
    ........
    ........
    ........
    ........
    ........


# [۔] ARABIC FULL STOP
u+06d4:
    ........
    ........
    ........
    ........
    ........
    ........
    ........
    ..@@@@..
    ........
    ........
    ........
    ........
    ........
    ........
    ........
    ........


# [ە] ARABIC LETTER AE
u+06d5:
    ........
    ........
    ........
    ........
    ...@@...
    ..@..@..
    ..@...@.
    ..@...@.
    ...@@@..
    ........
    ........
    ........
    ........
    ........
    ........
    ........


# [ۖ] ARABIC SMALL HIGH LIGATURE SAD WITH LAM WITH ALEF MAKSURA
u+06d6:
    .@......
    .@......
    .@....@@
    .@.@.@.@
    .@@@@@@.
    @.......
    .@@@@@..
    ........
    ........
    ........
    ........
    ........
    ........
    ........
    ........
    ........


# [ۗ] ARABIC SMALL HIGH LIGATURE QAF WITH LAM WITH ALEF MAKSURA
u+06d7:
    ..@.@.@.
    ..@.....
    ..@..@@.
    ..@.@.@.
    .@@@@@..
    @.......
    .@@@@@..
    ........
    ........
    ........
    ........
    ........
    ........
    ........
    ........
    ........


# [ۘ] ARABIC SMALL HIGH MEEM INITIAL FORM
u+06d8:
    ....@@..
    ....@@@.
    ...@@@..
    .@@.....
    ........
    ........
    ........
    ........
    ........
    ........
    ........
    ........
    ........
    ........
    ........
    ........


# [ۙ] ARABIC SMALL HIGH LAM ALEF
u+06d9:
    ...@.@..
    ...@.@..
    ....@...
    ...@.@..
    ...@@...
    ........
    ........
    ........
    ........
    ........
    ........
    ........
    ........
    ........
    ........
    ........


# [ۚ] ARABIC SMALL HIGH JEEM
u+06da:
    ...@@...
    ..@.@@..
    ...@....
    ..@.@...
    ..@...@.
    ...@@@..
    ........
    ........
    ........
    ........
    ........
    ........
    ........
    ........
    ........
    ........


# [ۛ] ARABIC SMALL HIGH THREE DOTS
u+06db:
    ....@...
    ........
    ...@.@..
    ........
    ........
    ........
    ........
    ........
    ........
    ........
    ........
    ........
    ........
    ........
    ........
    ........


# [ۜ] ARABIC SMALL HIGH SEEN
u+06dc:
    ...@.@.@
    @...@.@.
    @..@....
    .@@.....
    ........
    ........
    ........
    ........
    ........
    ........
    ........
    ........
    ........
    ........
    ........
    ........


# ARABIC END OF AYAH
u+06dd:
    ........
    .@.@@.@.
    @.@..@.@
    .@@..@@.
    .@.@@.@@
    @......@
    @......@
    @......@
    @......@
    @......@
    @......@
    .@.@@.@.
    .@@..@@.
    @.@..@.@
    .@.@@.@.
    ........


# [۞] ARABIC START OF RUB EL HIZB
u+06de:
    ........
    ........
    ...@@...
    .@@..@@.
    .@....@.
    .@....@.
    @......@
    @..@@..@
    @..@@..@
    @......@
    .@....@.
    .@....@.
    .@@..@@.
    ...@@...
    ........
    ........


# [۟] ARABIC SMALL HIGH ROUNDED ZERO
u+06df:
    ....@...
    ...@@@..
    ....@...
    ........
    ........
    ........
    ........
    ........
    ........
    ........
    ........
    ........
    ........
    ........
    ........
    ........


# [۠] ARABIC SMALL HIGH UPRIGHT RECTANGULAR ZERO
u+06e0:
    ...@@...
    ...@@...
    ........
    ........
    ........
    ........
    ........
    ........
    ........
    ........
    ........
    ........
    ........
    ........
    ........
    ........


# [ۡ] ARABIC SMALL HIGH DOTLESS HEAD OF KHAH
u+06e1:
    ...@@...
    ..@..@@.
    ....@...
    .@@@....
    ........
    ........
    ........
    ........
    ........
    ........
    ........
    ........
    ........
    ........
    ........
    ........


# [ۢ] ARABIC SMALL HIGH MEEM ISOLATED FORM
u+06e2:
    ....@@..
    ....@@..
    ...@....
    ...@....
    ...@....
    ........
    ........
    ........
    ........
    ........
    ........
    ........
    ........
    ........
    ........
    ........


# [ۣ] ARABIC SMALL LOW SEEN
u+06e3:
    ........
    ........
    ........
    ........
    ........
    ........
    ........
    ........
    ........
    ........
    ........
    ........
    ...@.@.@
    @...@.@.
    @..@....
    .@@.....


# [ۤ] ARABIC SMALL HIGH MADDA
u+06e4:
    ..@@..@.
    ..@.@@..
    ........
    ........
    ........
    ........
    ........
    ........
    ........
    ........
    ........
    ........
    ........
    ........
    ........
    ........


# [ۥ] ARABIC SMALL WAW
u+06e5:
    ........
    ........
    ........
    ........
    ........
    ....@...
    ...@.@..
    ....@@..
    .....@..
    ....@...
    ..@@....
    ........
    ........
    ........
    ........
    ........


# [ۦ] ARABIC SMALL YEH
u+06e6:
    ........
    ........
    ........
    ........
    ........
    ........
    ...@....
    ..@@....
    .@......
    ..@@@@@.
    ........
    ........
    ........
    ........
    ........
    ........


# [ۧ] ARABIC SMALL HIGH YEH
u+06e7:
    ...@....
    ..@@....
    .@......
    ..@@@@@.
    ........
    ........
    ........
    ........
    ........
    ........
    ........
    ........
    ........
    ........
    ........
    ........


# [ۨ] ARABIC SMALL HIGH NOON
u+06e8:
    ....@...
    ..@...@.
    ..@...@.
    ...@@@..
    ........
    ........
    ........
    ........
    ........
    ........
    ........
    ........
    ........
    ........
    ........
    ........


# [۩] ARABIC PLACE OF SAJDAH
u+06e9:
    ...@....
    ..@.@...
    .@.@.@..
    @.@.@.@.
    @..@..@.
    .@.@.@..
    .@.@.@..
    .@.@.@..
    .@.@.@..
    .@.@.@..
    .@.@.@..
    .@.@.@..
    @.....@.
    @@@@@@@.
    ........
    ........


# [۪] ARABIC EMPTY CENTRE LOW STOP
u+06ea:
    ........
    ........
    ........
    ........
    ........
    ........
    ........
    ........
    ........
    ........
    ........
    ....@...
    ...@.@..
    ..@...@.
    ...@.@..
    ....@...


# [۫] ARABIC EMPTY CENTRE HIGH STOP
u+06eb:
    ....@...
    ...@.@..
    ..@...@.
    ...@.@..
    ....@...
    ........
    ........
    ........
    ........
    ........
    ........
    ........
    ........
    ........
    ........
    ........


# [۬] ARABIC ROUNDED HIGH STOP WITH FILLED CENTRE
u+06ec:
    ...@@...
    ..@@@@..
    ..@@@@..
    ...@@...
    ........
    ........
    ........
    ........
    ........
    ........
    ........
    ........
    ........
    ........
    ........
    ........


# [ۭ] ARABIC SMALL LOW MEEM
u+06ed:
    ........
    ........
    ........
    ........
    ........
    ........
    ........
    ........
    ........
    ........
    ........
    ....@@..
    ....@@..
    ...@....
    ...@....
    ...@....


# [۰] EXTENDED ARABIC-INDIC DIGIT ZERO
u+06f0:
    ........
    ........
    ........
    ........
    ........
    ..@@@...
    .@...@..
    .@...@..
    ..@@@...
    ........
    ........
    ........
    ........
    ........
    ........
    ........


# [۱] EXTENDED ARABIC-INDIC DIGIT ONE
u+06f1:
    ........
    ........
    ..@.....
    .@@@....
    .@@@....
    ..@@@...
    ...@@...
    ...@@...
    ....@...
    ....@...
    ....@...
    ........
    ........
    ........
    ........
    ........


# [۲] EXTENDED ARABIC-INDIC DIGIT TWO
u+06f2:
    ........
    ........
    .@...@..
    @@@@@@..
    @@@@@...
    .@@.....
    ..@@....
    ..@@....
    ...@....
    ...@....
    ...@....
    ........
    ........
    ........
    ........
    ........


# [۳] EXTENDED ARABIC-INDIC DIGIT THREE
u+06f3:
    ........
    ........
    .@..@.@.
    @@@@@@@.
    @@@@.@..
    .@@.....
    ..@@....
    ..@@....
    ...@....
    ...@....
    ...@....
    ........
    ........
    ........
    ........
    ........


# [۴] EXTENDED ARABIC-INDIC DIGIT FOUR
u+06f4:
    ........
    ........
    .@..@@@.
    @@@@....
    @@@@@@@.
    .@@@@@..
    ..@@....
    ..@@....
    ...@....
    ...@....
    ...@....
    ........
    ........
    ........
    ........
    ........


# [۵] EXTENDED ARABIC-INDIC DIGIT FIVE
u+06f5:
    ........
    ........
    ..@@....
    ..@@@...
    ..@.@@..
    .@...@..
    .@....@.
    @.....@.
    @..@..@.
    @@@@@@@.
    .@@.@@..
    ........
    ........
    ........
    ........
    ........


# [۶] EXTENDED ARABIC-INDIC DIGIT SIX
u+06f6:
    ........
    ........
    ...@@...
    ..@@@@..
    .@@.....
    .@@@@@@.
    ..@@@@..
    ..@@....
    .@@.....
    .@......
    @.......
    ........
    ........
    ........
    ........
    ........


# [۷] EXTENDED ARABIC-INDIC DIGIT SEVEN
u+06f7:
    ........
    ........
    @.....@.
    @@...@@.
    @@...@@.
    .@@.@@..
    ..@.@...
    ..@@@...
    ...@....
    ...@....
    ...@....
    ........
    ........
    ........
    ........
    ........


# [۸] EXTENDED ARABIC-INDIC DIGIT EIGHT
u+06f8:
    ........
    ........
    ...@....
    ...@....
    ...@....
    ..@@@...
    ..@.@...
    .@@.@@..
    @@...@@.
    @@...@@.
    @.....@.
    ........
    ........
    ........
    ........
    ........


# [۹] EXTENDED ARABIC-INDIC DIGIT NINE
u+06f9:
    ........
    ........
    .@@@....
    @@@@@...
    @...@...
    @@@@@...
    .@@@@...
    ....@...
    ....@@..
    ....@@@.
    .....@@.
    ........
    ........
    ........
    ........
    ........



# [ۺ] ARABIC LETTER SHEEN WITH DOT BELOW
u+06fa:
    ........
    ....@...
    ........
    ...@.@..
    ........
    .......@
    ...@.@.@
    @...@...
    @...@...
    @...@...
    .@@@..@.
    ........
    ........
    ........
    ........
    ........


# [ۻ] ARABIC LETTER DAD WITH DOT BELOW
u+06fb:
    ........
    ........
    .....@..
    ........
    .....@@.
    ....@..@
    ..@@...@
    @..@@@@.
    @...@...
    @...@...
    .@@@..@.
    ........
    ........
    ........
    ........
    ........


# [ۼ] ARABIC LETTER GHAIN WITH DOT BELOW
u+06fc:
    ........
    .@......
    ........
    ........
    .@@@....
    @.......
    @...@@..
    .@@@....
    .@......
    @.......
    @...@...
    @.......
    .@.....@
    ..@@@@@.
    ........
    ........


# [۽] ARABIC SIGN SINDHI AMPERSAND
u+06fd:
    ........
    ........
    ........
    ........
    ...@@...
    ..@..@..
    ..@.....
    ...@@@@.
    ..@.....
    ........
    ...@.@..
    ...@.@..
    ...@.@..
    ...@.@..
    ........
    ........


# [۾] ARABIC SIGN SINDHI POSTPOSITION MEN
u+06fe:
    ........
    ........
    ........
    ........
    ....@@..
    ...@..@.
    ...@..@.
    ..@@@@..
    .@......
    .@.@.@..
    .@.@.@..
    .@.@.@..
    .@.@.@..
    .@......
    ........
    ........



# [Ḁ] LATIN CAPITAL LETTER A WITH RING BELOW
u+1e00:
    ........
    ........
    ........
    ...@....
    ..@@@...
    .@@.@@..
    @@...@@.
    @@...@@.
    @@@@@@@.
    @@...@@.
    @@...@@.
    @@...@@.
    @@...@@.
    ..@@@...
    .@@.@@..
    ..@@@...


# [ḁ] LATIN SMALL LETTER A WITH RING BELOW
u+1e01:
    ........
    ........
    ........
    ........
    ........
    ........
    .@@@@...
    ....@@..
    .@@@@@..
    @@..@@..
    @@..@@..
    @@..@@..
    .@@@.@@.
    ..@@@...
    .@@.@@..
    ..@@@...


# uni-vga, rebaselined
# [Ḅ] LATIN CAPITAL LETTER B WITH DOT BELOW
u+1e04:
    ........
    ........
    ........
    @@@@@@..
    .@@..@@.
    .@@..@@.
    .@@..@@.
    .@@@@@..
    .@@..@@.
    .@@..@@.
    .@@..@@.
    .@@..@@.
    @@@@@@..
    ........
    ...@@...
    ...@@...


# uni-vga, rebaselined
# [ḅ] LATIN SMALL LETTER B WITH DOT BELOW
u+1e05:
    ........
    ........
    ........
    @@@.....
    .@@.....
    .@@.....
    .@@@@...
    .@@.@@..
    .@@..@@.
    .@@..@@.
    .@@..@@.
    .@@..@@.
    .@@@@@..
    ........
    ...@@...
    ...@@...


# uni-vga, rebaselined
# [Ḇ] LATIN CAPITAL LETTER B WITH LINE BELOW
u+1e06:
    ........
    ........
    ........
    @@@@@@..
    .@@..@@.
    .@@..@@.
    .@@..@@.
    .@@@@@..
    .@@..@@.
    .@@..@@.
    .@@..@@.
    .@@..@@.
    @@@@@@..
    ........
    .@@@@@..
    ........


# uni-vga, rebaselined
# [ḇ] LATIN SMALL LETTER B WITH LINE BELOW
u+1e07:
    ........
    ........
    ........
    @@@.....
    .@@.....
    .@@.....
    .@@@@...
    .@@.@@..
    .@@..@@.
    .@@..@@.
    .@@..@@.
    .@@..@@.
    .@@@@@..
    ........
    .@@@@@..
    ........


# [Ḉ] LATIN CAPITAL LETTER C WITH CEDILLA AND ACUTE
u+1e08:
    ....@@..
    ...@@...
    ........
    ..@@@@..
    .@@..@@.
    @@....@.
    @@......
    @@......
    @@......
    @@....@.
    .@@..@@.
    ..@@@@..
    ...@@...
    ....@@..
    ..@@@...
    ........


# uni-vga, rebaselined
# [ḉ] LATIN SMALL LETTER C WITH CEDILLA AND ACUTE
u+1e09:
    ........
    ........
    ........
    ....@@..
    ...@@...
    ........
    .@@@@@..
    @@...@@.
    @@......
    @@......
    @@......
    @@...@@.
    .@@@@@..
    ...@@...
    ....@@..
    ..@@@...


# uni-vga, rebaselined
# [Ḏ] LATIN CAPITAL LETTER D WITH LINE BELOW
u+1e0e:
    ........
    ........
    ........
    @@@@@...
    .@@.@@..
    .@@..@@.
    .@@..@@.
    .@@..@@.
    .@@..@@.
    .@@..@@.
    .@@..@@.
    .@@.@@..
    @@@@@...
    ........
    .@@@@@..
    ........


# uni-vga, rebaselined
# [ḏ] LATIN SMALL LETTER D WITH LINE BELOW
u+1e0f:
    ........
    ........
    ........
    ...@@@..
    ....@@..
    ....@@..
    ..@@@@..
    .@@.@@..
    @@..@@..
    @@..@@..
    @@..@@..
    @@..@@..
    .@@@.@@.
    ........
    .@@@@@..
    ........


# [Ḕ] LATIN CAPITAL LETTER E WITH MACRON AND GRAVE
u+1e14:
    .@@.....
    ..@@@@@.
    ........
    @@@@@@@.
    .@@..@@.
    .@@...@.
    .@@.@...
    .@@@@...
    .@@.@...
    .@@.....
    .@@...@.
    .@@..@@.
    @@@@@@@.
    ........
    ........
    ........

# [ḕ] LATIN SMALL LETTER E WITH MACRON AND GRAVE
u+1e15:
    ........
    ........
    @@......
    .@@.....
    ..@@@@@.
    ........
    .@@@@@..
    @@...@@.
    @@@@@@@.
    @@......
    @@......
    @@...@@.
    .@@@@@..
    ........
    ........
    ........


# [Ḗ] LATIN CAPITAL LETTER E WITH MACRON AND ACUTE
u+1e16:
    ....@@..
    @@@@@...
    ........
    @@@@@@@.
    .@@..@@.
    .@@...@.
    .@@.@...
    .@@@@...
    .@@.@...
    .@@.....
    .@@...@.
    .@@..@@.
    @@@@@@@.
    ........
    ........
    ........


# [Ḙ] LATIN CAPITAL LETTER E WITH CIRCUMFLEX BELOW
u+1e18:
    ........
    ........
    ........
    @@@@@@@.
    .@@..@@.
    .@@...@.
    .@@.@...
    .@@@@...
    .@@.@...
    .@@.....
    .@@...@.
    .@@..@@.
    @@@@@@@.
    ........
    ..@@@...
    .@@.@@..

# [ḙ] LATIN SMALL LETTER E WITH CIRCUMFLEX BELOW
u+1e19:
    ........
    ........
    ........
    ........
    ........
    ........
    .@@@@@..
    @@...@@.
    @@@@@@@.
    @@......
    @@......
    @@...@@.
    .@@@@@..
    ........
    ..@@@...
    .@@.@@..



# uni-vga, rebaselined
# [Ḛ] LATIN CAPITAL LETTER E WITH TILDE BELOW
u+1e1a:
    ........
    ........
    ........
    @@@@@@@.
    .@@..@@.
    .@@...@.
    .@@.@...
    .@@@@...
    .@@.@...
    .@@.....
    .@@...@.
    .@@..@@.
    @@@@@@@.
    ........
    .@@@.@@.
    @@.@@@..


# uni-vga, rebaselined
# [ḛ] LATIN SMALL LETTER E WITH TILDE BELOW
u+1e1b:
    ........
    ........
    ........
    ........
    ........
    ........
    .@@@@@..
    @@...@@.
    @@@@@@@.
    @@......
    @@......
    @@...@@.
    .@@@@@..
    ........
    .@@@.@@.
    @@.@@@..


# [Ḝ] LATIN CAPITAL LETTER E WITH CEDILLA AND BREVE
u+1e1c:
    @@...@@.
    .@@@@@..
    ........
    @@@@@@@.
    .@@..@@.
    .@@...@.
    .@@.@...
    .@@@@...
    .@@.@...
    .@@.....
    .@@...@.
    .@@..@@.
    @@@@@@@.
    ...@@...
    ....@@..
    ..@@@...


# [ḝ] LATIN SMALL LETTER E WITH CEDILLA AND BREVE
u+1e1d:
    ........
    ........
    ........
    @@...@@.
    .@@@@@..
    ........
    .@@@@@..
    @@...@@.
    @@@@@@@.
    @@......
    @@......
    @@...@@.
    .@@@@@..
    ...@@...
    ....@@..
    ..@@@...


# [Ḡ] LATIN CAPITAL LETTER G WITH MACRON
u+1e20:
    ........
    @@@@@@@.
    ........
    ..@@@@..
    .@@..@@.
    @@....@.
    @@......
    @@......
    @@.@@@@.
    @@...@@.
    @@...@@.
    .@@..@@.
    ..@@@.@.
    ........
    ........
    ........


# [ḡ] LATIN SMALL LETTER G WITH MACRON
u+1e21:
    ........
    ........
    ........
    ........
    @@@@@@@.
    ........
    .@@@.@@.
    @@..@@..
    @@..@@..
    @@..@@..
    @@..@@..
    @@..@@..
    .@@@@@..
    ....@@..
    @@..@@..
    .@@@@...

# [Ḣ] LATIN CAPITAL LETTER H WITH DOT ABOVE
u+1e22:
    ..@@....
    ..@@....
    ........
    @@...@@.
    @@...@@.
    @@...@@.
    @@...@@.
    @@@@@@@.
    @@...@@.
    @@...@@.
    @@...@@.
    @@...@@.
    @@...@@.
    ........
    ........
    ........

# [ḣ] LATIN SMALL LETTER H WITH DOT ABOVE
u+1e23:
    ...@@...
    ...@@...
    ........
    @@@.....
    .@@.....
    .@@.....
    .@@.@@..
    .@@@.@@.
    .@@..@@.
    .@@..@@.
    .@@..@@.
    .@@..@@.
    @@@..@@.
    ........
    ........
    ........


# [Ḥ] LATIN CAPITAL LETTER H WITH DOT BELOW
u+1e24:
    ........
    ........
    ........
    @@...@@.
    @@...@@.
    @@...@@.
    @@...@@.
    @@@@@@@.
    @@...@@.
    @@...@@.
    @@...@@.
    @@...@@.
    @@...@@.
    ........
    ..@@....
    ..@@....


# [ḥ] LATIN SMALL LETTER H WITH DOT BELOW
u+1e25:
    ........
    ........
    ........
    @@@.....
    .@@.....
    .@@.....
    .@@.@@..
    .@@@.@@.
    .@@..@@.
    .@@..@@.
    .@@..@@.
    .@@..@@.
    @@@..@@.
    ........
    ...@@...
    ...@@...


# [Ḧ] LATIN CAPITAL LETTER H WITH DIAERESIS
u+1e26:
    ........
    @@...@@.
    ........
    @@...@@.
    @@...@@.
    @@...@@.
    @@...@@.
    @@@@@@@.
    @@...@@.
    @@...@@.
    @@...@@.
    @@...@@.
    @@...@@.
    ........
    ........
    ........


# [ḧ] LATIN SMALL LETTER H WITH DIAERESIS
u+1e27:
    ........
    @@...@@.
    ........
    @@@.....
    .@@.....
    .@@.....
    .@@.@@..
    .@@@.@@.
    .@@..@@.
    .@@..@@.
    .@@..@@.
    .@@..@@.
    @@@..@@.
    ........
    ........
    ........


# [Ḩ] LATIN CAPITAL LETTER H WITH CEDILLA
u+1e28:
    ........
    ........
    ........
    @@...@@.
    @@...@@.
    @@...@@.
    @@...@@.
    @@@@@@@.
    @@...@@.
    @@...@@.
    @@...@@.
    @@...@@.
    @@...@@.
    .@@.....
    ..@@....
    @@@.....

# [ḩ] LATIN SMALL LETTER H WITH CEDILLA
u+1e29:
    ........
    ........
    ........
    @@@.....
    .@@.....
    .@@.....
    .@@.@@..
    .@@@.@@.
    .@@..@@.
    .@@..@@.
    .@@..@@.
    .@@..@@.
    @@@..@@.
    .@@.....
    ..@@....
    @@@.....


# [Ḫ] LATIN CAPITAL LETTER H WITH BREVE BELOW
u+1e2a:
    ........
    ........
    ........
    @@...@@.
    @@...@@.
    @@...@@.
    @@...@@.
    @@@@@@@.
    @@...@@.
    @@...@@.
    @@...@@.
    @@...@@.
    @@...@@.
    ........
    @@...@@.
    .@@@@@..

# [ḫ] LATIN SMALL LETTER H WITH BREVE BELOW
u+1e2b:
    ........
    ........
    ........
    @@@.....
    .@@.....
    .@@.....
    .@@.@@..
    .@@@.@@.
    .@@..@@.
    .@@..@@.
    .@@..@@.
    .@@..@@.
    @@@..@@.
    ........
    @@...@@.
    .@@@@@..


# uni-vga, rebaselined
# [Ḭ] LATIN CAPITAL LETTER I WITH TILDE BELOW
u+1e2c:
    ........
    ........
    ........
    ..@@@@..
    ...@@...
    ...@@...
    ...@@...
    ...@@...
    ...@@...
    ...@@...
    ...@@...
    ...@@...
    ..@@@@..
    ........
    .@@@.@@.
    @@.@@@..


# uni-vga, rebaselined
# [ḭ] LATIN SMALL LETTER I WITH TILDE BELOW
u+1e2d:
    ........
    ........
    ........
    ...@@...
    ...@@...
    ........
    ..@@@...
    ...@@...
    ...@@...
    ...@@...
    ...@@...
    ...@@...
    ..@@@@..
    ........
    .@@@.@@.
    @@.@@@..


# [Ḯ] LATIN CAPITAL LETTER I WITH DIAERESIS AND ACUTE
u+1e2e:
    ....@@..
    ...@@...
    @@...@@.
    ........
    ..@@@@..
    ...@@...
    ...@@...
    ...@@...
    ...@@...
    ...@@...
    ...@@...
    ...@@...
    ..@@@@..
    ........
    ........
    ........



# [ḯ] LATIN SMALL LETTER I WITH DIAERESIS AND ACUTE
u+1e2f:
    .....@@.
    ....@@..
    ...@@...
    ........
    @@...@@.
    ........
    ..@@@...
    ...@@...
    ...@@...
    ...@@...
    ...@@...
    ...@@...
    ..@@@@..
    ........
    ........
    ........

# [Ḱ] LATIN CAPITAL LETTER K WITH ACUTE
u+1e30:
    ....@@..
    ...@@...
    ........
    @@@..@@.
    .@@..@@.
    .@@..@@.
    .@@.@@..
    .@@@@...
    .@@@@...
    .@@.@@..
    .@@..@@.
    .@@..@@.
    @@@..@@.
    ........
    ........
    ........

# [ḱ] LATIN SMALL LETTER K WITH ACUTE
u+1e31:
    ....@@..
    ...@@...
    ........
    @@@.....
    .@@.....
    .@@.....
    .@@..@@.
    .@@.@@..
    .@@@@...
    .@@@@...
    .@@.@@..
    .@@..@@.
    @@@..@@.
    ........
    ........
    ........


# uni-vga, rebaselined
# [Ḳ] LATIN CAPITAL LETTER K WITH DOT BELOW
u+1e32:
    ........
    ........
    ........
    @@@..@@.
    .@@..@@.
    .@@..@@.
    .@@.@@..
    .@@@@...
    .@@@@...
    .@@.@@..
    .@@..@@.
    .@@..@@.
    @@@..@@.
    ........
    ...@@...
    ...@@...


# uni-vga, rebaselined
# [ḳ] LATIN SMALL LETTER K WITH DOT BELOW
u+1e33:
    ........
    ........
    ........
    @@@.....
    .@@.....
    .@@.....
    .@@..@@.
    .@@.@@..
    .@@@@...
    .@@@@...
    .@@.@@..
    .@@..@@.
    @@@..@@.
    ........
    ...@@...
    ...@@...



# [Ḵ] LATIN CAPITAL LETTER K WITH LINE BELOW
u+1e34:
    ........
    ........
    ........
    @@@..@@.
    .@@..@@.
    .@@..@@.
    .@@.@@..
    .@@@@...
    .@@@@...
    .@@.@@..
    .@@..@@.
    .@@..@@.
    @@@..@@.
    ........
    @@@@@@@.
    ........


# [ḵ] LATIN SMALL LETTER K WITH LINE BELOW
u+1e35:
    ........
    ........
    ........
    @@@.....
    .@@.....
    .@@.....
    .@@..@@.
    .@@.@@..
    .@@@@...
    .@@@@...
    .@@.@@..
    .@@..@@.
    @@@..@@.
    ........
    @@@@@@@.
    ........

# [Ḹ] LATIN CAPITAL LETTER L WITH DOT BELOW AND MACRON
u+1e38:
    ........
    @@@@@@@.
    ........
    @@@@....
    .@@.....
    .@@.....
    .@@.....
    .@@.....
    .@@.....
    .@@.....
    .@@...@.
    .@@..@@.
    @@@@@@@.
    ........
    ...@@...
    ...@@...


# [ḹ] LATIN SMALL LETTER L WITH DOT BELOW AND MACRON
u+1e39:
    ........
    @@@@@@@.
    ........
    ..@@@...
    ...@@...
    ...@@...
    ...@@...
    ...@@...
    ...@@...
    ...@@...
    ...@@...
    ...@@...
    ..@@@@..
    ........
    ...@@...
    ...@@...


# [Ḻ] LATIN CAPITAL LETTER L WITH LINE BELOW
u+1e3a:
    ........
    ........
    ........
    @@@@....
    .@@.....
    .@@.....
    .@@.....
    .@@.....
    .@@.....
    .@@.....
    .@@...@.
    .@@..@@.
    @@@@@@@.
    ........
    @@@@@@@.
    ........


# [ḻ] LATIN SMALL LETTER L WITH LINE BELOW
u+1e3b:
    ........
    ........
    ........
    ..@@@...
    ...@@...
    ...@@...
    ...@@...
    ...@@...
    ...@@...
    ...@@...
    ...@@...
    ...@@...
    ..@@@@..
    ........
    @@@@@@@.
    ........

# [Ḿ] LATIN CAPITAL LETTER M WITH ACUTE
u+1e3e:
    ....@@..
    ...@@...
    ........
    @@...@@.
    @@@.@@@.
    @@@@@@@.
    @@@@@@@.
    @@.@.@@.
    @@...@@.
    @@...@@.
    @@...@@.
    @@...@@.
    @@...@@.
    ........
    ........
    ........

# [ḿ] LATIN SMALL LETTER M WITH ACUTE
u+1e3f:
    ........
    ........
    ....@@..
    ...@@...
    ..@@....
    ........
    @@@.@@..
    @@@@@@@.
    @@.@.@@.
    @@.@.@@.
    @@.@.@@.
    @@.@.@@.
    @@...@@.
    ........
    ........
    ........


# [Ṃ] LATIN CAPITAL LETTER M WITH DOT BELOW
u+1e42:
    ........
    ........
    ........
    @@...@@.
    @@@.@@@.
    @@@@@@@.
    @@@@@@@.
    @@.@.@@.
    @@...@@.
    @@...@@.
    @@...@@.
    @@...@@.
    @@...@@.
    ........
    ..@@....
    ..@@....


# [ṃ] LATIN SMALL LETTER M WITH DOT BELOW
u+1e43:
    ........
    ........
    ........
    ........
    ........
    ........
    @@@.@@..
    @@@@@@@.
    @@.@.@@.
    @@.@.@@.
    @@.@.@@.
    @@.@.@@.
    @@...@@.
    ........
    ..@@....
    ..@@....


# [Ṇ] LATIN CAPITAL LETTER N WITH DOT BELOW
u+1e46:
    ........
    ........
    ........
    @@...@@.
    @@@..@@.
    @@@@.@@.
    @@@@@@@.
    @@.@@@@.
    @@..@@@.
    @@...@@.
    @@...@@.
    @@...@@.
    @@...@@.
    ........
    ..@@....
    ..@@....


# [ṇ] LATIN SMALL LETTER N WITH DOT BELOW
u+1e47:
    ........
    ........
    ........
    ........
    ........
    ........
    @@.@@@..
    .@@..@@.
    .@@..@@.
    .@@..@@.
    .@@..@@.
    .@@..@@.
    .@@..@@.
    ........
    ..@@....
    ..@@....



# [Ṉ] LATIN CAPITAL LETTER N WITH LINE BELOW
u+1e48:
    ........
    ........
    ........
    @@...@@.
    @@@..@@.
    @@@@.@@.
    @@@@@@@.
    @@.@@@@.
    @@..@@@.
    @@...@@.
    @@...@@.
    @@...@@.
    @@...@@.
    ........
    @@@@@@@.
    ........


# [ṉ] LATIN SMALL LETTER N WITH LINE BELOW
u+1e49:
    ........
    ........
    ........
    ........
    ........
    ........
    @@.@@@..
    .@@..@@.
    .@@..@@.
    .@@..@@.
    .@@..@@.
    .@@..@@.
    .@@..@@.
    ........
    @@@@@@@.
    ........


# [Ṍ] LATIN CAPITAL LETTER O WITH TILDE AND ACUTE
u+1e4c:
    ....@@..
    ...@@...
    .@@@.@@.
    @@.@@@..
    ........
    .@@@@@..
    @@...@@.
    @@...@@.
    @@...@@.
    @@...@@.
    @@...@@.
    @@...@@.
    .@@@@@..
    ........
    ........
    ........


# [ṍ] LATIN SMALL LETTER O WITH TILDE AND ACUTE
u+1e4d:
    ....@@..
    ...@@...
    ........
    .@@@.@@.
    @@.@@@..
    ........
    .@@@@@..
    @@...@@.
    @@...@@.
    @@...@@.
    @@...@@.
    @@...@@.
    .@@@@@..
    ........
    ........
    ........



# [Ṏ] LATIN CAPITAL LETTER O WITH TILDE AND DIAERESIS
u+1e4e:
    @@...@@.
    ........
    .@@@.@@.
    @@.@@@..
    ........
    .@@@@@..
    @@...@@.
    @@...@@.
    @@...@@.
    @@...@@.
    @@...@@.
    @@...@@.
    .@@@@@..
    ........
    ........
    ........


# [ṏ] LATIN SMALL LETTER O WITH TILDE AND DIAERESIS
u+1e4f:
    ........
    @@...@@.
    ........
    .@@@.@@.
    @@.@@@..
    ........
    .@@@@@..
    @@...@@.
    @@...@@.
    @@...@@.
    @@...@@.
    @@...@@.
    .@@@@@..
    ........
    ........
    ........



# [Ṑ] LATIN CAPITAL LETTER O WITH MACRON AND GRAVE
u+1e50:
    .@@.....
    ..@@@@@.
    ........
    .@@@@@..
    @@...@@.
    @@...@@.
    @@...@@.
    @@...@@.
    @@...@@.
    @@...@@.
    @@...@@.
    @@...@@.
    .@@@@@..
    ........
    ........
    ........


# [ṑ] LATIN SMALL LETTER O WITH MACRON AND GRAVE
u+1e51:
    ........
    ........
    @@......
    .@@.....
    ..@@@@@.
    ........
    .@@@@@..
    @@...@@.
    @@...@@.
    @@...@@.
    @@...@@.
    @@...@@.
    .@@@@@..
    ........
    ........
    ........


# [Ṓ] LATIN CAPITAL LETTER O WITH MACRON AND ACUTE
u+1e52:
    ....@@..
    @@@@@...
    ........
    .@@@@@..
    @@...@@.
    @@...@@.
    @@...@@.
    @@...@@.
    @@...@@.
    @@...@@.
    @@...@@.
    @@...@@.
    .@@@@@..
    ........
    ........
    ........

# [Ṕ] LATIN CAPITAL LETTER P WITH ACUTE
u+1e54:
    ....@@..
    ...@@...
    ........
    @@@@@@..
    .@@..@@.
    .@@..@@.
    .@@..@@.
    .@@@@@..
    .@@.....
    .@@.....
    .@@.....
    .@@.....
    @@@@....
    ........
    ........
    ........


# [ṕ] LATIN SMALL LETTER P WITH ACUTE
u+1e55:
    ........
    ........
    ....@@..
    ...@@...
    ..@@....
    ........
    @@.@@@..
    .@@..@@.
    .@@..@@.
    .@@..@@.
    .@@..@@.
    .@@..@@.
    .@@@@@..
    .@@.....
    .@@.....
    @@@@....


# [Ṙ] LATIN CAPITAL LETTER R WITH DOT ABOVE
u+1e58:
    ...@@...
    ...@@...
    ........
    @@@@@@..
    .@@..@@.
    .@@..@@.
    .@@..@@.
    .@@@@@..
    .@@.@@..
    .@@..@@.
    .@@..@@.
    .@@..@@.
    @@@..@@.
    ........
    ........
    ........


# [ṙ] LATIN SMALL LETTER R WITH DOT ABOVE
u+1e59:
    ........
    ........
    ........
    ...@@...
    ...@@...
    ........
    @@.@@@..
    .@@@.@@.
    .@@..@@.
    .@@.....
    .@@.....
    .@@.....
    @@@@....
    ........
    ........
    ........



# [Ṛ] LATIN CAPITAL LETTER R WITH DOT BELOW
u+1e5a:
    ........
    ........
    ........
    @@@@@@..
    .@@..@@.
    .@@..@@.
    .@@..@@.
    .@@@@@..
    .@@.@@..
    .@@..@@.
    .@@..@@.
    .@@..@@.
    @@@..@@.
    ........
    ...@@...
    ...@@...


# [ṛ] LATIN SMALL LETTER R WITH DOT BELOW
u+1e5b:
    ........
    ........
    ........
    ........
    ........
    ........
    @@.@@@..
    .@@@.@@.
    .@@..@@.
    .@@.....
    .@@.....
    .@@.....
    @@@@....
    ........
    .@@.....
    .@@.....


# [Ṝ] LATIN CAPITAL LETTER R WITH DOT BELOW AND MACRON
u+1e5c:
    ........
    @@@@@@@.
    ........
    @@@@@@..
    .@@..@@.
    .@@..@@.
    .@@..@@.
    .@@@@@..
    .@@.@@..
    .@@..@@.
    .@@..@@.
    .@@..@@.
    @@@..@@.
    ........
    ...@@...
    ...@@...


# [ṝ] LATIN SMALL LETTER R WITH DOT BELOW AND MACRON
u+1e5d:
    ........
    ........
    ........
    ........
    @@@@@@@.
    ........
    @@.@@@..
    .@@@.@@.
    .@@..@@.
    .@@.....
    .@@.....
    .@@.....
    @@@@....
    ........
    .@@.....
    .@@.....

# [Ṟ] LATIN CAPITAL LETTER R WITH LINE BELOW
u+1e5e:
    ........
    ........
    ........
    @@@@@@..
    .@@..@@.
    .@@..@@.
    .@@..@@.
    .@@@@@..
    .@@.@@..
    .@@..@@.
    .@@..@@.
    .@@..@@.
    @@@..@@.
    ........
    @@@@@@@.
    ........


# [ṟ] LATIN SMALL LETTER R WITH LINE BELOW
u+1e5f:
    ........
    ........
    ........
    ........
    ........
    ........
    @@.@@@..
    .@@@.@@.
    .@@..@@.
    .@@.....
    .@@.....
    .@@.....
    @@@@....
    ........
    @@@@@@@.
    ........


# [Ṥ] LATIN CAPITAL LETTER S WITH ACUTE AND DOT ABOVE
u+1e64:
    @@...@@.
    @@..@@..
    ........
    .@@@@@..
    @@...@@.
    @@...@@.
    .@@.....
    ..@@@...
    ....@@..
    .....@@.
    @@...@@.
    @@...@@.
    .@@@@@..
    ........
    ........
    ........


# [ṥ] LATIN SMALL LETTER S WITH ACUTE AND DOT ABOVE
u+1e65:
    ........
    .@@.....
    .@@.....
    ....@@..
    ...@@...
    ........
    .@@@@@..
    @@...@@.
    .@@.....
    ..@@@...
    ....@@..
    @@...@@.
    .@@@@@..
    ........
    ........
    ........

# [Ṧ] LATIN CAPITAL LETTER S WITH CARON AND DOT ABOVE
u+1e66:
    @@.@@.@@
    @@..@@@.
    ........
    .@@@@@..
    @@...@@.
    @@...@@.
    .@@.....
    ..@@@...
    ....@@..
    .....@@.
    @@...@@.
    @@...@@.
    .@@@@@..
    ........
    ........
    ........


# [ṧ] LATIN SMALL LETTER S WITH CARON AND DOT ABOVE
u+1e67:
    ..@@....
    ..@@....
    ........
    .@@.@@..
    ..@@@...
    ........
    .@@@@@..
    @@...@@.
    .@@.....
    ..@@@...
    ....@@..
    @@...@@.
    .@@@@@..
    ........
    ........
    ........


# [Ṩ] LATIN CAPITAL LETTER S WITH DOT BELOW AND DOT ABOVE
u+1e68:
    ..@@....
    ..@@....
    ........
    .@@@@@..
    @@...@@.
    @@...@@.
    .@@.....
    ..@@@...
    ....@@..
    .....@@.
    @@...@@.
    @@...@@.
    .@@@@@..
    ........
    ..@@....
    ..@@....


# [ṩ] LATIN SMALL LETTER S WITH DOT BELOW AND DOT ABOVE
u+1e69:
    ........
    ........
    ........
    ..@@....
    ..@@....
    ........
    .@@@@@..
    @@...@@.
    .@@.....
    ..@@@...
    ....@@..
    @@...@@.
    .@@@@@..
    ........
    ..@@....
    ..@@....



# [Ṯ] LATIN CAPITAL LETTER T WITH LINE BELOW
u+1e6e:
    ........
    ........
    ........
    .@@@@@@.
    .@@@@@@.
    .@.@@.@.
    ...@@...
    ...@@...
    ...@@...
    ...@@...
    ...@@...
    ...@@...
    ..@@@@..
    ........
    .@@@@@@.
    ........


# [ṯ] LATIN SMALL LETTER T WITH LINE BELOW
u+1e6f:
    ........
    ........
    ........
    ...@....
    ..@@....
    ..@@....
    @@@@@@..
    ..@@....
    ..@@....
    ..@@....
    ..@@....
    ..@@.@@.
    ...@@@..
    ........
    .@@@@@@.
    ........


# [Ṳ] LATIN CAPITAL LETTER U WITH DIAERESIS BELOW
u+1e72:
    ........
    ........
    ........
    @@...@@.
    @@...@@.
    @@...@@.
    @@...@@.
    @@...@@.
    @@...@@.
    @@...@@.
    @@...@@.
    @@...@@.
    .@@@@@..
    ........
    @@...@@.
    ........


# [ṳ] LATIN SMALL LETTER U WITH DIAERESIS BELOW
u+1e73:
    ........
    ........
    ........
    ........
    ........
    ........
    @@..@@..
    @@..@@..
    @@..@@..
    @@..@@..
    @@..@@..
    @@..@@..
    .@@@.@@.
    ........
    @@...@@.
    ........



# [Ṵ] LATIN CAPITAL LETTER U WITH TILDE BELOW
u+1e74:
    ........
    ........
    ........
    @@...@@.
    @@...@@.
    @@...@@.
    @@...@@.
    @@...@@.
    @@...@@.
    @@...@@.
    @@...@@.
    @@...@@.
    .@@@@@..
    ........
    .@@@.@@.
    @@.@@@..


# [ṵ] LATIN SMALL LETTER U WITH TILDE BELOW
u+1e75:
    ........
    ........
    ........
    ........
    ........
    ........
    @@..@@..
    @@..@@..
    @@..@@..
    @@..@@..
    @@..@@..
    @@..@@..
    .@@@.@@.
    ........
    .@@@.@@.
    @@.@@@..



# [Ṷ] LATIN CAPITAL LETTER U WITH CIRCUMFLEX BELOW
u+1e76:
    ........
    ........
    ........
    @@...@@.
    @@...@@.
    @@...@@.
    @@...@@.
    @@...@@.
    @@...@@.
    @@...@@.
    @@...@@.
    @@...@@.
    .@@@@@..
    ........
    ..@@@...
    .@@.@@..



# [ṷ] LATIN SMALL LETTER U WITH CIRCUMFLEX BELOW
u+1e77:
    ........
    ........
    ........
    ........
    ........
    ........
    @@..@@..
    @@..@@..
    @@..@@..
    @@..@@..
    @@..@@..
    @@..@@..
    .@@@.@@.
    ........
    ..@@@...
    .@@.@@..


# [Ṹ] LATIN CAPITAL LETTER U WITH TILDE AND ACUTE
u+1e78:
    ....@@..
    ...@@...
    .@@@.@@.
    @@.@@@..
    ........
    @@...@@.
    @@...@@.
    @@...@@.
    @@...@@.
    @@...@@.
    @@...@@.
    @@...@@.
    .@@@@@..
    ........
    ........
    ........

# [ṹ] LATIN SMALL LETTER U WITH TILDE AND ACUTE
u+1e79:
    ....@@..
    ...@@...
    ........
    .@@@.@@.
    @@.@@@..
    ........
    @@..@@..
    @@..@@..
    @@..@@..
    @@..@@..
    @@..@@..
    @@..@@..
    .@@@.@@.
    ........
    ........
    ........


# [Ṻ] LATIN CAPITAL LETTER U WITH MACRON AND DIAERESIS
u+1e7a:
    @@...@@.
    ........
    @@@@@@@.
    ........
    @@...@@.
    @@...@@.
    @@...@@.
    @@...@@.
    @@...@@.
    @@...@@.
    @@...@@.
    @@...@@.
    .@@@@@..
    ........
    ........
    ........



# [ṻ] LATIN SMALL LETTER U WITH MACRON AND DIAERESIS
u+1e7b:
    ........
    ........
    @@..@@..
    ........
    @@@@@@..
    ........
    @@..@@..
    @@..@@..
    @@..@@..
    @@..@@..
    @@..@@..
    @@..@@..
    .@@@.@@.
    ........
    ........
    ........


# [Ṽ] LATIN CAPITAL LETTER V WITH TILDE
u+1e7c:
    .@@@.@@.
    @@.@@@..
    ........
    @@...@@.
    @@...@@.
    @@...@@.
    @@...@@.
    @@...@@.
    @@...@@.
    @@...@@.
    .@@.@@..
    ..@@@...
    ...@....
    ........
    ........
    ........


# [ṽ] LATIN SMALL LETTER V WITH TILDE
u+1e7d:
    ........
    ........
    ........
    .@@@.@@.
    @@.@@@..
    ........
    @@...@@.
    @@...@@.
    @@...@@.
    @@...@@.
    @@...@@.
    .@@.@@..
    ..@@@...
    ........
    ........
    ........

# [Ṿ] LATIN CAPITAL LETTER V WITH DOT BELOW
u+1e7e:
    ........
    ........
    ........
    @@...@@.
    @@...@@.
    @@...@@.
    @@...@@.
    @@...@@.
    @@...@@.
    @@...@@.
    .@@.@@..
    ..@@@...
    ...@....
    ........
    ..@@....
    ..@@....


# [ṿ] LATIN SMALL LETTER V WITH DOT BELOW
u+1e7f:
    ........
    ........
    ........
    ........
    ........
    ........
    @@...@@.
    @@...@@.
    @@...@@.
    @@...@@.
    @@...@@.
    .@@.@@..
    ..@@@...
    ........
    ..@@....
    ..@@....


# [Ẇ] LATIN CAPITAL LETTER W WITH DOT ABOVE
u+1e86:
    ..@@....
    ..@@....
    ........
    @@...@@.
    @@...@@.
    @@...@@.
    @@...@@.
    @@.@.@@.
    @@.@.@@.
    @@.@.@@.
    @@@@@@@.
    @@@.@@@.
    .@@.@@..
    ........
    ........
    ........


# [ẇ] LATIN SMALL LETTER W WITH DOT ABOVE
u+1e87:
    ........
    ........
    ........
    ..@@....
    ..@@....
    ........
    @@...@@.
    @@...@@.
    @@.@.@@.
    @@.@.@@.
    @@.@.@@.
    @@@@@@@.
    .@@.@@..
    ........
    ........
    ........


# [Ẉ] LATIN CAPITAL LETTER W WITH DOT BELOW
u+1e88:
    ........
    ........
    ........
    @@...@@.
    @@...@@.
    @@...@@.
    @@...@@.
    @@.@.@@.
    @@.@.@@.
    @@.@.@@.
    @@@@@@@.
    @@@.@@@.
    .@@.@@..
    ........
    ..@@....
    ..@@....


# [ẉ] LATIN SMALL LETTER W WITH DOT BELOW
u+1e89:
    ........
    ........
    ........
    ........
    ........
    ........
    @@...@@.
    @@...@@.
    @@.@.@@.
    @@.@.@@.
    @@.@.@@.
    @@@@@@@.
    .@@.@@..
    ........
    ..@@....
    ..@@....


# [Ẏ] LATIN CAPITAL LETTER Y WITH DOT ABOVE
u+1e8e:
    ...@@...
    ...@@...
    ........
    .@@..@@.
    .@@..@@.
    .@@..@@.
    .@@..@@.
    ..@@@@..
    ...@@...
    ...@@...
    ...@@...
    ...@@...
    ..@@@@..
    ........
    ........
    ........


# [ẏ] LATIN SMALL LETTER Y WITH DOT ABOVE
u+1e8f:
    ........
    ........
    ........
    ..@@....
    ..@@....
    ........
    @@...@@.
    @@...@@.
    @@...@@.
    @@...@@.
    @@...@@.
    @@...@@.
    .@@@@@@.
    .....@@.
    ....@@..
    @@@@@...

# [Ẑ] LATIN CAPITAL LETTER Z WITH CIRCUMFLEX
u+1e90:
    ..@@@...
    .@@.@@..
    ........
    @@@@@@@.
    @@...@@.
    @....@@.
    ....@@..
    ...@@...
    ..@@....
    .@@.....
    @@....@.
    @@...@@.
    @@@@@@@.
    ........
    ........
    ........


# [ẑ] LATIN SMALL LETTER Z WITH CIRCUMFLEX
u+1e91:
    ........
    ........
    ...@....
    ..@@@...
    .@@.@@..
    ........
    @@@@@@@.
    @@..@@..
    ...@@...
    ..@@....
    .@@.....
    @@...@@.
    @@@@@@@.
    ........
    ........
    ........



# [Ẕ] LATIN CAPITAL LETTER Z WITH LINE BELOW
u+1e94:
    ........
    ........
    @@@@@@@.
    @@...@@.
    @....@@.
    ....@@..
    ...@@...
    ..@@....
    .@@.....
    @@....@.
    @@...@@.
    @@@@@@@.
    ........
    @@@@@@@.
    ........
    ........


# [ẕ] LATIN SMALL LETTER Z WITH LINE BELOW
u+1e95:
    ........
    ........
    ........
    ........
    ........
    @@@@@@@.
    @@..@@..
    ...@@...
    ..@@....
    .@@.....
    @@...@@.
    @@@@@@@.
    ........
    @@@@@@@.
    ........
    ........



# [ẖ] LATIN SMALL LETTER H WITH LINE BELOW
u+1e96:
    ........
    ........
    ........
    @@@.....
    .@@.....
    .@@.....
    .@@.@@..
    .@@@.@@.
    .@@..@@.
    .@@..@@.
    .@@..@@.
    .@@..@@.
    @@@..@@.
    ........
    @@@@@@@.
    ........


# [ẗ] LATIN SMALL LETTER T WITH DIAERESIS
u+1e97:
    ........
    ........
    @@..@@..
    ........
    ...@....
    ..@@....
    @@@@@@..
    ..@@....
    ..@@....
    ..@@....
    ..@@....
    ..@@.@@.
    ...@@@..
    ........
    ........
    ........



# [ẘ] LATIN SMALL LETTER W WITH RING ABOVE
u+1e98:
    ........
    ........
    ..@@@...
    .@@.@@..
    ..@@@...
    ........
    @@...@@.
    @@...@@.
    @@.@.@@.
    @@.@.@@.
    @@.@.@@.
    @@@@@@@.
    .@@.@@..
    ........
    ........
    ........


# [ẙ] LATIN SMALL LETTER Y WITH RING ABOVE
u+1e99:
    ........
    ........
    ..@@@...
    .@@.@@..
    ..@@@...
    ........
    @@...@@.
    @@...@@.
    @@...@@.
    @@...@@.
    @@...@@.
    @@...@@.
    .@@@@@@.
    .....@@.
    ....@@..
    @@@@@...


# [ẚ] LATIN SMALL LETTER A WITH RIGHT HALF RING
u+1e9a:
    ........
    ........
    ...@@...
    ....@@..
    ...@@...
    ........
    .@@@@...
    ....@@..
    .@@@@@..
    @@..@@..
    @@..@@..
    @@..@@..
    .@@@.@@.
    ........
    ........
    ........


# [ẛ] LATIN SMALL LETTER LONG S WITH DOT ABOVE
u+1e9b:
    ...@@...
    ...@@...
    ........
    ...@@@..
    ..@@.@@.
    ..@@..@.
    ..@@....
    ..@@....
    ..@@....
    ..@@....
    ..@@....
    ..@@....
    .@@@@...
    ........
    ........
    ........


# U+1E9C LATIN SMALL LETTER LONG S WITH DIAGONAL STROKE
u+1e9c:
    ........
    ........
    ........
    ...@@@..
    ..@@.@@.
    ..@@....
    ..@@..@.
    ..@@.@..
    ..@@@...
    ..@@....
    .@@@....
    @.@@....
    .@@@@...
    ........
    ........
    ........

# U+1E9D LATIN SMALL LETTER LONG S WITH HIGH STROKE
u+1e9d:
    ........
    ........
    ........
    ...@@@..
    ..@@.@@.
    ..@@....
    @@@@@@@.
    ..@@....
    ..@@....
    ..@@....
    ..@@....
    ..@@....
    .@@@@...
    ........
    ........
    ........

# U+1E9E LATIN CAPITAL LETTER SHARP S
u+1e9e:
    ........
    ........
    ........
    .@@@@@@.
    @@...@@.
    @@..@@..
    @@.@@...
    @@..@@..
    @@...@@.
    @@...@@.
    @@...@@.
    @@.@.@@.
    @@.@@@..
    ........
    ........
    ........


# U+1E9F LATIN SMALL LETTER DELTA
u+1e9f:
    ........
    ........
    ........
    .@@@@...
    @@......
    .@@.....
    ..@@@...
    .@@.@@..
    @@..@@..
    @@..@@..
    @@..@@..
    @@..@@..
    .@@@.@@.
    ........
    ........
    ........


# U+1EFA LATIN CAPITAL LETTER MIDDLE-WELSH LL
u+1efa:
    ........
    ........
    ........
    @@@@@...
    @@.@....
    @@.@....
    @@.@....
    @@.@....
    @@.@....
    @@.@....
    @@.@..@.
    @@.@.@@.
    @@@@@@@.
    ........
    ........
    ........


# U+1EFB LATIN SMALL LETTER MIDDLE-WELSH LL
u+1efb:
    ........
    ........
    ........
    @@@.@@..
    .@@.@@..
    .@@.@@..
    @@@@@@@.
    .@@.@@..
    .@@.@@..
    .@@.@@..
    .@@.@@..
    .@@.@@..
    @@@@@@@.
    ........
    ........
    ........


# U+1EFC LATIN CAPITAL LETTER MIDDLE-WELSH V
u+1efc:
    ........
    ........
    ........
    ..@@@...
    .@@.....
    @@......
    @@......
    @@...@..
    @@...@@.
    @@...@@.
    @@...@@.
    @@...@@.
    .@@@@@..
    ........
    ........
    ........


# U+1EFD LATIN SMALL LETTER MIDDLE-WELSH V
u+1efd:
    ........
    ........
    ........
    ........
    ........
    ........
    ..@@@...
    .@@.....
    @@......
    @@...@..
    @@...@@.
    .@@.@@..
    ..@@@...
    ........
    ........
    ........


# U+1EFE LATIN CAPITAL LETTER Y WITH LOOP
u+1efe:
    ........
    ........
    ........
    .@@..@@.
    .@@..@@.
    .@@..@@.
    .@@..@@.
    ..@@@@..
    ...@@...
    .@@@@...
    @@.@@...
    @@.@@...
    .@@@....
    ........
    ........
    ........

# U+1EFF LATIN SMALL LETTER Y WITH LOOP
u+1eff:
    ........
    ........
    ........
    ........
    ........
    ........
    @@...@@.
    @@...@@.
    @@...@@.
    @@...@@.
    @@...@@.
    @@...@@.
    .@@@@@@.
    ..@..@@.
    @@..@@..
    .@@@@...


# [ἀ] GREEK SMALL LETTER ALPHA WITH PSILI
u+1f00:
    ........
    ........
    ...@@...
    ...@@...
    ..@@....
    ........
    .@@@.@@.
    @@..@@..
    @@..@@..
    @@..@@..
    @@..@@..
    @@..@@..
    .@@@.@@.
    ........
    ........
    ........


# [ἁ] GREEK SMALL LETTER ALPHA WITH DASIA
u+1f01:
    ........
    ........
    ..@@....
    ..@@....
    ...@@...
    ........
    .@@@.@@.
    @@..@@..
    @@..@@..
    @@..@@..
    @@..@@..
    @@..@@..
    .@@@.@@.
    ........
    ........
    ........


# [ἂ] GREEK SMALL LETTER ALPHA WITH PSILI AND VARIA
u+1f02:
    ........
    ........
    .@@.....
    .@@.@@..
    @@...@@.
    ........
    .@@@.@@.
    @@..@@..
    @@..@@..
    @@..@@..
    @@..@@..
    @@..@@..
    .@@@.@@.
    ........
    ........
    ........


# [ἃ] GREEK SMALL LETTER ALPHA WITH DASIA AND VARIA
u+1f03:
    ........
    ........
    @@......
    @@..@@..
    .@@..@@.
    ........
    .@@@.@@.
    @@..@@..
    @@..@@..
    @@..@@..
    @@..@@..
    @@..@@..
    .@@@.@@.
    ........
    ........
    ........


# [ἄ] GREEK SMALL LETTER ALPHA WITH PSILI AND OXIA
u+1f04:
    ........
    ........
    .@@.....
    .@@..@@.
    @@..@@..
    ........
    .@@@.@@.
    @@..@@..
    @@..@@..
    @@..@@..
    @@..@@..
    @@..@@..
    .@@@.@@.
    ........
    ........
    ........


# [ἅ] GREEK SMALL LETTER ALPHA WITH DASIA AND OXIA
u+1f05:
    ........
    ........
    @@......
    @@...@@.
    .@@.@@..
    ........
    .@@@.@@.
    @@..@@..
    @@..@@..
    @@..@@..
    @@..@@..
    @@..@@..
    .@@@.@@.
    ........
    ........
    ........


# [ἆ] GREEK SMALL LETTER ALPHA WITH PSILI AND PERISPOMENI
u+1f06:
    ..@@.@..
    .@.@@...
    ........
    ....@@..
    ...@@...
    ........
    .@@@.@@.
    @@..@@..
    @@..@@..
    @@..@@..
    @@..@@..
    @@..@@..
    .@@@.@@.
    ........
    ........
    ........


# [ἇ] GREEK SMALL LETTER ALPHA WITH DASIA AND PERISPOMENI
u+1f07:
    ..@@.@..
    .@.@@...
    ........
    ..@@....
    ...@@...
    ........
    .@@@.@@.
    @@..@@..
    @@..@@..
    @@..@@..
    @@..@@..
    @@..@@..
    .@@@.@@.
    ........
    ........
    ........

# [‐] HYPHEN
u+2010:
    ........
    ........
    ........
    ........
    ........
    ........
    ........
    ........
    .@@@@@..
    ........
    ........
    ........
    ........
    ........
    ........
    ........


# [‑] NON-BREAKING HYPHEN
u+2011:
    ........
    ........
    ........
    ........
    ........
    ........
    ........
    ........
    .@@@@@..
    ........
    ........
    ........
    ........
    ........
    ........
    ........



# [‒] FIGURE DASH
u+2012:
    ........
    ........
    ........
    ........
    ........
    ........
    ........
    ........
    .@@@@@@.
    ........
    ........
    ........
    ........
    ........
    ........
    ........


# [–] EN DASH
u+2013:
    ........
    ........
    ........
    ........
    ........
    ........
    ........
    ........
    .@@@@@@.
    ........
    ........
    ........
    ........
    ........
    ........
    ........


# [—] EM DASH
u+2014:
    ........
    ........
    ........
    ........
    ........
    ........
    ........
    ........
    @@@@@@@@
    ........
    ........
    ........
    ........
    ........
    ........
    ........


# [‖] DOUBLE VERTICAL LINE
u+2016:
    ........
    ........
    ........
    .@@.@@..
    .@@.@@..
    .@@.@@..
    .@@.@@..
    .@@.@@..
    .@@.@@..
    .@@.@@..
    .@@.@@..
    .@@.@@..
    .@@.@@..
    ........
    ........
    ........



# [‚] SINGLE LOW-9 QUOTATION MARK
u+201a:
    ........
    ........
    ........
    ........
    ........
    ........
    ........
    ........
    ........
    ........
    ...@@...
    ...@@...
    ...@@...
    ..@@....
    ........
    ........


# [‛] SINGLE HIGH-REVERSED-9 QUOTATION MARK
u+201b:
    ........
    ..@@....
    ..@@....
    ..@@....
    ...@@...
    ........
    ........
    ........
    ........
    ........
    ........
    ........
    ........
    ........
    ........
    ........



# [‟] DOUBLE HIGH-REVERSED-9 QUOTATION MARK
u+201f:
    ........
    @@..@@..
    @@..@@..
    @@..@@..
    .@@..@@.
    ........
    ........
    ........
    ........
    ........
    ........
    ........
    ........
    ........
    ........
    ........



# [†] DAGGER
u+2020:
    ........
    ........
    ........
    ...@@...
    ...@@...
    ...@@...
    .@@@@@@.
    ...@@...
    ...@@...
    ...@@...
    ...@@...
    ...@@...
    ...@@...
    ........
    ........
    ........


# [‡] DOUBLE DAGGER
u+2021:
    ........
    ........
    ........
    ...@@...
    ...@@...
    ...@@...
    .@@@@@@.
    ...@@...
    ...@@...
    .@@@@@@.
    ...@@...
    ...@@...
    ...@@...
    ........
    ........
    ........



# [‣] TRIANGULAR BULLET
u+2023:
    ........
    ........
    ........
    ........
    ........
    ..@.....
    ..@@....
    ..@@@...
    ..@@@@..
    ..@@@...
    ..@@....
    ..@.....
    ........
    ........
    ........
    ........


# [․] ONE DOT LEADER
u+2024:
    ........
    ........
    ........
    ........
    ........
    ........
    ........
    ........
    ........
    ........
    ........
    ...@@...
    ...@@...
    ........
    ........
    ........


# [‥] TWO DOT LEADER
u+2025:
    ........
    ........
    ........
    ........
    ........
    ........
    ........
    ........
    ........
    ........
    ........
    .@@..@@.
    .@@..@@.
    ........
    ........
    ........



# [‧] HYPHENATION POINT
u+2027:
    ........
    ........
    ........
    ........
    ........
    ........
    ........
    ........
    ...@@...
    ...@@...
    ........
    ........
    ........
    ........
    ........
    ........


# [‰] PER MILLE SIGN
u+2030:
    ........
    ........
    ........
    ........
    @@......
    @@...@@.
    ....@@..
    ...@@...
    ..@@....
    .@@.....
    @@......
    ..@@.@@.
    ..@@.@@.
    ........
    ........
    ........


# [‱] PER TEN THOUSAND SIGN
u+2031:
    ........
    ........
    ........
    ........
    @@......
    @@...@@.
    ....@@..
    ...@@...
    ..@@....
    .@@.....
    @@......
    .@@.@.@@
    .@@.@.@@
    ........
    ........
    ........




# [′] PRIME
u+2032:
    ........
    ........
    ...@@...
    ...@@...
    ...@....
    ........
    ........
    ........
    ........
    ........
    ........
    ........
    ........
    ........
    ........
    ........


# [″] DOUBLE PRIME
u+2033:
    ........
    ........
    .@@.@@..
    .@@.@@..
    .@..@...
    ........
    ........
    ........
    ........
    ........
    ........
    ........
    ........
    ........
    ........
    ........


# [‴] TRIPLE PRIME
u+2034:
    ........
    ........
    @@.@@.@@
    @@.@@.@@
    @..@..@.
    ........
    ........
    ........
    ........
    ........
    ........
    ........
    ........
    ........
    ........
    ........


# [‵] REVERSED PRIME
u+2035:
    ........
    ........
    ...@@...
    ...@@...
    ....@...
    ........
    ........
    ........
    ........
    ........
    ........
    ........
    ........
    ........
    ........
    ........


# [‶] REVERSED DOUBLE PRIME
u+2036:
    ........
    ........
    .@@.@@..
    .@@.@@..
    ..@..@..
    ........
    ........
    ........
    ........
    ........
    ........
    ........
    ........
    ........
    ........
    ........


# [‷] REVERSED TRIPLE PRIME
u+2037:
    ........
    ........
    @@.@@.@@
    @@.@@.@@
    .@..@..@
    ........
    ........
    ........
    ........
    ........
    ........
    ........
    ........
    ........
    ........
    ........


# [‸] CARET
u+2038:
    ........
    ........
    ........
    ........
    ........
    ........
    ........
    ........
    ........
    ........
    ........
    ........
    ...@....
    ..@@@...
    .@@.@@..
    @@...@@.


# [‹] SINGLE LEFT-POINTING ANGLE QUOTATION MARK
u+2039:
    ........
    ........
    ........
    ........
    ........
    ....@@..
    ...@@...
    ..@@....
    .@@.....
    ..@@....
    ...@@...
    ....@@..
    ........
    ........
    ........
    ........


# [›] SINGLE RIGHT-POINTING ANGLE QUOTATION MARK
u+203a:
    ........
    ........
    ........
    ........
    ........
    .@@.....
    ..@@....
    ...@@...
    ....@@..
    ...@@...
    ..@@....
    .@@.....
    ........
    ........
    ........
    ........


# [※] REFERENCE MARK
u+203b:
    ........
    ........
    ........
    ........
    ........
    @..@..@.
    .@...@..
    ..@.@...
    @..@..@.
    ..@.@...
    .@...@..
    @..@..@.
    ........
    ........
    ........
    ........

